<svg xmlns="http://www.w3.org/2000/svg" width="1240" height="2134" viewBox="0 0 1240 2134"><rect x="0" y="0" width="1240" height="2134" fill="white"/><text x="620.0" y="26" text-anchor="middle" font-family="DejaVu Sans, sans-serif" font-size="18" font-weight="bold">AOI_HomeAxis — per-shoulder homing state machine</text><line x1="60" y1="40" x2="60" y2="2116" stroke="black" stroke-width="2.5"/><line x1="1180" y1="40" x2="1180" y2="2116" stroke="black" stroke-width="2.5"/><text x="10" y="129.0" font-family="DejaVu Sans, sans-serif" font-size="12" fill="#555">0</text><text x="60" y="66" font-family="DejaVu Sans, sans-serif" font-size="11" font-style="italic" fill="#367">Start: on HomeReq while idle, begin fast approach</text><line x1="60" y1="125.0" x2="60" y2="125.0" stroke="black"/><text x="96.0" y="111.0" text-anchor="middle" font-family="DejaVu Sans, sans-serif" font-size="11">HomeReq</text><line x1="81.0" y1="114.0" x2="81.0" y2="136.0" stroke="black" stroke-width="2"/><line x1="111.0" y1="114.0" x2="111.0" y2="136.0" stroke="black" stroke-width="2"/><line x1="60" y1="125.0" x2="81.0" y2="125.0" stroke="black"/><line x1="111.0" y1="125.0" x2="132" y2="125.0" stroke="black"/><line x1="132" y1="125.0" x2="142" y2="125.0" stroke="black"/><rect x="142" y="105.0" width="100" height="40" fill="#fff" stroke="black"/><text x="192.0" y="121.0" text-anchor="middle" font-family="DejaVu Sans, sans-serif" font-size="11" font-weight="bold">EQU</text><text x="192.0" y="138.0" text-anchor="middle" font-family="DejaVu Sans, sans-serif" font-size="10">Step = 0</text><line x1="242" y1="125.0" x2="252" y2="125.0" stroke="black"/><text x="289.5" y="111.0" text-anchor="middle" font-family="DejaVu Sans, sans-serif" font-size="11">HomeFault</text><line x1="274.5" y1="114.0" x2="274.5" y2="136.0" stroke="black" stroke-width="2"/><line x1="304.5" y1="114.0" x2="304.5" y2="136.0" stroke="black" stroke-width="2"/><line x1="274.5" y1="136.0" x2="304.5" y2="114.0" stroke="black" stroke-width="1.5"/><line x1="252" y1="125.0" x2="274.5" y2="125.0" stroke="black"/><line x1="304.5" y1="125.0" x2="327" y2="125.0" stroke="black"/><line x1="327" y1="125.0" x2="337" y2="125.0" stroke="black"/><line x1="343" y1="97.0" x2="1030" y2="97.0" stroke="black"/><rect x="1030" y="74.0" width="150" height="46" fill="#eef" stroke="black"/><text x="1105.0" y="88.0" text-anchor="middle" font-family="DejaVu Sans, sans-serif" font-size="11" font-weight="bold">MOV</text><text x="1038" y="103.0" font-family="DejaVu Sans, sans-serif" font-size="10">Source 10</text><text x="1038" y="117.0" font-family="DejaVu Sans, sans-serif" font-size="10">Dest Step</text><line x1="1180" y1="97.0" x2="1180" y2="97.0" stroke="black"/><line x1="343" y1="163.0" x2="1108" y2="163.0" stroke="black"/><text x="1144.0" y="149.0" text-anchor="middle" font-family="DejaVu Sans, sans-serif" font-size="11">HomeDone</text><path d="M 1128.0 152.0 A 14 14 0 0 0 1128.0 174.0" fill="none" stroke="black" stroke-width="2"/><path d="M 1160.0 152.0 A 14 14 0 0 1 1160.0 174.0" fill="none" stroke="black" stroke-width="2"/><text x="1144.0" y="167.0" text-anchor="middle" font-family="DejaVu Sans, sans-serif" font-size="11">U</text><line x1="1108" y1="163.0" x2="1128.0" y2="163.0" stroke="black"/><line x1="1160.0" y1="163.0" x2="1180" y2="163.0" stroke="black"/><line x1="1180" y1="163.0" x2="1180" y2="163.0" stroke="black"/><line x1="343" y1="97.0" x2="343" y2="163.0" stroke="black"/><line x1="60" y1="190" x2="1180" y2="190" stroke="#ddd"/><text x="10" y="313.0" font-family="DejaVu Sans, sans-serif" font-size="12" fill="#555">1</text><text x="60" y="210" font-family="DejaVu Sans, sans-serif" font-size="11" font-style="italic" fill="#367">Fast approach: jog toward switch, arm timeout</text><line x1="60" y1="309.0" x2="60" y2="309.0" stroke="black"/><rect x="60" y="289.0" width="100" height="40" fill="#fff" stroke="black"/><text x="110.0" y="305.0" text-anchor="middle" font-family="DejaVu Sans, sans-serif" font-size="11" font-weight="bold">EQU</text><text x="110.0" y="322.0" text-anchor="middle" font-family="DejaVu Sans, sans-serif" font-size="10">Step = 10</text><line x1="160" y1="309.0" x2="170" y2="309.0" stroke="black"/><line x1="176" y1="231.0" x2="1098" y2="231.0" stroke="black"/><text x="1139.0" y="217.0" text-anchor="middle" font-family="DejaVu Sans, sans-serif" font-size="11">Ax.JogHome</text><path d="M 1123.0 220.0 A 14 14 0 0 0 1123.0 242.0" fill="none" stroke="black" stroke-width="2"/><path d="M 1155.0 220.0 A 14 14 0 0 1 1155.0 242.0" fill="none" stroke="black" stroke-width="2"/><line x1="1098" y1="231.0" x2="1123.0" y2="231.0" stroke="black"/><line x1="1155.0" y1="231.0" x2="1180" y2="231.0" stroke="black"/><line x1="1180" y1="231.0" x2="1180" y2="231.0" stroke="black"/><line x1="176" y1="297.0" x2="1030" y2="297.0" stroke="black"/><rect x="1030" y="274.0" width="150" height="46" fill="#eef" stroke="black"/><text x="1105.0" y="288.0" text-anchor="middle" font-family="DejaVu Sans, sans-serif" font-size="11" font-weight="bold">MOV</text><text x="1038" y="303.0" font-family="DejaVu Sans, sans-serif" font-size="10">Source FastVel</text><text x="1038" y="317.0" font-family="DejaVu Sans, sans-serif" font-size="10">Dest Ax.JogVel</text><line x1="1180" y1="297.0" x2="1180" y2="297.0" stroke="black"/><line x1="176" y1="375.0" x2="1030" y2="375.0" stroke="black"/><rect x="1030" y="350.0" width="150" height="50" fill="#eef" stroke="black"/><text x="1105.0" y="361.0" text-anchor="middle" font-family="DejaVu Sans, sans-serif" font-size="11" font-weight="bold">TON</text><text x="1038" y="374.0" font-family="DejaVu Sans, sans-serif" font-size="10">Timer HomeTmr</text><text x="1038" y="388.0" font-family="DejaVu Sans, sans-serif" font-size="10">Preset TimeoutPreset</text><line x1="1180" y1="375.0" x2="1180" y2="375.0" stroke="black"/><line x1="176" y1="231.0" x2="176" y2="375.0" stroke="black"/><line x1="60" y1="414" x2="1180" y2="414" stroke="#ddd"/><text x="10" y="535.0" font-family="DejaVu Sans, sans-serif" font-size="12" fill="#555">2</text><text x="60" y="434" font-family="DejaVu Sans, sans-serif" font-size="11" font-style="italic" fill="#367">Switch hit (fast): stop, capture position, go back off</text><line x1="60" y1="531.0" x2="60" y2="531.0" stroke="black"/><rect x="60" y="511.0" width="100" height="40" fill="#fff" stroke="black"/><text x="110.0" y="527.0" text-anchor="middle" font-family="DejaVu Sans, sans-serif" font-size="11" font-weight="bold">EQU</text><text x="110.0" y="544.0" text-anchor="middle" font-family="DejaVu Sans, sans-serif" font-size="10">Step = 10</text><line x1="160" y1="531.0" x2="170" y2="531.0" stroke="black"/><text x="211.0" y="517.0" text-anchor="middle" font-family="DejaVu Sans, sans-serif" font-size="11">HomeSwitch</text><line x1="196.0" y1="520.0" x2="196.0" y2="542.0" stroke="black" stroke-width="2"/><line x1="226.0" y1="520.0" x2="226.0" y2="542.0" stroke="black" stroke-width="2"/><line x1="170" y1="531.0" x2="196.0" y2="531.0" stroke="black"/><line x1="226.0" y1="531.0" x2="252" y2="531.0" stroke="black"/><line x1="252" y1="531.0" x2="262" y2="531.0" stroke="black"/><line x1="268" y1="455.0" x2="1098" y2="455.0" stroke="black"/><text x="1139.0" y="441.0" text-anchor="middle" font-family="DejaVu Sans, sans-serif" font-size="11">Ax.JogHome</text><path d="M 1123.0 444.0 A 14 14 0 0 0 1123.0 466.0" fill="none" stroke="black" stroke-width="2"/><path d="M 1155.0 444.0 A 14 14 0 0 1 1155.0 466.0" fill="none" stroke="black" stroke-width="2"/><text x="1139.0" y="459.0" text-anchor="middle" font-family="DejaVu Sans, sans-serif" font-size="11">U</text><line x1="1098" y1="455.0" x2="1123.0" y2="455.0" stroke="black"/><line x1="1155.0" y1="455.0" x2="1180" y2="455.0" stroke="black"/><line x1="1180" y1="455.0" x2="1180" y2="455.0" stroke="black"/><line x1="268" y1="521.0" x2="1030" y2="521.0" stroke="black"/><rect x="1030" y="498.0" width="150" height="46" fill="#eef" stroke="black"/><text x="1105.0" y="512.0" text-anchor="middle" font-family="DejaVu Sans, sans-serif" font-size="11" font-weight="bold">MOV</text><text x="1038" y="527.0" font-family="DejaVu Sans, sans-serif" font-size="10">Source Ax.ActualSteps</text><text x="1038" y="541.0" font-family="DejaVu Sans, sans-serif" font-size="10">Dest BackoffStart</text><line x1="1180" y1="521.0" x2="1180" y2="521.0" stroke="black"/><line x1="268" y1="597.0" x2="1030" y2="597.0" stroke="black"/><rect x="1030" y="574.0" width="150" height="46" fill="#eef" stroke="black"/><text x="1105.0" y="588.0" text-anchor="middle" font-family="DejaVu Sans, sans-serif" font-size="11" font-weight="bold">MOV</text><text x="1038" y="603.0" font-family="DejaVu Sans, sans-serif" font-size="10">Source 20</text><text x="1038" y="617.0" font-family="DejaVu Sans, sans-serif" font-size="10">Dest Step</text><line x1="1180" y1="597.0" x2="1180" y2="597.0" stroke="black"/><line x1="268" y1="455.0" x2="268" y2="597.0" stroke="black"/><line x1="60" y1="634" x2="1180" y2="634" stroke="#ddd"/><text x="10" y="717.0" font-family="DejaVu Sans, sans-serif" font-size="12" fill="#555">3</text><text x="60" y="654" font-family="DejaVu Sans, sans-serif" font-size="11" font-style="italic" fill="#367">Fast approach timed out -&gt; fault</text><line x1="60" y1="713.0" x2="60" y2="713.0" stroke="black"/><rect x="60" y="693.0" width="100" height="40" fill="#fff" stroke="black"/><text x="110.0" y="709.0" text-anchor="middle" font-family="DejaVu Sans, sans-serif" font-size="11" font-weight="bold">EQU</text><text x="110.0" y="726.0" text-anchor="middle" font-family="DejaVu Sans, sans-serif" font-size="10">Step = 10</text><line x1="160" y1="713.0" x2="170" y2="713.0" stroke="black"/><text x="211.0" y="699.0" text-anchor="middle" font-family="DejaVu Sans, sans-serif" font-size="11">HomeTmr.DN</text><line x1="196.0" y1="702.0" x2="196.0" y2="724.0" stroke="black" stroke-width="2"/><line x1="226.0" y1="702.0" x2="226.0" y2="724.0" stroke="black" stroke-width="2"/><line x1="170" y1="713.0" x2="196.0" y2="713.0" stroke="black"/><line x1="226.0" y1="713.0" x2="252" y2="713.0" stroke="black"/><line x1="252" y1="713.0" x2="262" y2="713.0" stroke="black"/><line x1="268" y1="675.0" x2="1105" y2="675.0" stroke="black"/><text x="1142.5" y="661.0" text-anchor="middle" font-family="DejaVu Sans, sans-serif" font-size="11">HomeFault</text><path d="M 1126.5 664.0 A 14 14 0 0 0 1126.5 686.0" fill="none" stroke="black" stroke-width="2"/><path d="M 1158.5 664.0 A 14 14 0 0 1 1158.5 686.0" fill="none" stroke="black" stroke-width="2"/><text x="1142.5" y="679.0" text-anchor="middle" font-family="DejaVu Sans, sans-serif" font-size="11">L</text><line x1="1105" y1="675.0" x2="1126.5" y2="675.0" stroke="black"/><line x1="1158.5" y1="675.0" x2="1180" y2="675.0" stroke="black"/><line x1="1180" y1="675.0" x2="1180" y2="675.0" stroke="black"/><line x1="268" y1="741.0" x2="1030" y2="741.0" stroke="black"/><rect x="1030" y="718.0" width="150" height="46" fill="#eef" stroke="black"/><text x="1105.0" y="732.0" text-anchor="middle" font-family="DejaVu Sans, sans-serif" font-size="11" font-weight="bold">MOV</text><text x="1038" y="747.0" font-family="DejaVu Sans, sans-serif" font-size="10">Source 900</text><text x="1038" y="761.0" font-family="DejaVu Sans, sans-serif" font-size="10">Dest Step</text><line x1="1180" y1="741.0" x2="1180" y2="741.0" stroke="black"/><line x1="268" y1="675.0" x2="268" y2="741.0" stroke="black"/><line x1="60" y1="778" x2="1180" y2="778" stroke="#ddd"/><text x="10" y="893.0" font-family="DejaVu Sans, sans-serif" font-size="12" fill="#555">4</text><text x="60" y="798" font-family="DejaVu Sans, sans-serif" font-size="11" font-style="italic" fill="#367">Back off away from switch at slow velocity</text><line x1="60" y1="889.0" x2="60" y2="889.0" stroke="black"/><rect x="60" y="869.0" width="100" height="40" fill="#fff" stroke="black"/><text x="110.0" y="885.0" text-anchor="middle" font-family="DejaVu Sans, sans-serif" font-size="11" font-weight="bold">EQU</text><text x="110.0" y="902.0" text-anchor="middle" font-family="DejaVu Sans, sans-serif" font-size="10">Step = 20</text><line x1="160" y1="889.0" x2="170" y2="889.0" stroke="black"/><line x1="176" y1="819.0" x2="1098" y2="819.0" stroke="black"/><text x="1139.0" y="805.0" text-anchor="middle" font-family="DejaVu Sans, sans-serif" font-size="11">Ax.JogBack</text><path d="M 1123.0 808.0 A 14 14 0 0 0 1123.0 830.0" fill="none" stroke="black" stroke-width="2"/><path d="M 1155.0 808.0 A 14 14 0 0 1 1155.0 830.0" fill="none" stroke="black" stroke-width="2"/><line x1="1098" y1="819.0" x2="1123.0" y2="819.0" stroke="black"/><line x1="1155.0" y1="819.0" x2="1180" y2="819.0" stroke="black"/><line x1="1180" y1="819.0" x2="1180" y2="819.0" stroke="black"/><line x1="176" y1="885.0" x2="1030" y2="885.0" stroke="black"/><rect x="1030" y="862.0" width="150" height="46" fill="#eef" stroke="black"/><text x="1105.0" y="876.0" text-anchor="middle" font-family="DejaVu Sans, sans-serif" font-size="11" font-weight="bold">MOV</text><text x="1038" y="891.0" font-family="DejaVu Sans, sans-serif" font-size="10">Source SlowVel</text><text x="1038" y="905.0" font-family="DejaVu Sans, sans-serif" font-size="10">Dest Ax.JogVel</text><line x1="1180" y1="885.0" x2="1180" y2="885.0" stroke="black"/><line x1="176" y1="955.0" x2="841" y2="955.0" stroke="black"/><rect x="841" y="938.0" width="339" height="34" fill="#eef" stroke="black"/><text x="1010.5" y="951.0" text-anchor="middle" font-family="DejaVu Sans, sans-serif" font-size="11" font-weight="bold">CPT</text><text x="849" y="967.0" font-family="DejaVu Sans, sans-serif" font-size="10">BackMoved := ABS(Ax.ActualSteps - BackoffStart)</text><line x1="1180" y1="955.0" x2="1180" y2="955.0" stroke="black"/><line x1="176" y1="819.0" x2="176" y2="955.0" stroke="black"/><line x1="60" y1="986" x2="1180" y2="986" stroke="#ddd"/><text x="10" y="1069.0" font-family="DejaVu Sans, sans-serif" font-size="12" fill="#555">5</text><text x="60" y="1006" font-family="DejaVu Sans, sans-serif" font-size="11" font-style="italic" fill="#367">Backed off far enough -&gt; slow approach</text><line x1="60" y1="1065.0" x2="60" y2="1065.0" stroke="black"/><rect x="60" y="1045.0" width="100" height="40" fill="#fff" stroke="black"/><text x="110.0" y="1061.0" text-anchor="middle" font-family="DejaVu Sans, sans-serif" font-size="11" font-weight="bold">EQU</text><text x="110.0" y="1078.0" text-anchor="middle" font-family="DejaVu Sans, sans-serif" font-size="10">Step = 20</text><line x1="160" y1="1065.0" x2="170" y2="1065.0" stroke="black"/><rect x="170" y="1045.0" width="185" height="40" fill="#fff" stroke="black"/><text x="262.5" y="1061.0" text-anchor="middle" font-family="DejaVu Sans, sans-serif" font-size="11" font-weight="bold">GEQ</text><text x="262.5" y="1078.0" text-anchor="middle" font-family="DejaVu Sans, sans-serif" font-size="10">BackMoved &gt;= BackoffSteps</text><line x1="355" y1="1065.0" x2="365" y2="1065.0" stroke="black"/><line x1="371" y1="1027.0" x2="1098" y2="1027.0" stroke="black"/><text x="1139.0" y="1013.0" text-anchor="middle" font-family="DejaVu Sans, sans-serif" font-size="11">Ax.JogBack</text><path d="M 1123.0 1016.0 A 14 14 0 0 0 1123.0 1038.0" fill="none" stroke="black" stroke-width="2"/><path d="M 1155.0 1016.0 A 14 14 0 0 1 1155.0 1038.0" fill="none" stroke="black" stroke-width="2"/><text x="1139.0" y="1031.0" text-anchor="middle" font-family="DejaVu Sans, sans-serif" font-size="11">U</text><line x1="1098" y1="1027.0" x2="1123.0" y2="1027.0" stroke="black"/><line x1="1155.0" y1="1027.0" x2="1180" y2="1027.0" stroke="black"/><line x1="1180" y1="1027.0" x2="1180" y2="1027.0" stroke="black"/><line x1="371" y1="1093.0" x2="1030" y2="1093.0" stroke="black"/><rect x="1030" y="1070.0" width="150" height="46" fill="#eef" stroke="black"/><text x="1105.0" y="1084.0" text-anchor="middle" font-family="DejaVu Sans, sans-serif" font-size="11" font-weight="bold">MOV</text><text x="1038" y="1099.0" font-family="DejaVu Sans, sans-serif" font-size="10">Source 30</text><text x="1038" y="1113.0" font-family="DejaVu Sans, sans-serif" font-size="10">Dest Step</text><line x1="1180" y1="1093.0" x2="1180" y2="1093.0" stroke="black"/><line x1="371" y1="1027.0" x2="371" y2="1093.0" stroke="black"/><line x1="60" y1="1130" x2="1180" y2="1130" stroke="#ddd"/><text x="10" y="1253.0" font-family="DejaVu Sans, sans-serif" font-size="12" fill="#555">6</text><text x="60" y="1150" font-family="DejaVu Sans, sans-serif" font-size="11" font-style="italic" fill="#367">Slow approach toward switch, arm timeout</text><line x1="60" y1="1249.0" x2="60" y2="1249.0" stroke="black"/><rect x="60" y="1229.0" width="100" height="40" fill="#fff" stroke="black"/><text x="110.0" y="1245.0" text-anchor="middle" font-family="DejaVu Sans, sans-serif" font-size="11" font-weight="bold">EQU</text><text x="110.0" y="1262.0" text-anchor="middle" font-family="DejaVu Sans, sans-serif" font-size="10">Step = 30</text><line x1="160" y1="1249.0" x2="170" y2="1249.0" stroke="black"/><line x1="176" y1="1171.0" x2="1098" y2="1171.0" stroke="black"/><text x="1139.0" y="1157.0" text-anchor="middle" font-family="DejaVu Sans, sans-serif" font-size="11">Ax.JogHome</text><path d="M 1123.0 1160.0 A 14 14 0 0 0 1123.0 1182.0" fill="none" stroke="black" stroke-width="2"/><path d="M 1155.0 1160.0 A 14 14 0 0 1 1155.0 1182.0" fill="none" stroke="black" stroke-width="2"/><line x1="1098" y1="1171.0" x2="1123.0" y2="1171.0" stroke="black"/><line x1="1155.0" y1="1171.0" x2="1180" y2="1171.0" stroke="black"/><line x1="1180" y1="1171.0" x2="1180" y2="1171.0" stroke="black"/><line x1="176" y1="1237.0" x2="1030" y2="1237.0" stroke="black"/><rect x="1030" y="1214.0" width="150" height="46" fill="#eef" stroke="black"/><text x="1105.0" y="1228.0" text-anchor="middle" font-family="DejaVu Sans, sans-serif" font-size="11" font-weight="bold">MOV</text><text x="1038" y="1243.0" font-family="DejaVu Sans, sans-serif" font-size="10">Source SlowVel</text><text x="1038" y="1257.0" font-family="DejaVu Sans, sans-serif" font-size="10">Dest Ax.JogVel</text><line x1="1180" y1="1237.0" x2="1180" y2="1237.0" stroke="black"/><line x1="176" y1="1315.0" x2="1030" y2="1315.0" stroke="black"/><rect x="1030" y="1290.0" width="150" height="50" fill="#eef" stroke="black"/><text x="1105.0" y="1301.0" text-anchor="middle" font-family="DejaVu Sans, sans-serif" font-size="11" font-weight="bold">TON</text><text x="1038" y="1314.0" font-family="DejaVu Sans, sans-serif" font-size="10">Timer HomeTmr</text><text x="1038" y="1328.0" font-family="DejaVu Sans, sans-serif" font-size="10">Preset TimeoutPreset</text><line x1="1180" y1="1315.0" x2="1180" y2="1315.0" stroke="black"/><line x1="176" y1="1171.0" x2="176" y2="1315.0" stroke="black"/><line x1="60" y1="1354" x2="1180" y2="1354" stroke="#ddd"/><text x="10" y="1497.0" font-family="DejaVu Sans, sans-serif" font-size="12" fill="#555">7</text><text x="60" y="1374" font-family="DejaVu Sans, sans-serif" font-size="11" font-style="italic" fill="#367">Switch hit (slow): stop, set position reference</text><line x1="60" y1="1493.0" x2="60" y2="1493.0" stroke="black"/><rect x="60" y="1473.0" width="100" height="40" fill="#fff" stroke="black"/><text x="110.0" y="1489.0" text-anchor="middle" font-family="DejaVu Sans, sans-serif" font-size="11" font-weight="bold">EQU</text><text x="110.0" y="1506.0" text-anchor="middle" font-family="DejaVu Sans, sans-serif" font-size="10">Step = 30</text><line x1="160" y1="1493.0" x2="170" y2="1493.0" stroke="black"/><text x="211.0" y="1479.0" text-anchor="middle" font-family="DejaVu Sans, sans-serif" font-size="11">HomeSwitch</text><line x1="196.0" y1="1482.0" x2="196.0" y2="1504.0" stroke="black" stroke-width="2"/><line x1="226.0" y1="1482.0" x2="226.0" y2="1504.0" stroke="black" stroke-width="2"/><line x1="170" y1="1493.0" x2="196.0" y2="1493.0" stroke="black"/><line x1="226.0" y1="1493.0" x2="252" y2="1493.0" stroke="black"/><line x1="252" y1="1493.0" x2="262" y2="1493.0" stroke="black"/><line x1="268" y1="1395.0" x2="1098" y2="1395.0" stroke="black"/><text x="1139.0" y="1381.0" text-anchor="middle" font-family="DejaVu Sans, sans-serif" font-size="11">Ax.JogHome</text><path d="M 1123.0 1384.0 A 14 14 0 0 0 1123.0 1406.0" fill="none" stroke="black" stroke-width="2"/><path d="M 1155.0 1384.0 A 14 14 0 0 1 1155.0 1406.0" fill="none" stroke="black" stroke-width="2"/><text x="1139.0" y="1399.0" text-anchor="middle" font-family="DejaVu Sans, sans-serif" font-size="11">U</text><line x1="1098" y1="1395.0" x2="1123.0" y2="1395.0" stroke="black"/><line x1="1155.0" y1="1395.0" x2="1180" y2="1395.0" stroke="black"/><line x1="1180" y1="1395.0" x2="1180" y2="1395.0" stroke="black"/><line x1="268" y1="1455.0" x2="897" y2="1455.0" stroke="black"/><rect x="897" y="1438.0" width="283" height="34" fill="#eef" stroke="black"/><text x="1038.5" y="1451.0" text-anchor="middle" font-family="DejaVu Sans, sans-serif" font-size="11" font-weight="bold">CPT</text><text x="905" y="1467.0" font-family="DejaVu Sans, sans-serif" font-size="10">Ax.PosRef := HomeAngleDeg * StepsPerDeg</text><line x1="1180" y1="1455.0" x2="1180" y2="1455.0" stroke="black"/><line x1="268" y1="1515.0" x2="1091" y2="1515.0" stroke="black"/><text x="1135.5" y="1501.0" text-anchor="middle" font-family="DejaVu Sans, sans-serif" font-size="11">Ax.Redefine</text><path d="M 1119.5 1504.0 A 14 14 0 0 0 1119.5 1526.0" fill="none" stroke="black" stroke-width="2"/><path d="M 1151.5 1504.0 A 14 14 0 0 1 1151.5 1526.0" fill="none" stroke="black" stroke-width="2"/><line x1="1091" y1="1515.0" x2="1119.5" y2="1515.0" stroke="black"/><line x1="1151.5" y1="1515.0" x2="1180" y2="1515.0" stroke="black"/><line x1="1180" y1="1515.0" x2="1180" y2="1515.0" stroke="black"/><line x1="268" y1="1581.0" x2="1030" y2="1581.0" stroke="black"/><rect x="1030" y="1558.0" width="150" height="46" fill="#eef" stroke="black"/><text x="1105.0" y="1572.0" text-anchor="middle" font-family="DejaVu Sans, sans-serif" font-size="11" font-weight="bold">MOV</text><text x="1038" y="1587.0" font-family="DejaVu Sans, sans-serif" font-size="10">Source 40</text><text x="1038" y="1601.0" font-family="DejaVu Sans, sans-serif" font-size="10">Dest Step</text><line x1="1180" y1="1581.0" x2="1180" y2="1581.0" stroke="black"/><line x1="268" y1="1395.0" x2="268" y2="1581.0" stroke="black"/><line x1="60" y1="1618" x2="1180" y2="1618" stroke="#ddd"/><text x="10" y="1729.0" font-family="DejaVu Sans, sans-serif" font-size="12" fill="#555">8</text><text x="60" y="1638" font-family="DejaVu Sans, sans-serif" font-size="11" font-style="italic" fill="#367">Reference set -&gt; axis homed</text><line x1="60" y1="1725.0" x2="60" y2="1725.0" stroke="black"/><rect x="60" y="1705.0" width="100" height="40" fill="#fff" stroke="black"/><text x="110.0" y="1721.0" text-anchor="middle" font-family="DejaVu Sans, sans-serif" font-size="11" font-weight="bold">EQU</text><text x="110.0" y="1738.0" text-anchor="middle" font-family="DejaVu Sans, sans-serif" font-size="10">Step = 40</text><line x1="160" y1="1725.0" x2="170" y2="1725.0" stroke="black"/><line x1="176" y1="1659.0" x2="1091" y2="1659.0" stroke="black"/><text x="1135.5" y="1645.0" text-anchor="middle" font-family="DejaVu Sans, sans-serif" font-size="11">Ax.Redefine</text><path d="M 1119.5 1648.0 A 14 14 0 0 0 1119.5 1670.0" fill="none" stroke="black" stroke-width="2"/><path d="M 1151.5 1648.0 A 14 14 0 0 1 1151.5 1670.0" fill="none" stroke="black" stroke-width="2"/><text x="1135.5" y="1663.0" text-anchor="middle" font-family="DejaVu Sans, sans-serif" font-size="11">U</text><line x1="1091" y1="1659.0" x2="1119.5" y2="1659.0" stroke="black"/><line x1="1151.5" y1="1659.0" x2="1180" y2="1659.0" stroke="black"/><line x1="1180" y1="1659.0" x2="1180" y2="1659.0" stroke="black"/><line x1="176" y1="1715.0" x2="1108" y2="1715.0" stroke="black"/><text x="1144.0" y="1701.0" text-anchor="middle" font-family="DejaVu Sans, sans-serif" font-size="11">HomeDone</text><path d="M 1128.0 1704.0 A 14 14 0 0 0 1128.0 1726.0" fill="none" stroke="black" stroke-width="2"/><path d="M 1160.0 1704.0 A 14 14 0 0 1 1160.0 1726.0" fill="none" stroke="black" stroke-width="2"/><text x="1144.0" y="1719.0" text-anchor="middle" font-family="DejaVu Sans, sans-serif" font-size="11">L</text><line x1="1108" y1="1715.0" x2="1128.0" y2="1715.0" stroke="black"/><line x1="1160.0" y1="1715.0" x2="1180" y2="1715.0" stroke="black"/><line x1="1180" y1="1715.0" x2="1180" y2="1715.0" stroke="black"/><line x1="176" y1="1781.0" x2="1030" y2="1781.0" stroke="black"/><rect x="1030" y="1758.0" width="150" height="46" fill="#eef" stroke="black"/><text x="1105.0" y="1772.0" text-anchor="middle" font-family="DejaVu Sans, sans-serif" font-size="11" font-weight="bold">MOV</text><text x="1038" y="1787.0" font-family="DejaVu Sans, sans-serif" font-size="10">Source 50</text><text x="1038" y="1801.0" font-family="DejaVu Sans, sans-serif" font-size="10">Dest Step</text><line x1="1180" y1="1781.0" x2="1180" y2="1781.0" stroke="black"/><line x1="176" y1="1659.0" x2="176" y2="1781.0" stroke="black"/><line x1="60" y1="1818" x2="1180" y2="1818" stroke="#ddd"/><text x="10" y="1901.0" font-family="DejaVu Sans, sans-serif" font-size="12" fill="#555">9</text><text x="60" y="1838" font-family="DejaVu Sans, sans-serif" font-size="11" font-style="italic" fill="#367">Slow approach timed out -&gt; fault</text><line x1="60" y1="1897.0" x2="60" y2="1897.0" stroke="black"/><rect x="60" y="1877.0" width="100" height="40" fill="#fff" stroke="black"/><text x="110.0" y="1893.0" text-anchor="middle" font-family="DejaVu Sans, sans-serif" font-size="11" font-weight="bold">EQU</text><text x="110.0" y="1910.0" text-anchor="middle" font-family="DejaVu Sans, sans-serif" font-size="10">Step = 30</text><line x1="160" y1="1897.0" x2="170" y2="1897.0" stroke="black"/><text x="211.0" y="1883.0" text-anchor="middle" font-family="DejaVu Sans, sans-serif" font-size="11">HomeTmr.DN</text><line x1="196.0" y1="1886.0" x2="196.0" y2="1908.0" stroke="black" stroke-width="2"/><line x1="226.0" y1="1886.0" x2="226.0" y2="1908.0" stroke="black" stroke-width="2"/><line x1="170" y1="1897.0" x2="196.0" y2="1897.0" stroke="black"/><line x1="226.0" y1="1897.0" x2="252" y2="1897.0" stroke="black"/><line x1="252" y1="1897.0" x2="262" y2="1897.0" stroke="black"/><line x1="268" y1="1859.0" x2="1105" y2="1859.0" stroke="black"/><text x="1142.5" y="1845.0" text-anchor="middle" font-family="DejaVu Sans, sans-serif" font-size="11">HomeFault</text><path d="M 1126.5 1848.0 A 14 14 0 0 0 1126.5 1870.0" fill="none" stroke="black" stroke-width="2"/><path d="M 1158.5 1848.0 A 14 14 0 0 1 1158.5 1870.0" fill="none" stroke="black" stroke-width="2"/><text x="1142.5" y="1863.0" text-anchor="middle" font-family="DejaVu Sans, sans-serif" font-size="11">L</text><line x1="1105" y1="1859.0" x2="1126.5" y2="1859.0" stroke="black"/><line x1="1158.5" y1="1859.0" x2="1180" y2="1859.0" stroke="black"/><line x1="1180" y1="1859.0" x2="1180" y2="1859.0" stroke="black"/><line x1="268" y1="1925.0" x2="1030" y2="1925.0" stroke="black"/><rect x="1030" y="1902.0" width="150" height="46" fill="#eef" stroke="black"/><text x="1105.0" y="1916.0" text-anchor="middle" font-family="DejaVu Sans, sans-serif" font-size="11" font-weight="bold">MOV</text><text x="1038" y="1931.0" font-family="DejaVu Sans, sans-serif" font-size="10">Source 900</text><text x="1038" y="1945.0" font-family="DejaVu Sans, sans-serif" font-size="10">Dest Step</text><line x1="1180" y1="1925.0" x2="1180" y2="1925.0" stroke="black"/><line x1="268" y1="1859.0" x2="268" y2="1925.0" stroke="black"/><line x1="60" y1="1962" x2="1180" y2="1962" stroke="#ddd"/><text x="10" y="2045.0" font-family="DejaVu Sans, sans-serif" font-size="12" fill="#555">10</text><text x="60" y="1982" font-family="DejaVu Sans, sans-serif" font-size="11" font-style="italic" fill="#367">Drive alarm at any time -&gt; fault</text><line x1="60" y1="2041.0" x2="60" y2="2041.0" stroke="black"/><text x="96.0" y="2027.0" text-anchor="middle" font-family="DejaVu Sans, sans-serif" font-size="11">Ax.Alarm</text><line x1="81.0" y1="2030.0" x2="81.0" y2="2052.0" stroke="black" stroke-width="2"/><line x1="111.0" y1="2030.0" x2="111.0" y2="2052.0" stroke="black" stroke-width="2"/><line x1="60" y1="2041.0" x2="81.0" y2="2041.0" stroke="black"/><line x1="111.0" y1="2041.0" x2="132" y2="2041.0" stroke="black"/><line x1="132" y1="2041.0" x2="142" y2="2041.0" stroke="black"/><line x1="148" y1="2003.0" x2="1105" y2="2003.0" stroke="black"/><text x="1142.5" y="1989.0" text-anchor="middle" font-family="DejaVu Sans, sans-serif" font-size="11">HomeFault</text><path d="M 1126.5 1992.0 A 14 14 0 0 0 1126.5 2014.0" fill="none" stroke="black" stroke-width="2"/><path d="M 1158.5 1992.0 A 14 14 0 0 1 1158.5 2014.0" fill="none" stroke="black" stroke-width="2"/><text x="1142.5" y="2007.0" text-anchor="middle" font-family="DejaVu Sans, sans-serif" font-size="11">L</text><line x1="1105" y1="2003.0" x2="1126.5" y2="2003.0" stroke="black"/><line x1="1158.5" y1="2003.0" x2="1180" y2="2003.0" stroke="black"/><line x1="1180" y1="2003.0" x2="1180" y2="2003.0" stroke="black"/><line x1="148" y1="2069.0" x2="1030" y2="2069.0" stroke="black"/><rect x="1030" y="2046.0" width="150" height="46" fill="#eef" stroke="black"/><text x="1105.0" y="2060.0" text-anchor="middle" font-family="DejaVu Sans, sans-serif" font-size="11" font-weight="bold">MOV</text><text x="1038" y="2075.0" font-family="DejaVu Sans, sans-serif" font-size="10">Source 900</text><text x="1038" y="2089.0" font-family="DejaVu Sans, sans-serif" font-size="10">Dest Step</text><line x1="1180" y1="2069.0" x2="1180" y2="2069.0" stroke="black"/><line x1="148" y1="2003.0" x2="148" y2="2069.0" stroke="black"/><line x1="60" y1="2106" x2="1180" y2="2106" stroke="#ddd"/></svg>