<svg xmlns="http://www.w3.org/2000/svg" width="1240" height="1496" viewBox="0 0 1240 1496"><rect width="1240" height="1496" fill="white"/><text x="620.0" y="26" text-anchor="middle" font-family="DejaVu Sans, sans-serif" font-size="18" font-weight="bold">R40_Manual — manual jog/home command logic</text><line x1="60" y1="40" x2="60" y2="1478" stroke="black" stroke-width="2.5"/><line x1="1180" y1="40" x2="1180" y2="1478" stroke="black" stroke-width="2.5"/><text x="10" y="97.0" font-family="DejaVu Sans, sans-serif" font-size="12" fill="#555">0</text><text x="60" y="66" font-family="DejaVu Sans, sans-serif" font-size="11" font-style="italic" fill="#367">Request drive enable from the manual Enable bit</text><line x1="60" y1="93.0" x2="60" y2="93.0" stroke="black"/><text x="111.5" y="79.0" text-anchor="middle" font-family="DejaVu Sans, sans-serif" font-size="11">Manual.Enable</text><line x1="96.5" y1="82.0" x2="96.5" y2="104.0" stroke="black" stroke-width="2"/><line x1="126.5" y1="82.0" x2="126.5" y2="104.0" stroke="black" stroke-width="2"/><line x1="60" y1="93.0" x2="96.5" y2="93.0" stroke="black"/><line x1="126.5" y1="93.0" x2="163" y2="93.0" stroke="black"/><line x1="163" y1="93.0" x2="173" y2="93.0" stroke="black"/><line x1="179" y1="93.0" x2="1105" y2="93.0" stroke="black"/><text x="1142.5" y="79.0" text-anchor="middle" font-family="DejaVu Sans, sans-serif" font-size="11">EnableReq</text><path d="M 1126.5 82.0 A 14 14 0 0 0 1126.5 104.0" fill="none" stroke="black" stroke-width="2"/><path d="M 1158.5 82.0 A 14 14 0 0 1 1158.5 104.0" fill="none" stroke="black" stroke-width="2"/><line x1="1105" y1="93.0" x2="1126.5" y2="93.0" stroke="black"/><line x1="1158.5" y1="93.0" x2="1180" y2="93.0" stroke="black"/><line x1="1180" y1="93.0" x2="1180" y2="93.0" stroke="black"/><line x1="60" y1="120" x2="1180" y2="120" stroke="#ddd"/><text x="10" y="178.0" font-family="DejaVu Sans, sans-serif" font-size="12" fill="#555">1</text><text x="60" y="140" font-family="DejaVu Sans, sans-serif" font-size="11" font-style="italic" fill="#367">Both target angles within the soft limits?</text><line x1="60" y1="174.0" x2="60" y2="174.0" stroke="black"/><rect x="60" y="154.0" width="248" height="40" fill="#fff" stroke="black"/><text x="184.0" y="170.0" text-anchor="middle" font-family="DejaVu Sans, sans-serif" font-size="11" font-weight="bold">LIM</text><text x="184.0" y="187.0" text-anchor="middle" font-family="DejaVu Sans, sans-serif" font-size="10">-20 &lt;= Manual.TargetLeftDeg &lt;= 200</text><line x1="308" y1="174.0" x2="318" y2="174.0" stroke="black"/><rect x="318" y="154.0" width="255" height="40" fill="#fff" stroke="black"/><text x="445.5" y="170.0" text-anchor="middle" font-family="DejaVu Sans, sans-serif" font-size="11" font-weight="bold">LIM</text><text x="445.5" y="187.0" text-anchor="middle" font-family="DejaVu Sans, sans-serif" font-size="10">-20 &lt;= Manual.TargetRightDeg &lt;= 200</text><line x1="573" y1="174.0" x2="583" y2="174.0" stroke="black"/><line x1="589" y1="174.0" x2="1084" y2="174.0" stroke="black"/><text x="1132.0" y="160.0" text-anchor="middle" font-family="DejaVu Sans, sans-serif" font-size="11">WithinLimits</text><path d="M 1116.0 163.0 A 14 14 0 0 0 1116.0 185.0" fill="none" stroke="black" stroke-width="2"/><path d="M 1148.0 163.0 A 14 14 0 0 1 1148.0 185.0" fill="none" stroke="black" stroke-width="2"/><line x1="1084" y1="174.0" x2="1116.0" y2="174.0" stroke="black"/><line x1="1148.0" y1="174.0" x2="1180" y2="174.0" stroke="black"/><line x1="1180" y1="174.0" x2="1180" y2="174.0" stroke="black"/><line x1="60" y1="208" x2="1180" y2="208" stroke="#ddd"/><text x="10" y="297.0" font-family="DejaVu Sans, sans-serif" font-size="12" fill="#555">2</text><text x="60" y="228" font-family="DejaVu Sans, sans-serif" font-size="11" font-style="italic" fill="#367">Accept a manual move (enabled, homed, in-limits) on the rising edge</text><line x1="60" y1="293.0" x2="60" y2="293.0" stroke="black"/><text x="132.5" y="279.0" text-anchor="middle" font-family="DejaVu Sans, sans-serif" font-size="11">Manual.MoveToTarget</text><line x1="117.5" y1="282.0" x2="117.5" y2="304.0" stroke="black" stroke-width="2"/><line x1="147.5" y1="282.0" x2="147.5" y2="304.0" stroke="black" stroke-width="2"/><line x1="60" y1="293.0" x2="117.5" y2="293.0" stroke="black"/><line x1="147.5" y1="293.0" x2="205" y2="293.0" stroke="black"/><line x1="205" y1="293.0" x2="215" y2="293.0" stroke="black"/><rect x="225.0" y="282.0" width="40" height="22" fill="none" stroke="black"/><text x="245.0" y="297.0" text-anchor="middle" font-family="DejaVu Sans, sans-serif" font-size="10">ONS</text><text x="245.0" y="279.0" text-anchor="middle" font-family="DejaVu Sans, sans-serif" font-size="9">MT_ons</text><line x1="215" y1="293.0" x2="225.0" y2="293.0" stroke="black"/><line x1="265.0" y1="293.0" x2="275" y2="293.0" stroke="black"/><line x1="275" y1="293.0" x2="285" y2="293.0" stroke="black"/><text x="340.0" y="279.0" text-anchor="middle" font-family="DejaVu Sans, sans-serif" font-size="11">Status.Enabled</text><line x1="325.0" y1="282.0" x2="325.0" y2="304.0" stroke="black" stroke-width="2"/><line x1="355.0" y1="282.0" x2="355.0" y2="304.0" stroke="black" stroke-width="2"/><line x1="285" y1="293.0" x2="325.0" y2="293.0" stroke="black"/><line x1="355.0" y1="293.0" x2="395" y2="293.0" stroke="black"/><line x1="395" y1="293.0" x2="405" y2="293.0" stroke="black"/><text x="453.0" y="279.0" text-anchor="middle" font-family="DejaVu Sans, sans-serif" font-size="11">Status.Homed</text><line x1="438.0" y1="282.0" x2="438.0" y2="304.0" stroke="black" stroke-width="2"/><line x1="468.0" y1="282.0" x2="468.0" y2="304.0" stroke="black" stroke-width="2"/><line x1="405" y1="293.0" x2="438.0" y2="293.0" stroke="black"/><line x1="468.0" y1="293.0" x2="501" y2="293.0" stroke="black"/><line x1="501" y1="293.0" x2="511" y2="293.0" stroke="black"/><text x="559.0" y="279.0" text-anchor="middle" font-family="DejaVu Sans, sans-serif" font-size="11">WithinLimits</text><line x1="544.0" y1="282.0" x2="544.0" y2="304.0" stroke="black" stroke-width="2"/><line x1="574.0" y1="282.0" x2="574.0" y2="304.0" stroke="black" stroke-width="2"/><line x1="511" y1="293.0" x2="544.0" y2="293.0" stroke="black"/><line x1="574.0" y1="293.0" x2="607" y2="293.0" stroke="black"/><line x1="607" y1="293.0" x2="617" y2="293.0" stroke="black"/><line x1="623" y1="265.0" x2="1030" y2="265.0" stroke="black"/><rect x="1030" y="242.0" width="150" height="46" fill="#eef" stroke="black"/><text x="1105.0" y="256.0" text-anchor="middle" font-family="DejaVu Sans, sans-serif" font-size="11" font-weight="bold">MOV</text><text x="1038" y="271.0" font-family="DejaVu Sans, sans-serif" font-size="10">Source Manual.CommandID</text><text x="1038" y="285.0" font-family="DejaVu Sans, sans-serif" font-size="10">Dest Status.ActiveCommandID</text><line x1="1180" y1="265.0" x2="1180" y2="265.0" stroke="black"/><line x1="623" y1="331.0" x2="1098" y2="331.0" stroke="black"/><text x="1139.0" y="317.0" text-anchor="middle" font-family="DejaVu Sans, sans-serif" font-size="11">MoveActive</text><path d="M 1123.0 320.0 A 14 14 0 0 0 1123.0 342.0" fill="none" stroke="black" stroke-width="2"/><path d="M 1155.0 320.0 A 14 14 0 0 1 1155.0 342.0" fill="none" stroke="black" stroke-width="2"/><text x="1139.0" y="335.0" text-anchor="middle" font-family="DejaVu Sans, sans-serif" font-size="11">L</text><line x1="1098" y1="331.0" x2="1123.0" y2="331.0" stroke="black"/><line x1="1155.0" y1="331.0" x2="1180" y2="331.0" stroke="black"/><line x1="1180" y1="331.0" x2="1180" y2="331.0" stroke="black"/><line x1="623" y1="265.0" x2="623" y2="331.0" stroke="black"/><line x1="60" y1="358" x2="1180" y2="358" stroke="#ddd"/><text x="10" y="447.0" font-family="DejaVu Sans, sans-serif" font-size="12" fill="#555">3</text><text x="60" y="378" font-family="DejaVu Sans, sans-serif" font-size="11" font-style="italic" fill="#367">Move requested while not enabled -&gt; fault (5)</text><line x1="60" y1="443.0" x2="60" y2="443.0" stroke="black"/><text x="132.5" y="429.0" text-anchor="middle" font-family="DejaVu Sans, sans-serif" font-size="11">Manual.MoveToTarget</text><line x1="117.5" y1="432.0" x2="117.5" y2="454.0" stroke="black" stroke-width="2"/><line x1="147.5" y1="432.0" x2="147.5" y2="454.0" stroke="black" stroke-width="2"/><line x1="60" y1="443.0" x2="117.5" y2="443.0" stroke="black"/><line x1="147.5" y1="443.0" x2="205" y2="443.0" stroke="black"/><line x1="205" y1="443.0" x2="215" y2="443.0" stroke="black"/><rect x="225.0" y="432.0" width="40" height="22" fill="none" stroke="black"/><text x="245.0" y="447.0" text-anchor="middle" font-family="DejaVu Sans, sans-serif" font-size="10">ONS</text><text x="245.0" y="429.0" text-anchor="middle" font-family="DejaVu Sans, sans-serif" font-size="9">MTa</text><line x1="215" y1="443.0" x2="225.0" y2="443.0" stroke="black"/><line x1="265.0" y1="443.0" x2="275" y2="443.0" stroke="black"/><line x1="275" y1="443.0" x2="285" y2="443.0" stroke="black"/><text x="340.0" y="429.0" text-anchor="middle" font-family="DejaVu Sans, sans-serif" font-size="11">Status.Enabled</text><line x1="325.0" y1="432.0" x2="325.0" y2="454.0" stroke="black" stroke-width="2"/><line x1="355.0" y1="432.0" x2="355.0" y2="454.0" stroke="black" stroke-width="2"/><line x1="325.0" y1="454.0" x2="355.0" y2="432.0" stroke="black" stroke-width="1.5"/><line x1="285" y1="443.0" x2="325.0" y2="443.0" stroke="black"/><line x1="355.0" y1="443.0" x2="395" y2="443.0" stroke="black"/><line x1="395" y1="443.0" x2="405" y2="443.0" stroke="black"/><line x1="411" y1="405.0" x2="1070" y2="405.0" stroke="black"/><text x="1125.0" y="391.0" text-anchor="middle" font-family="DejaVu Sans, sans-serif" font-size="11">Status.Faulted</text><path d="M 1109.0 394.0 A 14 14 0 0 0 1109.0 416.0" fill="none" stroke="black" stroke-width="2"/><path d="M 1141.0 394.0 A 14 14 0 0 1 1141.0 416.0" fill="none" stroke="black" stroke-width="2"/><text x="1125.0" y="409.0" text-anchor="middle" font-family="DejaVu Sans, sans-serif" font-size="11">L</text><line x1="1070" y1="405.0" x2="1109.0" y2="405.0" stroke="black"/><line x1="1141.0" y1="405.0" x2="1180" y2="405.0" stroke="black"/><line x1="1180" y1="405.0" x2="1180" y2="405.0" stroke="black"/><line x1="411" y1="471.0" x2="1030" y2="471.0" stroke="black"/><rect x="1030" y="448.0" width="150" height="46" fill="#eef" stroke="black"/><text x="1105.0" y="462.0" text-anchor="middle" font-family="DejaVu Sans, sans-serif" font-size="11" font-weight="bold">MOV</text><text x="1038" y="477.0" font-family="DejaVu Sans, sans-serif" font-size="10">Source 5</text><text x="1038" y="491.0" font-family="DejaVu Sans, sans-serif" font-size="10">Dest Status.FaultCode</text><line x1="1180" y1="471.0" x2="1180" y2="471.0" stroke="black"/><line x1="411" y1="405.0" x2="411" y2="471.0" stroke="black"/><line x1="60" y1="508" x2="1180" y2="508" stroke="#ddd"/><text x="10" y="597.0" font-family="DejaVu Sans, sans-serif" font-size="12" fill="#555">4</text><text x="60" y="528" font-family="DejaVu Sans, sans-serif" font-size="11" font-style="italic" fill="#367">Move requested while not homed -&gt; fault (6)</text><line x1="60" y1="593.0" x2="60" y2="593.0" stroke="black"/><text x="132.5" y="579.0" text-anchor="middle" font-family="DejaVu Sans, sans-serif" font-size="11">Manual.MoveToTarget</text><line x1="117.5" y1="582.0" x2="117.5" y2="604.0" stroke="black" stroke-width="2"/><line x1="147.5" y1="582.0" x2="147.5" y2="604.0" stroke="black" stroke-width="2"/><line x1="60" y1="593.0" x2="117.5" y2="593.0" stroke="black"/><line x1="147.5" y1="593.0" x2="205" y2="593.0" stroke="black"/><line x1="205" y1="593.0" x2="215" y2="593.0" stroke="black"/><rect x="225.0" y="582.0" width="40" height="22" fill="none" stroke="black"/><text x="245.0" y="597.0" text-anchor="middle" font-family="DejaVu Sans, sans-serif" font-size="10">ONS</text><text x="245.0" y="579.0" text-anchor="middle" font-family="DejaVu Sans, sans-serif" font-size="9">MTb</text><line x1="215" y1="593.0" x2="225.0" y2="593.0" stroke="black"/><line x1="265.0" y1="593.0" x2="275" y2="593.0" stroke="black"/><line x1="275" y1="593.0" x2="285" y2="593.0" stroke="black"/><text x="333.0" y="579.0" text-anchor="middle" font-family="DejaVu Sans, sans-serif" font-size="11">Status.Homed</text><line x1="318.0" y1="582.0" x2="318.0" y2="604.0" stroke="black" stroke-width="2"/><line x1="348.0" y1="582.0" x2="348.0" y2="604.0" stroke="black" stroke-width="2"/><line x1="318.0" y1="604.0" x2="348.0" y2="582.0" stroke="black" stroke-width="1.5"/><line x1="285" y1="593.0" x2="318.0" y2="593.0" stroke="black"/><line x1="348.0" y1="593.0" x2="381" y2="593.0" stroke="black"/><line x1="381" y1="593.0" x2="391" y2="593.0" stroke="black"/><line x1="397" y1="555.0" x2="1070" y2="555.0" stroke="black"/><text x="1125.0" y="541.0" text-anchor="middle" font-family="DejaVu Sans, sans-serif" font-size="11">Status.Faulted</text><path d="M 1109.0 544.0 A 14 14 0 0 0 1109.0 566.0" fill="none" stroke="black" stroke-width="2"/><path d="M 1141.0 544.0 A 14 14 0 0 1 1141.0 566.0" fill="none" stroke="black" stroke-width="2"/><text x="1125.0" y="559.0" text-anchor="middle" font-family="DejaVu Sans, sans-serif" font-size="11">L</text><line x1="1070" y1="555.0" x2="1109.0" y2="555.0" stroke="black"/><line x1="1141.0" y1="555.0" x2="1180" y2="555.0" stroke="black"/><line x1="1180" y1="555.0" x2="1180" y2="555.0" stroke="black"/><line x1="397" y1="621.0" x2="1030" y2="621.0" stroke="black"/><rect x="1030" y="598.0" width="150" height="46" fill="#eef" stroke="black"/><text x="1105.0" y="612.0" text-anchor="middle" font-family="DejaVu Sans, sans-serif" font-size="11" font-weight="bold">MOV</text><text x="1038" y="627.0" font-family="DejaVu Sans, sans-serif" font-size="10">Source 6</text><text x="1038" y="641.0" font-family="DejaVu Sans, sans-serif" font-size="10">Dest Status.FaultCode</text><line x1="1180" y1="621.0" x2="1180" y2="621.0" stroke="black"/><line x1="397" y1="555.0" x2="397" y2="621.0" stroke="black"/><line x1="60" y1="658" x2="1180" y2="658" stroke="#ddd"/><text x="10" y="747.0" font-family="DejaVu Sans, sans-serif" font-size="12" fill="#555">5</text><text x="60" y="678" font-family="DejaVu Sans, sans-serif" font-size="11" font-style="italic" fill="#367">Move outside soft limits -&gt; fault (7)</text><line x1="60" y1="743.0" x2="60" y2="743.0" stroke="black"/><text x="132.5" y="729.0" text-anchor="middle" font-family="DejaVu Sans, sans-serif" font-size="11">Manual.MoveToTarget</text><line x1="117.5" y1="732.0" x2="117.5" y2="754.0" stroke="black" stroke-width="2"/><line x1="147.5" y1="732.0" x2="147.5" y2="754.0" stroke="black" stroke-width="2"/><line x1="60" y1="743.0" x2="117.5" y2="743.0" stroke="black"/><line x1="147.5" y1="743.0" x2="205" y2="743.0" stroke="black"/><line x1="205" y1="743.0" x2="215" y2="743.0" stroke="black"/><rect x="225.0" y="732.0" width="40" height="22" fill="none" stroke="black"/><text x="245.0" y="747.0" text-anchor="middle" font-family="DejaVu Sans, sans-serif" font-size="10">ONS</text><text x="245.0" y="729.0" text-anchor="middle" font-family="DejaVu Sans, sans-serif" font-size="9">MTc</text><line x1="215" y1="743.0" x2="225.0" y2="743.0" stroke="black"/><line x1="265.0" y1="743.0" x2="275" y2="743.0" stroke="black"/><line x1="275" y1="743.0" x2="285" y2="743.0" stroke="black"/><text x="333.0" y="729.0" text-anchor="middle" font-family="DejaVu Sans, sans-serif" font-size="11">WithinLimits</text><line x1="318.0" y1="732.0" x2="318.0" y2="754.0" stroke="black" stroke-width="2"/><line x1="348.0" y1="732.0" x2="348.0" y2="754.0" stroke="black" stroke-width="2"/><line x1="318.0" y1="754.0" x2="348.0" y2="732.0" stroke="black" stroke-width="1.5"/><line x1="285" y1="743.0" x2="318.0" y2="743.0" stroke="black"/><line x1="348.0" y1="743.0" x2="381" y2="743.0" stroke="black"/><line x1="381" y1="743.0" x2="391" y2="743.0" stroke="black"/><line x1="397" y1="705.0" x2="1070" y2="705.0" stroke="black"/><text x="1125.0" y="691.0" text-anchor="middle" font-family="DejaVu Sans, sans-serif" font-size="11">Status.Faulted</text><path d="M 1109.0 694.0 A 14 14 0 0 0 1109.0 716.0" fill="none" stroke="black" stroke-width="2"/><path d="M 1141.0 694.0 A 14 14 0 0 1 1141.0 716.0" fill="none" stroke="black" stroke-width="2"/><text x="1125.0" y="709.0" text-anchor="middle" font-family="DejaVu Sans, sans-serif" font-size="11">L</text><line x1="1070" y1="705.0" x2="1109.0" y2="705.0" stroke="black"/><line x1="1141.0" y1="705.0" x2="1180" y2="705.0" stroke="black"/><line x1="1180" y1="705.0" x2="1180" y2="705.0" stroke="black"/><line x1="397" y1="771.0" x2="1030" y2="771.0" stroke="black"/><rect x="1030" y="748.0" width="150" height="46" fill="#eef" stroke="black"/><text x="1105.0" y="762.0" text-anchor="middle" font-family="DejaVu Sans, sans-serif" font-size="11" font-weight="bold">MOV</text><text x="1038" y="777.0" font-family="DejaVu Sans, sans-serif" font-size="10">Source 7</text><text x="1038" y="791.0" font-family="DejaVu Sans, sans-serif" font-size="10">Dest Status.FaultCode</text><line x1="1180" y1="771.0" x2="1180" y2="771.0" stroke="black"/><line x1="397" y1="705.0" x2="397" y2="771.0" stroke="black"/><line x1="60" y1="808" x2="1180" y2="808" stroke="#ddd"/><text x="10" y="919.0" font-family="DejaVu Sans, sans-serif" font-size="12" fill="#555">6</text><text x="60" y="828" font-family="DejaVu Sans, sans-serif" font-size="11" font-style="italic" fill="#367">Execute the accepted move on both shoulders</text><line x1="60" y1="915.0" x2="60" y2="915.0" stroke="black"/><text x="101.0" y="901.0" text-anchor="middle" font-family="DejaVu Sans, sans-serif" font-size="11">MoveActive</text><line x1="86.0" y1="904.0" x2="86.0" y2="926.0" stroke="black" stroke-width="2"/><line x1="116.0" y1="904.0" x2="116.0" y2="926.0" stroke="black" stroke-width="2"/><line x1="60" y1="915.0" x2="86.0" y2="915.0" stroke="black"/><line x1="116.0" y1="915.0" x2="142" y2="915.0" stroke="black"/><line x1="142" y1="915.0" x2="152" y2="915.0" stroke="black"/><line x1="158" y1="871.0" x2="867" y2="871.0" stroke="black"/><rect x="867" y="842.0" width="313" height="58" fill="#efe" stroke="black"/><text x="1023.5" y="857.0" text-anchor="middle" font-family="DejaVu Sans, sans-serif" font-size="11" font-weight="bold">AOI_AxisMove</text><text x="875" y="873.0" font-family="DejaVu Sans, sans-serif" font-size="10">MoveL: TargetDeg:=Manual.TargetLeftDeg</text><text x="875" y="889.0" font-family="DejaVu Sans, sans-serif" font-size="10">Execute:=MoveActive  Ax:=Ax0  -&gt; InPosition</text><line x1="1180" y1="871.0" x2="1180" y2="871.0" stroke="black"/><line x1="158" y1="959.0" x2="867" y2="959.0" stroke="black"/><rect x="867" y="930.0" width="313" height="58" fill="#efe" stroke="black"/><text x="1023.5" y="945.0" text-anchor="middle" font-family="DejaVu Sans, sans-serif" font-size="11" font-weight="bold">AOI_AxisMove</text><text x="875" y="961.0" font-family="DejaVu Sans, sans-serif" font-size="10">MoveR: TargetDeg:=Manual.TargetRightDeg</text><text x="875" y="977.0" font-family="DejaVu Sans, sans-serif" font-size="10">Execute:=MoveActive  Ax:=Ax1  -&gt; InPosition</text><line x1="1180" y1="959.0" x2="1180" y2="959.0" stroke="black"/><line x1="158" y1="871.0" x2="158" y2="959.0" stroke="black"/><line x1="60" y1="1002" x2="1180" y2="1002" stroke="#ddd"/><text x="10" y="1119.0" font-family="DejaVu Sans, sans-serif" font-size="12" fill="#555">7</text><text x="60" y="1022" font-family="DejaVu Sans, sans-serif" font-size="11" font-style="italic" fill="#367">Both axes in position -&gt; acknowledge, clear the move</text><line x1="60" y1="1115.0" x2="60" y2="1115.0" stroke="black"/><text x="101.0" y="1101.0" text-anchor="middle" font-family="DejaVu Sans, sans-serif" font-size="11">MoveActive</text><line x1="86.0" y1="1104.0" x2="86.0" y2="1126.0" stroke="black" stroke-width="2"/><line x1="116.0" y1="1104.0" x2="116.0" y2="1126.0" stroke="black" stroke-width="2"/><line x1="60" y1="1115.0" x2="86.0" y2="1115.0" stroke="black"/><line x1="116.0" y1="1115.0" x2="142" y2="1115.0" stroke="black"/><line x1="142" y1="1115.0" x2="152" y2="1115.0" stroke="black"/><text x="214.0" y="1101.0" text-anchor="middle" font-family="DejaVu Sans, sans-serif" font-size="11">MoveL.InPosition</text><line x1="199.0" y1="1104.0" x2="199.0" y2="1126.0" stroke="black" stroke-width="2"/><line x1="229.0" y1="1104.0" x2="229.0" y2="1126.0" stroke="black" stroke-width="2"/><line x1="152" y1="1115.0" x2="199.0" y2="1115.0" stroke="black"/><line x1="229.0" y1="1115.0" x2="276" y2="1115.0" stroke="black"/><line x1="276" y1="1115.0" x2="286" y2="1115.0" stroke="black"/><text x="348.0" y="1101.0" text-anchor="middle" font-family="DejaVu Sans, sans-serif" font-size="11">MoveR.InPosition</text><line x1="333.0" y1="1104.0" x2="333.0" y2="1126.0" stroke="black" stroke-width="2"/><line x1="363.0" y1="1104.0" x2="363.0" y2="1126.0" stroke="black" stroke-width="2"/><line x1="286" y1="1115.0" x2="333.0" y2="1115.0" stroke="black"/><line x1="363.0" y1="1115.0" x2="410" y2="1115.0" stroke="black"/><line x1="410" y1="1115.0" x2="420" y2="1115.0" stroke="black"/><line x1="426" y1="1059.0" x2="1030" y2="1059.0" stroke="black"/><rect x="1030" y="1036.0" width="150" height="46" fill="#eef" stroke="black"/><text x="1105.0" y="1050.0" text-anchor="middle" font-family="DejaVu Sans, sans-serif" font-size="11" font-weight="bold">MOV</text><text x="1038" y="1065.0" font-family="DejaVu Sans, sans-serif" font-size="10">Source Status.ActiveCommandID</text><text x="1038" y="1079.0" font-family="DejaVu Sans, sans-serif" font-size="10">Dest Status.CompleteCommandID</text><line x1="1180" y1="1059.0" x2="1180" y2="1059.0" stroke="black"/><line x1="426" y1="1125.0" x2="1049" y2="1125.0" stroke="black"/><text x="1114.5" y="1111.0" text-anchor="middle" font-family="DejaVu Sans, sans-serif" font-size="11">Status.InPosition</text><path d="M 1098.5 1114.0 A 14 14 0 0 0 1098.5 1136.0" fill="none" stroke="black" stroke-width="2"/><path d="M 1130.5 1114.0 A 14 14 0 0 1 1130.5 1136.0" fill="none" stroke="black" stroke-width="2"/><line x1="1049" y1="1125.0" x2="1098.5" y2="1125.0" stroke="black"/><line x1="1130.5" y1="1125.0" x2="1180" y2="1125.0" stroke="black"/><line x1="1180" y1="1125.0" x2="1180" y2="1125.0" stroke="black"/><line x1="426" y1="1181.0" x2="1098" y2="1181.0" stroke="black"/><text x="1139.0" y="1167.0" text-anchor="middle" font-family="DejaVu Sans, sans-serif" font-size="11">MoveActive</text><path d="M 1123.0 1170.0 A 14 14 0 0 0 1123.0 1192.0" fill="none" stroke="black" stroke-width="2"/><path d="M 1155.0 1170.0 A 14 14 0 0 1 1155.0 1192.0" fill="none" stroke="black" stroke-width="2"/><text x="1139.0" y="1185.0" text-anchor="middle" font-family="DejaVu Sans, sans-serif" font-size="11">U</text><line x1="1098" y1="1181.0" x2="1123.0" y2="1181.0" stroke="black"/><line x1="1155.0" y1="1181.0" x2="1180" y2="1181.0" stroke="black"/><line x1="1180" y1="1181.0" x2="1180" y2="1181.0" stroke="black"/><line x1="426" y1="1059.0" x2="426" y2="1181.0" stroke="black"/><line x1="60" y1="1208" x2="1180" y2="1208" stroke="#ddd"/><text x="10" y="1259.0" font-family="DejaVu Sans, sans-serif" font-size="12" fill="#555">8</text><text x="60" y="1228" font-family="DejaVu Sans, sans-serif" font-size="11" font-style="italic" fill="#367">Moving status while a move is active</text><line x1="60" y1="1255.0" x2="60" y2="1255.0" stroke="black"/><text x="101.0" y="1241.0" text-anchor="middle" font-family="DejaVu Sans, sans-serif" font-size="11">MoveActive</text><line x1="86.0" y1="1244.0" x2="86.0" y2="1266.0" stroke="black" stroke-width="2"/><line x1="116.0" y1="1244.0" x2="116.0" y2="1266.0" stroke="black" stroke-width="2"/><line x1="60" y1="1255.0" x2="86.0" y2="1255.0" stroke="black"/><line x1="116.0" y1="1255.0" x2="142" y2="1255.0" stroke="black"/><line x1="142" y1="1255.0" x2="152" y2="1255.0" stroke="black"/><text x="217.5" y="1241.0" text-anchor="middle" font-family="DejaVu Sans, sans-serif" font-size="11">Status.InPosition</text><line x1="202.5" y1="1244.0" x2="202.5" y2="1266.0" stroke="black" stroke-width="2"/><line x1="232.5" y1="1244.0" x2="232.5" y2="1266.0" stroke="black" stroke-width="2"/><line x1="202.5" y1="1266.0" x2="232.5" y2="1244.0" stroke="black" stroke-width="1.5"/><line x1="152" y1="1255.0" x2="202.5" y2="1255.0" stroke="black"/><line x1="232.5" y1="1255.0" x2="283" y2="1255.0" stroke="black"/><line x1="283" y1="1255.0" x2="293" y2="1255.0" stroke="black"/><line x1="299" y1="1255.0" x2="1077" y2="1255.0" stroke="black"/><text x="1128.5" y="1241.0" text-anchor="middle" font-family="DejaVu Sans, sans-serif" font-size="11">Status.Moving</text><path d="M 1112.5 1244.0 A 14 14 0 0 0 1112.5 1266.0" fill="none" stroke="black" stroke-width="2"/><path d="M 1144.5 1244.0 A 14 14 0 0 1 1144.5 1266.0" fill="none" stroke="black" stroke-width="2"/><line x1="1077" y1="1255.0" x2="1112.5" y2="1255.0" stroke="black"/><line x1="1144.5" y1="1255.0" x2="1180" y2="1255.0" stroke="black"/><line x1="1180" y1="1255.0" x2="1180" y2="1255.0" stroke="black"/><line x1="60" y1="1282" x2="1180" y2="1282" stroke="#ddd"/><text x="10" y="1389.0" font-family="DejaVu Sans, sans-serif" font-size="12" fill="#555">9</text><text x="60" y="1302" font-family="DejaVu Sans, sans-serif" font-size="11" font-style="italic" fill="#367">Abort stops motion and clears the move</text><line x1="60" y1="1385.0" x2="60" y2="1385.0" stroke="black"/><text x="108.0" y="1371.0" text-anchor="middle" font-family="DejaVu Sans, sans-serif" font-size="11">Manual.Abort</text><line x1="93.0" y1="1374.0" x2="93.0" y2="1396.0" stroke="black" stroke-width="2"/><line x1="123.0" y1="1374.0" x2="123.0" y2="1396.0" stroke="black" stroke-width="2"/><line x1="60" y1="1385.0" x2="93.0" y2="1385.0" stroke="black"/><line x1="123.0" y1="1385.0" x2="156" y2="1385.0" stroke="black"/><line x1="156" y1="1385.0" x2="166" y2="1385.0" stroke="black"/><line x1="172" y1="1329.0" x2="1098" y2="1329.0" stroke="black"/><text x="1139.0" y="1315.0" text-anchor="middle" font-family="DejaVu Sans, sans-serif" font-size="11">MoveActive</text><path d="M 1123.0 1318.0 A 14 14 0 0 0 1123.0 1340.0" fill="none" stroke="black" stroke-width="2"/><path d="M 1155.0 1318.0 A 14 14 0 0 1 1155.0 1340.0" fill="none" stroke="black" stroke-width="2"/><text x="1139.0" y="1333.0" text-anchor="middle" font-family="DejaVu Sans, sans-serif" font-size="11">U</text><line x1="1098" y1="1329.0" x2="1123.0" y2="1329.0" stroke="black"/><line x1="1155.0" y1="1329.0" x2="1180" y2="1329.0" stroke="black"/><line x1="1180" y1="1329.0" x2="1180" y2="1329.0" stroke="black"/><line x1="172" y1="1385.0" x2="1108" y2="1385.0" stroke="black"/><text x="1144.0" y="1371.0" text-anchor="middle" font-family="DejaVu Sans, sans-serif" font-size="11">Ax0.Stop</text><path d="M 1128.0 1374.0 A 14 14 0 0 0 1128.0 1396.0" fill="none" stroke="black" stroke-width="2"/><path d="M 1160.0 1374.0 A 14 14 0 0 1 1160.0 1396.0" fill="none" stroke="black" stroke-width="2"/><line x1="1108" y1="1385.0" x2="1128.0" y2="1385.0" stroke="black"/><line x1="1160.0" y1="1385.0" x2="1180" y2="1385.0" stroke="black"/><line x1="1180" y1="1385.0" x2="1180" y2="1385.0" stroke="black"/><line x1="172" y1="1441.0" x2="1108" y2="1441.0" stroke="black"/><text x="1144.0" y="1427.0" text-anchor="middle" font-family="DejaVu Sans, sans-serif" font-size="11">Ax1.Stop</text><path d="M 1128.0 1430.0 A 14 14 0 0 0 1128.0 1452.0" fill="none" stroke="black" stroke-width="2"/><path d="M 1160.0 1430.0 A 14 14 0 0 1 1160.0 1452.0" fill="none" stroke="black" stroke-width="2"/><line x1="1108" y1="1441.0" x2="1128.0" y2="1441.0" stroke="black"/><line x1="1160.0" y1="1441.0" x2="1180" y2="1441.0" stroke="black"/><line x1="1180" y1="1441.0" x2="1180" y2="1441.0" stroke="black"/><line x1="172" y1="1329.0" x2="172" y2="1441.0" stroke="black"/><line x1="60" y1="1468" x2="1180" y2="1468" stroke="#ddd"/></svg>