<svg xmlns="http://www.w3.org/2000/svg" width="1240" height="456" viewBox="0 0 1240 456"><rect width="1240" height="456" fill="white"/><text x="620.0" y="26" text-anchor="middle" font-family="DejaVu Sans, sans-serif" font-size="18" font-weight="bold">AOI_AxisMove — move one shoulder to an absolute angle</text><line x1="60" y1="40" x2="60" y2="438" stroke="black" stroke-width="2.5"/><line x1="1180" y1="40" x2="1180" y2="438" stroke="black" stroke-width="2.5"/><text x="10" y="101.0" font-family="DejaVu Sans, sans-serif" font-size="12" fill="#555">0</text><text x="60" y="66" font-family="DejaVu Sans, sans-serif" font-size="11" font-style="italic" fill="#367">Convert the target angle to steps (always)</text><line x1="60" y1="97.0" x2="60" y2="97.0" stroke="black"/><line x1="66" y1="97.0" x2="855" y2="97.0" stroke="black"/><rect x="855" y="80.0" width="325" height="34" fill="#eef" stroke="black"/><text x="1017.5" y="93.0" text-anchor="middle" font-family="DejaVu Sans, sans-serif" font-size="11" font-weight="bold">CPT</text><text x="863" y="109.0" font-family="DejaVu Sans, sans-serif" font-size="10">TargetSteps := TRUNC(TargetDeg * StepsPerDeg)</text><line x1="1180" y1="97.0" x2="1180" y2="97.0" stroke="black"/><line x1="60" y1="128" x2="1180" y2="128" stroke="#ddd"/><text x="10" y="211.0" font-family="DejaVu Sans, sans-serif" font-size="12" fill="#555">1</text><text x="60" y="148" font-family="DejaVu Sans, sans-serif" font-size="11" font-style="italic" fill="#367">Command the absolute move while Execute and not faulted</text><line x1="60" y1="207.0" x2="60" y2="207.0" stroke="black"/><text x="96.0" y="193.0" text-anchor="middle" font-family="DejaVu Sans, sans-serif" font-size="11">Execute</text><line x1="81.0" y1="196.0" x2="81.0" y2="218.0" stroke="black" stroke-width="2"/><line x1="111.0" y1="196.0" x2="111.0" y2="218.0" stroke="black" stroke-width="2"/><line x1="60" y1="207.0" x2="81.0" y2="207.0" stroke="black"/><line x1="111.0" y1="207.0" x2="132" y2="207.0" stroke="black"/><line x1="132" y1="207.0" x2="142" y2="207.0" stroke="black"/><text x="178.0" y="193.0" text-anchor="middle" font-family="DejaVu Sans, sans-serif" font-size="11">Fault</text><line x1="163.0" y1="196.0" x2="163.0" y2="218.0" stroke="black" stroke-width="2"/><line x1="193.0" y1="196.0" x2="193.0" y2="218.0" stroke="black" stroke-width="2"/><line x1="163.0" y1="218.0" x2="193.0" y2="196.0" stroke="black" stroke-width="1.5"/><line x1="142" y1="207.0" x2="163.0" y2="207.0" stroke="black"/><line x1="193.0" y1="207.0" x2="214" y2="207.0" stroke="black"/><line x1="214" y1="207.0" x2="224" y2="207.0" stroke="black"/><line x1="230" y1="179.0" x2="967" y2="179.0" stroke="black"/><rect x="967" y="162.0" width="213" height="34" fill="#eef" stroke="black"/><text x="1073.5" y="175.0" text-anchor="middle" font-family="DejaVu Sans, sans-serif" font-size="11" font-weight="bold">CPT</text><text x="975" y="191.0" font-family="DejaVu Sans, sans-serif" font-size="10">Ax.CmdPosition := TargetSteps</text><line x1="1180" y1="179.0" x2="1180" y2="179.0" stroke="black"/><line x1="230" y1="239.0" x2="1070" y2="239.0" stroke="black"/><text x="1125.0" y="225.0" text-anchor="middle" font-family="DejaVu Sans, sans-serif" font-size="11">Ax.MoveTrigger</text><path d="M 1109.0 228.0 A 14 14 0 0 0 1109.0 250.0" fill="none" stroke="black" stroke-width="2"/><path d="M 1141.0 228.0 A 14 14 0 0 1 1141.0 250.0" fill="none" stroke="black" stroke-width="2"/><line x1="1070" y1="239.0" x2="1109.0" y2="239.0" stroke="black"/><line x1="1141.0" y1="239.0" x2="1180" y2="239.0" stroke="black"/><line x1="1180" y1="239.0" x2="1180" y2="239.0" stroke="black"/><line x1="230" y1="179.0" x2="230" y2="239.0" stroke="black"/><line x1="60" y1="266" x2="1180" y2="266" stroke="#ddd"/><text x="10" y="324.0" font-family="DejaVu Sans, sans-serif" font-size="12" fill="#555">2</text><text x="60" y="286" font-family="DejaVu Sans, sans-serif" font-size="11" font-style="italic" fill="#367">In position when the move is done at the commanded target</text><line x1="60" y1="320.0" x2="60" y2="320.0" stroke="black"/><text x="104.5" y="306.0" text-anchor="middle" font-family="DejaVu Sans, sans-serif" font-size="11">Ax.MoveDone</text><line x1="89.5" y1="309.0" x2="89.5" y2="331.0" stroke="black" stroke-width="2"/><line x1="119.5" y1="309.0" x2="119.5" y2="331.0" stroke="black" stroke-width="2"/><line x1="60" y1="320.0" x2="89.5" y2="320.0" stroke="black"/><line x1="119.5" y1="320.0" x2="149" y2="320.0" stroke="black"/><line x1="149" y1="320.0" x2="159" y2="320.0" stroke="black"/><rect x="159" y="300.0" width="206" height="40" fill="#fff" stroke="black"/><text x="262.0" y="316.0" text-anchor="middle" font-family="DejaVu Sans, sans-serif" font-size="11" font-weight="bold">EQU</text><text x="262.0" y="333.0" text-anchor="middle" font-family="DejaVu Sans, sans-serif" font-size="10">Ax.CmdPosition = TargetSteps</text><line x1="365" y1="320.0" x2="375" y2="320.0" stroke="black"/><line x1="381" y1="320.0" x2="1098" y2="320.0" stroke="black"/><text x="1139.0" y="306.0" text-anchor="middle" font-family="DejaVu Sans, sans-serif" font-size="11">InPosition</text><path d="M 1123.0 309.0 A 14 14 0 0 0 1123.0 331.0" fill="none" stroke="black" stroke-width="2"/><path d="M 1155.0 309.0 A 14 14 0 0 1 1155.0 331.0" fill="none" stroke="black" stroke-width="2"/><line x1="1098" y1="320.0" x2="1123.0" y2="320.0" stroke="black"/><line x1="1155.0" y1="320.0" x2="1180" y2="320.0" stroke="black"/><line x1="1180" y1="320.0" x2="1180" y2="320.0" stroke="black"/><line x1="60" y1="354" x2="1180" y2="354" stroke="#ddd"/><text x="10" y="405.0" font-family="DejaVu Sans, sans-serif" font-size="12" fill="#555">3</text><text x="60" y="374" font-family="DejaVu Sans, sans-serif" font-size="11" font-style="italic" fill="#367">Drive alarm -&gt; fault</text><line x1="60" y1="401.0" x2="60" y2="401.0" stroke="black"/><text x="96.0" y="387.0" text-anchor="middle" font-family="DejaVu Sans, sans-serif" font-size="11">Ax.Alarm</text><line x1="81.0" y1="390.0" x2="81.0" y2="412.0" stroke="black" stroke-width="2"/><line x1="111.0" y1="390.0" x2="111.0" y2="412.0" stroke="black" stroke-width="2"/><line x1="60" y1="401.0" x2="81.0" y2="401.0" stroke="black"/><line x1="111.0" y1="401.0" x2="132" y2="401.0" stroke="black"/><line x1="132" y1="401.0" x2="142" y2="401.0" stroke="black"/><line x1="148" y1="401.0" x2="1108" y2="401.0" stroke="black"/><text x="1144.0" y="387.0" text-anchor="middle" font-family="DejaVu Sans, sans-serif" font-size="11">Fault</text><path d="M 1128.0 390.0 A 14 14 0 0 0 1128.0 412.0" fill="none" stroke="black" stroke-width="2"/><path d="M 1160.0 390.0 A 14 14 0 0 1 1160.0 412.0" fill="none" stroke="black" stroke-width="2"/><line x1="1108" y1="401.0" x2="1128.0" y2="401.0" stroke="black"/><line x1="1160.0" y1="401.0" x2="1180" y2="401.0" stroke="black"/><line x1="1180" y1="401.0" x2="1180" y2="401.0" stroke="black"/><line x1="60" y1="428" x2="1180" y2="428" stroke="#ddd"/></svg>