<svg xmlns="http://www.w3.org/2000/svg" width="1240" height="1430" viewBox="0 0 1240 1430"><rect x="0" y="0" width="1240" height="1430" fill="white"/><text x="620.0" y="26" text-anchor="middle" font-family="DejaVu Sans, sans-serif" font-size="18" font-weight="bold">R30_Homing — homing coordinator (both shoulders, sequential)</text><line x1="60" y1="40" x2="60" y2="1412" stroke="black" stroke-width="2.5"/><line x1="1180" y1="40" x2="1180" y2="1412" stroke="black" stroke-width="2.5"/><text x="10" y="157.0" font-family="DejaVu Sans, sans-serif" font-size="12" fill="#555">0</text><text x="60" y="66" font-family="DejaVu Sans, sans-serif" font-size="11" font-style="italic" fill="#367">Start homing on HomeRequest edge (enabled, not faulted)</text><line x1="60" y1="153.0" x2="60" y2="153.0" stroke="black"/><text x="129.0" y="139.0" text-anchor="middle" font-family="DejaVu Sans, sans-serif" font-size="11">Manual.HomeRequest</text><line x1="114.0" y1="142.0" x2="114.0" y2="164.0" stroke="black" stroke-width="2"/><line x1="144.0" y1="142.0" x2="144.0" y2="164.0" stroke="black" stroke-width="2"/><line x1="60" y1="153.0" x2="114.0" y2="153.0" stroke="black"/><line x1="144.0" y1="153.0" x2="198" y2="153.0" stroke="black"/><line x1="198" y1="153.0" x2="208" y2="153.0" stroke="black"/><rect x="218.0" y="142.0" width="40" height="22" fill="none" stroke="black"/><text x="238.0" y="157.0" text-anchor="middle" font-family="DejaVu Sans, sans-serif" font-size="10">ONS</text><text x="238.0" y="139.0" text-anchor="middle" font-family="DejaVu Sans, sans-serif" font-size="9">HR_ons</text><line x1="208" y1="153.0" x2="218.0" y2="153.0" stroke="black"/><line x1="258.0" y1="153.0" x2="268" y2="153.0" stroke="black"/><line x1="268" y1="153.0" x2="278" y2="153.0" stroke="black"/><rect x="278" y="133.0" width="100" height="40" fill="#fff" stroke="black"/><text x="328.0" y="149.0" text-anchor="middle" font-family="DejaVu Sans, sans-serif" font-size="11" font-weight="bold">EQU</text><text x="328.0" y="166.0" text-anchor="middle" font-family="DejaVu Sans, sans-serif" font-size="10">HomeStep = 0</text><line x1="378" y1="153.0" x2="388" y2="153.0" stroke="black"/><text x="443.0" y="139.0" text-anchor="middle" font-family="DejaVu Sans, sans-serif" font-size="11">Status.Enabled</text><line x1="428.0" y1="142.0" x2="428.0" y2="164.0" stroke="black" stroke-width="2"/><line x1="458.0" y1="142.0" x2="458.0" y2="164.0" stroke="black" stroke-width="2"/><line x1="388" y1="153.0" x2="428.0" y2="153.0" stroke="black"/><line x1="458.0" y1="153.0" x2="498" y2="153.0" stroke="black"/><line x1="498" y1="153.0" x2="508" y2="153.0" stroke="black"/><text x="563.0" y="139.0" text-anchor="middle" font-family="DejaVu Sans, sans-serif" font-size="11">Status.Faulted</text><line x1="548.0" y1="142.0" x2="548.0" y2="164.0" stroke="black" stroke-width="2"/><line x1="578.0" y1="142.0" x2="578.0" y2="164.0" stroke="black" stroke-width="2"/><line x1="548.0" y1="164.0" x2="578.0" y2="142.0" stroke="black" stroke-width="1.5"/><line x1="508" y1="153.0" x2="548.0" y2="153.0" stroke="black"/><line x1="578.0" y1="153.0" x2="618" y2="153.0" stroke="black"/><line x1="618" y1="153.0" x2="628" y2="153.0" stroke="black"/><line x1="634" y1="97.0" x2="1030" y2="97.0" stroke="black"/><rect x="1030" y="74.0" width="150" height="46" fill="#eef" stroke="black"/><text x="1105.0" y="88.0" text-anchor="middle" font-family="DejaVu Sans, sans-serif" font-size="11" font-weight="bold">MOV</text><text x="1038" y="103.0" font-family="DejaVu Sans, sans-serif" font-size="10">Source 10</text><text x="1038" y="117.0" font-family="DejaVu Sans, sans-serif" font-size="10">Dest HomeStep</text><line x1="1180" y1="97.0" x2="1180" y2="97.0" stroke="black"/><line x1="634" y1="163.0" x2="1084" y2="163.0" stroke="black"/><text x="1132.0" y="149.0" text-anchor="middle" font-family="DejaVu Sans, sans-serif" font-size="11">Status.Homed</text><path d="M 1116.0 152.0 A 14 14 0 0 0 1116.0 174.0" fill="none" stroke="black" stroke-width="2"/><path d="M 1148.0 152.0 A 14 14 0 0 1 1148.0 174.0" fill="none" stroke="black" stroke-width="2"/><text x="1132.0" y="167.0" text-anchor="middle" font-family="DejaVu Sans, sans-serif" font-size="11">U</text><line x1="1084" y1="163.0" x2="1116.0" y2="163.0" stroke="black"/><line x1="1148.0" y1="163.0" x2="1180" y2="163.0" stroke="black"/><line x1="1180" y1="163.0" x2="1180" y2="163.0" stroke="black"/><line x1="634" y1="219.0" x2="1091" y2="219.0" stroke="black"/><text x="1135.5" y="205.0" text-anchor="middle" font-family="DejaVu Sans, sans-serif" font-size="11">Ax0_HomeReq</text><path d="M 1119.5 208.0 A 14 14 0 0 0 1119.5 230.0" fill="none" stroke="black" stroke-width="2"/><path d="M 1151.5 208.0 A 14 14 0 0 1 1151.5 230.0" fill="none" stroke="black" stroke-width="2"/><text x="1135.5" y="223.0" text-anchor="middle" font-family="DejaVu Sans, sans-serif" font-size="11">L</text><line x1="1091" y1="219.0" x2="1119.5" y2="219.0" stroke="black"/><line x1="1151.5" y1="219.0" x2="1180" y2="219.0" stroke="black"/><line x1="1180" y1="219.0" x2="1180" y2="219.0" stroke="black"/><line x1="634" y1="97.0" x2="634" y2="219.0" stroke="black"/><line x1="60" y1="246" x2="1180" y2="246" stroke="#ddd"/><text x="10" y="323.0" font-family="DejaVu Sans, sans-serif" font-size="12" fill="#555">1</text><text x="60" y="266" font-family="DejaVu Sans, sans-serif" font-size="11" font-style="italic" fill="#367">Run Axis 0 (left) homing while its request is set</text><line x1="60" y1="319.0" x2="60" y2="319.0" stroke="black"/><text x="104.5" y="305.0" text-anchor="middle" font-family="DejaVu Sans, sans-serif" font-size="11">Ax0_HomeReq</text><line x1="89.5" y1="308.0" x2="89.5" y2="330.0" stroke="black" stroke-width="2"/><line x1="119.5" y1="308.0" x2="119.5" y2="330.0" stroke="black" stroke-width="2"/><line x1="60" y1="319.0" x2="89.5" y2="319.0" stroke="black"/><line x1="119.5" y1="319.0" x2="149" y2="319.0" stroke="black"/><line x1="149" y1="319.0" x2="159" y2="319.0" stroke="black"/><line x1="165" y1="319.0" x2="874" y2="319.0" stroke="black"/><rect x="874" y="274.0" width="306" height="90" fill="#efe" stroke="black"/><text x="1027.0" y="289.0" text-anchor="middle" font-family="DejaVu Sans, sans-serif" font-size="11" font-weight="bold">AOI_HomeAxis</text><text x="882" y="305.0" font-family="DejaVu Sans, sans-serif" font-size="10">Axis 0 (left)</text><text x="882" y="321.0" font-family="DejaVu Sans, sans-serif" font-size="10">HomeSwitch:=HS_Left  HomeAngleDeg:=135.85</text><text x="882" y="337.0" font-family="DejaVu Sans, sans-serif" font-size="10">HomeReq:=Ax0_HomeReq  Step:=Step0  Ax:=Ax0</text><text x="882" y="353.0" font-family="DejaVu Sans, sans-serif" font-size="10">Done-&gt;Ax0_HomeDone  Fault-&gt;Ax0_HomeFault</text><line x1="1180" y1="319.0" x2="1180" y2="319.0" stroke="black"/><line x1="60" y1="378" x2="1180" y2="378" stroke="#ddd"/><text x="10" y="489.0" font-family="DejaVu Sans, sans-serif" font-size="12" fill="#555">2</text><text x="60" y="398" font-family="DejaVu Sans, sans-serif" font-size="11" font-style="italic" fill="#367">Axis 0 done -&gt; start Axis 1</text><line x1="60" y1="485.0" x2="60" y2="485.0" stroke="black"/><rect x="60" y="465.0" width="101" height="40" fill="#fff" stroke="black"/><text x="110.5" y="481.0" text-anchor="middle" font-family="DejaVu Sans, sans-serif" font-size="11" font-weight="bold">EQU</text><text x="110.5" y="498.0" text-anchor="middle" font-family="DejaVu Sans, sans-serif" font-size="10">HomeStep = 10</text><line x1="161" y1="485.0" x2="171" y2="485.0" stroke="black"/><text x="219.0" y="471.0" text-anchor="middle" font-family="DejaVu Sans, sans-serif" font-size="11">Ax0_HomeDone</text><line x1="204.0" y1="474.0" x2="204.0" y2="496.0" stroke="black" stroke-width="2"/><line x1="234.0" y1="474.0" x2="234.0" y2="496.0" stroke="black" stroke-width="2"/><line x1="171" y1="485.0" x2="204.0" y2="485.0" stroke="black"/><line x1="234.0" y1="485.0" x2="267" y2="485.0" stroke="black"/><line x1="267" y1="485.0" x2="277" y2="485.0" stroke="black"/><line x1="283" y1="419.0" x2="1091" y2="419.0" stroke="black"/><text x="1135.5" y="405.0" text-anchor="middle" font-family="DejaVu Sans, sans-serif" font-size="11">Ax0_HomeReq</text><path d="M 1119.5 408.0 A 14 14 0 0 0 1119.5 430.0" fill="none" stroke="black" stroke-width="2"/><path d="M 1151.5 408.0 A 14 14 0 0 1 1151.5 430.0" fill="none" stroke="black" stroke-width="2"/><text x="1135.5" y="423.0" text-anchor="middle" font-family="DejaVu Sans, sans-serif" font-size="11">U</text><line x1="1091" y1="419.0" x2="1119.5" y2="419.0" stroke="black"/><line x1="1151.5" y1="419.0" x2="1180" y2="419.0" stroke="black"/><line x1="1180" y1="419.0" x2="1180" y2="419.0" stroke="black"/><line x1="283" y1="475.0" x2="1091" y2="475.0" stroke="black"/><text x="1135.5" y="461.0" text-anchor="middle" font-family="DejaVu Sans, sans-serif" font-size="11">Ax1_HomeReq</text><path d="M 1119.5 464.0 A 14 14 0 0 0 1119.5 486.0" fill="none" stroke="black" stroke-width="2"/><path d="M 1151.5 464.0 A 14 14 0 0 1 1151.5 486.0" fill="none" stroke="black" stroke-width="2"/><text x="1135.5" y="479.0" text-anchor="middle" font-family="DejaVu Sans, sans-serif" font-size="11">L</text><line x1="1091" y1="475.0" x2="1119.5" y2="475.0" stroke="black"/><line x1="1151.5" y1="475.0" x2="1180" y2="475.0" stroke="black"/><line x1="1180" y1="475.0" x2="1180" y2="475.0" stroke="black"/><line x1="283" y1="541.0" x2="1030" y2="541.0" stroke="black"/><rect x="1030" y="518.0" width="150" height="46" fill="#eef" stroke="black"/><text x="1105.0" y="532.0" text-anchor="middle" font-family="DejaVu Sans, sans-serif" font-size="11" font-weight="bold">MOV</text><text x="1038" y="547.0" font-family="DejaVu Sans, sans-serif" font-size="10">Source 20</text><text x="1038" y="561.0" font-family="DejaVu Sans, sans-serif" font-size="10">Dest HomeStep</text><line x1="1180" y1="541.0" x2="1180" y2="541.0" stroke="black"/><line x1="283" y1="419.0" x2="283" y2="541.0" stroke="black"/><line x1="60" y1="578" x2="1180" y2="578" stroke="#ddd"/><text x="10" y="655.0" font-family="DejaVu Sans, sans-serif" font-size="12" fill="#555">3</text><text x="60" y="598" font-family="DejaVu Sans, sans-serif" font-size="11" font-style="italic" fill="#367">Run Axis 1 (right) homing while its request is set</text><line x1="60" y1="651.0" x2="60" y2="651.0" stroke="black"/><text x="104.5" y="637.0" text-anchor="middle" font-family="DejaVu Sans, sans-serif" font-size="11">Ax1_HomeReq</text><line x1="89.5" y1="640.0" x2="89.5" y2="662.0" stroke="black" stroke-width="2"/><line x1="119.5" y1="640.0" x2="119.5" y2="662.0" stroke="black" stroke-width="2"/><line x1="60" y1="651.0" x2="89.5" y2="651.0" stroke="black"/><line x1="119.5" y1="651.0" x2="149" y2="651.0" stroke="black"/><line x1="149" y1="651.0" x2="159" y2="651.0" stroke="black"/><line x1="165" y1="651.0" x2="874" y2="651.0" stroke="black"/><rect x="874" y="606.0" width="306" height="90" fill="#efe" stroke="black"/><text x="1027.0" y="621.0" text-anchor="middle" font-family="DejaVu Sans, sans-serif" font-size="11" font-weight="bold">AOI_HomeAxis</text><text x="882" y="637.0" font-family="DejaVu Sans, sans-serif" font-size="10">Axis 1 (right)</text><text x="882" y="653.0" font-family="DejaVu Sans, sans-serif" font-size="10">HomeSwitch:=HS_Right  HomeAngleDeg:=44.15</text><text x="882" y="669.0" font-family="DejaVu Sans, sans-serif" font-size="10">HomeReq:=Ax1_HomeReq  Step:=Step1  Ax:=Ax1</text><text x="882" y="685.0" font-family="DejaVu Sans, sans-serif" font-size="10">Done-&gt;Ax1_HomeDone  Fault-&gt;Ax1_HomeFault</text><line x1="1180" y1="651.0" x2="1180" y2="651.0" stroke="black"/><line x1="60" y1="710" x2="1180" y2="710" stroke="#ddd"/><text x="10" y="821.0" font-family="DejaVu Sans, sans-serif" font-size="12" fill="#555">4</text><text x="60" y="730" font-family="DejaVu Sans, sans-serif" font-size="11" font-style="italic" fill="#367">Axis 1 done -&gt; both homed</text><line x1="60" y1="817.0" x2="60" y2="817.0" stroke="black"/><rect x="60" y="797.0" width="101" height="40" fill="#fff" stroke="black"/><text x="110.5" y="813.0" text-anchor="middle" font-family="DejaVu Sans, sans-serif" font-size="11" font-weight="bold">EQU</text><text x="110.5" y="830.0" text-anchor="middle" font-family="DejaVu Sans, sans-serif" font-size="10">HomeStep = 20</text><line x1="161" y1="817.0" x2="171" y2="817.0" stroke="black"/><text x="219.0" y="803.0" text-anchor="middle" font-family="DejaVu Sans, sans-serif" font-size="11">Ax1_HomeDone</text><line x1="204.0" y1="806.0" x2="204.0" y2="828.0" stroke="black" stroke-width="2"/><line x1="234.0" y1="806.0" x2="234.0" y2="828.0" stroke="black" stroke-width="2"/><line x1="171" y1="817.0" x2="204.0" y2="817.0" stroke="black"/><line x1="234.0" y1="817.0" x2="267" y2="817.0" stroke="black"/><line x1="267" y1="817.0" x2="277" y2="817.0" stroke="black"/><line x1="283" y1="751.0" x2="1091" y2="751.0" stroke="black"/><text x="1135.5" y="737.0" text-anchor="middle" font-family="DejaVu Sans, sans-serif" font-size="11">Ax1_HomeReq</text><path d="M 1119.5 740.0 A 14 14 0 0 0 1119.5 762.0" fill="none" stroke="black" stroke-width="2"/><path d="M 1151.5 740.0 A 14 14 0 0 1 1151.5 762.0" fill="none" stroke="black" stroke-width="2"/><text x="1135.5" y="755.0" text-anchor="middle" font-family="DejaVu Sans, sans-serif" font-size="11">U</text><line x1="1091" y1="751.0" x2="1119.5" y2="751.0" stroke="black"/><line x1="1151.5" y1="751.0" x2="1180" y2="751.0" stroke="black"/><line x1="1180" y1="751.0" x2="1180" y2="751.0" stroke="black"/><line x1="283" y1="807.0" x2="1084" y2="807.0" stroke="black"/><text x="1132.0" y="793.0" text-anchor="middle" font-family="DejaVu Sans, sans-serif" font-size="11">Status.Homed</text><path d="M 1116.0 796.0 A 14 14 0 0 0 1116.0 818.0" fill="none" stroke="black" stroke-width="2"/><path d="M 1148.0 796.0 A 14 14 0 0 1 1148.0 818.0" fill="none" stroke="black" stroke-width="2"/><text x="1132.0" y="811.0" text-anchor="middle" font-family="DejaVu Sans, sans-serif" font-size="11">L</text><line x1="1084" y1="807.0" x2="1116.0" y2="807.0" stroke="black"/><line x1="1148.0" y1="807.0" x2="1180" y2="807.0" stroke="black"/><line x1="1180" y1="807.0" x2="1180" y2="807.0" stroke="black"/><line x1="283" y1="873.0" x2="1030" y2="873.0" stroke="black"/><rect x="1030" y="850.0" width="150" height="46" fill="#eef" stroke="black"/><text x="1105.0" y="864.0" text-anchor="middle" font-family="DejaVu Sans, sans-serif" font-size="11" font-weight="bold">MOV</text><text x="1038" y="879.0" font-family="DejaVu Sans, sans-serif" font-size="10">Source 30</text><text x="1038" y="893.0" font-family="DejaVu Sans, sans-serif" font-size="10">Dest HomeStep</text><line x1="1180" y1="873.0" x2="1180" y2="873.0" stroke="black"/><line x1="283" y1="751.0" x2="283" y2="873.0" stroke="black"/><line x1="60" y1="910" x2="1180" y2="910" stroke="#ddd"/><text x="10" y="1057.0" font-family="DejaVu Sans, sans-serif" font-size="12" fill="#555">5</text><text x="60" y="930" font-family="DejaVu Sans, sans-serif" font-size="11" font-style="italic" fill="#367">Publish angles, enable soft limits, return to idle</text><line x1="60" y1="1053.0" x2="60" y2="1053.0" stroke="black"/><rect x="60" y="1033.0" width="101" height="40" fill="#fff" stroke="black"/><text x="110.5" y="1049.0" text-anchor="middle" font-family="DejaVu Sans, sans-serif" font-size="11" font-weight="bold">EQU</text><text x="110.5" y="1066.0" text-anchor="middle" font-family="DejaVu Sans, sans-serif" font-size="10">HomeStep = 30</text><line x1="161" y1="1053.0" x2="171" y2="1053.0" stroke="black"/><line x1="177" y1="955.0" x2="799" y2="955.0" stroke="black"/><rect x="799" y="938.0" width="381" height="34" fill="#eef" stroke="black"/><text x="989.5" y="951.0" text-anchor="middle" font-family="DejaVu Sans, sans-serif" font-size="11" font-weight="bold">CPT</text><text x="807" y="967.0" font-family="DejaVu Sans, sans-serif" font-size="10">Status.ActualLeftDeg := Ax0.ActualSteps / StepsPerDeg</text><line x1="1180" y1="955.0" x2="1180" y2="955.0" stroke="black"/><line x1="177" y1="1019.0" x2="792" y2="1019.0" stroke="black"/><rect x="792" y="1002.0" width="388" height="34" fill="#eef" stroke="black"/><text x="986.0" y="1015.0" text-anchor="middle" font-family="DejaVu Sans, sans-serif" font-size="11" font-weight="bold">CPT</text><text x="800" y="1031.0" font-family="DejaVu Sans, sans-serif" font-size="10">Status.ActualRightDeg := Ax1.ActualSteps / StepsPerDeg</text><line x1="1180" y1="1019.0" x2="1180" y2="1019.0" stroke="black"/><line x1="177" y1="1079.0" x2="1056" y2="1079.0" stroke="black"/><text x="1118.0" y="1065.0" text-anchor="middle" font-family="DejaVu Sans, sans-serif" font-size="11">SoftLimitsEnable</text><path d="M 1102.0 1068.0 A 14 14 0 0 0 1102.0 1090.0" fill="none" stroke="black" stroke-width="2"/><path d="M 1134.0 1068.0 A 14 14 0 0 1 1134.0 1090.0" fill="none" stroke="black" stroke-width="2"/><line x1="1056" y1="1079.0" x2="1102.0" y2="1079.0" stroke="black"/><line x1="1134.0" y1="1079.0" x2="1180" y2="1079.0" stroke="black"/><line x1="1180" y1="1079.0" x2="1180" y2="1079.0" stroke="black"/><line x1="177" y1="1145.0" x2="1030" y2="1145.0" stroke="black"/><rect x="1030" y="1122.0" width="150" height="46" fill="#eef" stroke="black"/><text x="1105.0" y="1136.0" text-anchor="middle" font-family="DejaVu Sans, sans-serif" font-size="11" font-weight="bold">MOV</text><text x="1038" y="1151.0" font-family="DejaVu Sans, sans-serif" font-size="10">Source 0</text><text x="1038" y="1165.0" font-family="DejaVu Sans, sans-serif" font-size="10">Dest HomeStep</text><line x1="1180" y1="1145.0" x2="1180" y2="1145.0" stroke="black"/><line x1="177" y1="955.0" x2="177" y2="1145.0" stroke="black"/><line x1="60" y1="1182" x2="1180" y2="1182" stroke="#ddd"/><text x="10" y="1303.0" font-family="DejaVu Sans, sans-serif" font-size="12" fill="#555">6</text><text x="60" y="1202" font-family="DejaVu Sans, sans-serif" font-size="11" font-style="italic" fill="#367">Either axis fault -&gt; homing fault</text><line x1="60" y1="1299.0" x2="60" y2="1299.0" stroke="black"/><line x1="60" y1="1299.0" x2="68" y2="1299.0" stroke="black"/><line x1="68" y1="1281.0" x2="68" y2="1317.0" stroke="black"/><line x1="68" y1="1281.0" x2="68" y2="1281.0" stroke="black"/><text x="119.5" y="1267.0" text-anchor="middle" font-family="DejaVu Sans, sans-serif" font-size="11">Ax0_HomeFault</text><line x1="104.5" y1="1270.0" x2="104.5" y2="1292.0" stroke="black" stroke-width="2"/><line x1="134.5" y1="1270.0" x2="134.5" y2="1292.0" stroke="black" stroke-width="2"/><line x1="68" y1="1281.0" x2="104.5" y2="1281.0" stroke="black"/><line x1="134.5" y1="1281.0" x2="171" y2="1281.0" stroke="black"/><line x1="171" y1="1281.0" x2="181" y2="1281.0" stroke="black"/><line x1="68" y1="1317.0" x2="68" y2="1317.0" stroke="black"/><text x="119.5" y="1303.0" text-anchor="middle" font-family="DejaVu Sans, sans-serif" font-size="11">Ax1_HomeFault</text><line x1="104.5" y1="1306.0" x2="104.5" y2="1328.0" stroke="black" stroke-width="2"/><line x1="134.5" y1="1306.0" x2="134.5" y2="1328.0" stroke="black" stroke-width="2"/><line x1="68" y1="1317.0" x2="104.5" y2="1317.0" stroke="black"/><line x1="134.5" y1="1317.0" x2="171" y2="1317.0" stroke="black"/><line x1="171" y1="1317.0" x2="181" y2="1317.0" stroke="black"/><line x1="181" y1="1281.0" x2="181" y2="1317.0" stroke="black"/><line x1="181" y1="1299.0" x2="189" y2="1299.0" stroke="black"/><line x1="205" y1="1223.0" x2="1070" y2="1223.0" stroke="black"/><text x="1125.0" y="1209.0" text-anchor="middle" font-family="DejaVu Sans, sans-serif" font-size="11">Status.Faulted</text><path d="M 1109.0 1212.0 A 14 14 0 0 0 1109.0 1234.0" fill="none" stroke="black" stroke-width="2"/><path d="M 1141.0 1212.0 A 14 14 0 0 1 1141.0 1234.0" fill="none" stroke="black" stroke-width="2"/><text x="1125.0" y="1227.0" text-anchor="middle" font-family="DejaVu Sans, sans-serif" font-size="11">L</text><line x1="1070" y1="1223.0" x2="1109.0" y2="1223.0" stroke="black"/><line x1="1141.0" y1="1223.0" x2="1180" y2="1223.0" stroke="black"/><line x1="1180" y1="1223.0" x2="1180" y2="1223.0" stroke="black"/><line x1="205" y1="1289.0" x2="1030" y2="1289.0" stroke="black"/><rect x="1030" y="1266.0" width="150" height="46" fill="#eef" stroke="black"/><text x="1105.0" y="1280.0" text-anchor="middle" font-family="DejaVu Sans, sans-serif" font-size="11" font-weight="bold">MOV</text><text x="1038" y="1295.0" font-family="DejaVu Sans, sans-serif" font-size="10">Source 4</text><text x="1038" y="1309.0" font-family="DejaVu Sans, sans-serif" font-size="10">Dest Status.FaultCode</text><line x1="1180" y1="1289.0" x2="1180" y2="1289.0" stroke="black"/><line x1="205" y1="1365.0" x2="1030" y2="1365.0" stroke="black"/><rect x="1030" y="1342.0" width="150" height="46" fill="#eef" stroke="black"/><text x="1105.0" y="1356.0" text-anchor="middle" font-family="DejaVu Sans, sans-serif" font-size="11" font-weight="bold">MOV</text><text x="1038" y="1371.0" font-family="DejaVu Sans, sans-serif" font-size="10">Source 900</text><text x="1038" y="1385.0" font-family="DejaVu Sans, sans-serif" font-size="10">Dest HomeStep</text><line x1="1180" y1="1365.0" x2="1180" y2="1365.0" stroke="black"/><line x1="205" y1="1223.0" x2="205" y2="1365.0" stroke="black"/><line x1="60" y1="1402" x2="1180" y2="1402" stroke="#ddd"/></svg>