<svg xmlns="http://www.w3.org/2000/svg" width="1240" height="278" viewBox="0 0 1240 278"><rect width="1240" height="278" fill="white"/><text x="620.0" y="26" text-anchor="middle" font-family="DejaVu Sans, sans-serif" font-size="18" font-weight="bold">R20_Drives — drive enable and ready feedback</text><line x1="60" y1="40" x2="60" y2="260" stroke="black" stroke-width="2.5"/><line x1="1180" y1="40" x2="1180" y2="260" stroke="black" stroke-width="2.5"/><text x="10" y="125.0" font-family="DejaVu Sans, sans-serif" font-size="12" fill="#555">0</text><text x="60" y="66" font-family="DejaVu Sans, sans-serif" font-size="11" font-style="italic" fill="#367">Enable both drives when requested, safe and not faulted</text><line x1="60" y1="121.0" x2="60" y2="121.0" stroke="black"/><text x="97.5" y="107.0" text-anchor="middle" font-family="DejaVu Sans, sans-serif" font-size="11">EnableReq</text><line x1="82.5" y1="110.0" x2="82.5" y2="132.0" stroke="black" stroke-width="2"/><line x1="112.5" y1="110.0" x2="112.5" y2="132.0" stroke="black" stroke-width="2"/><line x1="60" y1="121.0" x2="82.5" y2="121.0" stroke="black"/><line x1="112.5" y1="121.0" x2="135" y2="121.0" stroke="black"/><line x1="135" y1="121.0" x2="145" y2="121.0" stroke="black"/><text x="181.0" y="107.0" text-anchor="middle" font-family="DejaVu Sans, sans-serif" font-size="11">SafetyOK</text><line x1="166.0" y1="110.0" x2="166.0" y2="132.0" stroke="black" stroke-width="2"/><line x1="196.0" y1="110.0" x2="196.0" y2="132.0" stroke="black" stroke-width="2"/><line x1="145" y1="121.0" x2="166.0" y2="121.0" stroke="black"/><line x1="196.0" y1="121.0" x2="217" y2="121.0" stroke="black"/><line x1="217" y1="121.0" x2="227" y2="121.0" stroke="black"/><text x="282.0" y="107.0" text-anchor="middle" font-family="DejaVu Sans, sans-serif" font-size="11">Status.Faulted</text><line x1="267.0" y1="110.0" x2="267.0" y2="132.0" stroke="black" stroke-width="2"/><line x1="297.0" y1="110.0" x2="297.0" y2="132.0" stroke="black" stroke-width="2"/><line x1="267.0" y1="132.0" x2="297.0" y2="110.0" stroke="black" stroke-width="1.5"/><line x1="227" y1="121.0" x2="267.0" y2="121.0" stroke="black"/><line x1="297.0" y1="121.0" x2="337" y2="121.0" stroke="black"/><line x1="337" y1="121.0" x2="347" y2="121.0" stroke="black"/><line x1="353" y1="93.0" x2="1098" y2="93.0" stroke="black"/><text x="1139.0" y="79.0" text-anchor="middle" font-family="DejaVu Sans, sans-serif" font-size="11">Ax0.Enable</text><path d="M 1123.0 82.0 A 14 14 0 0 0 1123.0 104.0" fill="none" stroke="black" stroke-width="2"/><path d="M 1155.0 82.0 A 14 14 0 0 1 1155.0 104.0" fill="none" stroke="black" stroke-width="2"/><line x1="1098" y1="93.0" x2="1123.0" y2="93.0" stroke="black"/><line x1="1155.0" y1="93.0" x2="1180" y2="93.0" stroke="black"/><line x1="1180" y1="93.0" x2="1180" y2="93.0" stroke="black"/><line x1="353" y1="149.0" x2="1098" y2="149.0" stroke="black"/><text x="1139.0" y="135.0" text-anchor="middle" font-family="DejaVu Sans, sans-serif" font-size="11">Ax1.Enable</text><path d="M 1123.0 138.0 A 14 14 0 0 0 1123.0 160.0" fill="none" stroke="black" stroke-width="2"/><path d="M 1155.0 138.0 A 14 14 0 0 1 1155.0 160.0" fill="none" stroke="black" stroke-width="2"/><line x1="1098" y1="149.0" x2="1123.0" y2="149.0" stroke="black"/><line x1="1155.0" y1="149.0" x2="1180" y2="149.0" stroke="black"/><line x1="1180" y1="149.0" x2="1180" y2="149.0" stroke="black"/><line x1="353" y1="93.0" x2="353" y2="149.0" stroke="black"/><line x1="60" y1="176" x2="1180" y2="176" stroke="#ddd"/><text x="10" y="227.0" font-family="DejaVu Sans, sans-serif" font-size="12" fill="#555">1</text><text x="60" y="196" font-family="DejaVu Sans, sans-serif" font-size="11" font-style="italic" fill="#367">Report Enabled once both drives are ready</text><line x1="60" y1="223.0" x2="60" y2="223.0" stroke="black"/><text x="97.5" y="209.0" text-anchor="middle" font-family="DejaVu Sans, sans-serif" font-size="11">Ax0.Ready</text><line x1="82.5" y1="212.0" x2="82.5" y2="234.0" stroke="black" stroke-width="2"/><line x1="112.5" y1="212.0" x2="112.5" y2="234.0" stroke="black" stroke-width="2"/><line x1="60" y1="223.0" x2="82.5" y2="223.0" stroke="black"/><line x1="112.5" y1="223.0" x2="135" y2="223.0" stroke="black"/><line x1="135" y1="223.0" x2="145" y2="223.0" stroke="black"/><text x="182.5" y="209.0" text-anchor="middle" font-family="DejaVu Sans, sans-serif" font-size="11">Ax1.Ready</text><line x1="167.5" y1="212.0" x2="167.5" y2="234.0" stroke="black" stroke-width="2"/><line x1="197.5" y1="212.0" x2="197.5" y2="234.0" stroke="black" stroke-width="2"/><line x1="145" y1="223.0" x2="167.5" y2="223.0" stroke="black"/><line x1="197.5" y1="223.0" x2="220" y2="223.0" stroke="black"/><line x1="220" y1="223.0" x2="230" y2="223.0" stroke="black"/><text x="267.5" y="209.0" text-anchor="middle" font-family="DejaVu Sans, sans-serif" font-size="11">EnableReq</text><line x1="252.5" y1="212.0" x2="252.5" y2="234.0" stroke="black" stroke-width="2"/><line x1="282.5" y1="212.0" x2="282.5" y2="234.0" stroke="black" stroke-width="2"/><line x1="230" y1="223.0" x2="252.5" y2="223.0" stroke="black"/><line x1="282.5" y1="223.0" x2="305" y2="223.0" stroke="black"/><line x1="305" y1="223.0" x2="315" y2="223.0" stroke="black"/><line x1="321" y1="223.0" x2="1070" y2="223.0" stroke="black"/><text x="1125.0" y="209.0" text-anchor="middle" font-family="DejaVu Sans, sans-serif" font-size="11">Status.Enabled</text><path d="M 1109.0 212.0 A 14 14 0 0 0 1109.0 234.0" fill="none" stroke="black" stroke-width="2"/><path d="M 1141.0 212.0 A 14 14 0 0 1 1141.0 234.0" fill="none" stroke="black" stroke-width="2"/><line x1="1070" y1="223.0" x2="1109.0" y2="223.0" stroke="black"/><line x1="1141.0" y1="223.0" x2="1180" y2="223.0" stroke="black"/><line x1="1180" y1="223.0" x2="1180" y2="223.0" stroke="black"/><line x1="60" y1="250" x2="1180" y2="250" stroke="#ddd"/></svg>