<svg xmlns="http://www.w3.org/2000/svg" width="1240" height="850" viewBox="0 0 1240 850"><rect width="1240" height="850" fill="white"/><text x="620.0" y="26" text-anchor="middle" font-family="DejaVu Sans, sans-serif" font-size="18" font-weight="bold">R10_Safety — E-stop, limits, drive-fault aggregation</text><line x1="60" y1="40" x2="60" y2="832" stroke="black" stroke-width="2.5"/><line x1="1180" y1="40" x2="1180" y2="832" stroke="black" stroke-width="2.5"/><text x="10" y="163.0" font-family="DejaVu Sans, sans-serif" font-size="12" fill="#555">0</text><text x="60" y="66" font-family="DejaVu Sans, sans-serif" font-size="11" font-style="italic" fill="#367">E-stop or guard open -&gt; fault (2), drop enable request</text><line x1="60" y1="159.0" x2="60" y2="159.0" stroke="black"/><line x1="60" y1="159.0" x2="68" y2="159.0" stroke="black"/><line x1="68" y1="142.0" x2="68" y2="176.0" stroke="black"/><line x1="68" y1="142.0" x2="68" y2="142.0" stroke="black"/><text x="119.5" y="128.0" text-anchor="middle" font-family="DejaVu Sans, sans-serif" font-size="11">EStop_Pressed</text><line x1="104.5" y1="131.0" x2="104.5" y2="153.0" stroke="black" stroke-width="2"/><line x1="134.5" y1="131.0" x2="134.5" y2="153.0" stroke="black" stroke-width="2"/><line x1="68" y1="142.0" x2="104.5" y2="142.0" stroke="black"/><line x1="134.5" y1="142.0" x2="171" y2="142.0" stroke="black"/><line x1="171" y1="142.0" x2="187" y2="142.0" stroke="black"/><line x1="68" y1="176.0" x2="68" y2="176.0" stroke="black"/><text x="116.0" y="162.0" text-anchor="middle" font-family="DejaVu Sans, sans-serif" font-size="11">Guard_Closed</text><line x1="101.0" y1="165.0" x2="101.0" y2="187.0" stroke="black" stroke-width="2"/><line x1="131.0" y1="165.0" x2="131.0" y2="187.0" stroke="black" stroke-width="2"/><line x1="101.0" y1="187.0" x2="131.0" y2="165.0" stroke="black" stroke-width="1.5"/><line x1="68" y1="176.0" x2="101.0" y2="176.0" stroke="black"/><line x1="131.0" y1="176.0" x2="164" y2="176.0" stroke="black"/><line x1="164" y1="176.0" x2="187" y2="176.0" stroke="black"/><line x1="187" y1="142.0" x2="187" y2="176.0" stroke="black"/><line x1="187" y1="159.0" x2="195" y2="159.0" stroke="black"/><line x1="211" y1="93.0" x2="1070" y2="93.0" stroke="black"/><text x="1125.0" y="79.0" text-anchor="middle" font-family="DejaVu Sans, sans-serif" font-size="11">Status.Faulted</text><path d="M 1109.0 82.0 A 14 14 0 0 0 1109.0 104.0" fill="none" stroke="black" stroke-width="2"/><path d="M 1141.0 82.0 A 14 14 0 0 1 1141.0 104.0" fill="none" stroke="black" stroke-width="2"/><text x="1125.0" y="97.0" text-anchor="middle" font-family="DejaVu Sans, sans-serif" font-size="11">L</text><line x1="1070" y1="93.0" x2="1109.0" y2="93.0" stroke="black"/><line x1="1141.0" y1="93.0" x2="1180" y2="93.0" stroke="black"/><line x1="1180" y1="93.0" x2="1180" y2="93.0" stroke="black"/><line x1="211" y1="159.0" x2="1030" y2="159.0" stroke="black"/><rect x="1030" y="136.0" width="150" height="46" fill="#eef" stroke="black"/><text x="1105.0" y="150.0" text-anchor="middle" font-family="DejaVu Sans, sans-serif" font-size="11" font-weight="bold">MOV</text><text x="1038" y="165.0" font-family="DejaVu Sans, sans-serif" font-size="10">Source 2</text><text x="1038" y="179.0" font-family="DejaVu Sans, sans-serif" font-size="10">Dest Status.FaultCode</text><line x1="1180" y1="159.0" x2="1180" y2="159.0" stroke="black"/><line x1="211" y1="225.0" x2="1105" y2="225.0" stroke="black"/><text x="1142.5" y="211.0" text-anchor="middle" font-family="DejaVu Sans, sans-serif" font-size="11">EnableReq</text><path d="M 1126.5 214.0 A 14 14 0 0 0 1126.5 236.0" fill="none" stroke="black" stroke-width="2"/><path d="M 1158.5 214.0 A 14 14 0 0 1 1158.5 236.0" fill="none" stroke="black" stroke-width="2"/><text x="1142.5" y="229.0" text-anchor="middle" font-family="DejaVu Sans, sans-serif" font-size="11">U</text><line x1="1105" y1="225.0" x2="1126.5" y2="225.0" stroke="black"/><line x1="1158.5" y1="225.0" x2="1180" y2="225.0" stroke="black"/><line x1="1180" y1="225.0" x2="1180" y2="225.0" stroke="black"/><line x1="211" y1="93.0" x2="211" y2="225.0" stroke="black"/><line x1="60" y1="252" x2="1180" y2="252" stroke="#ddd"/><text x="10" y="364.0" font-family="DejaVu Sans, sans-serif" font-size="12" fill="#555">1</text><text x="60" y="272" font-family="DejaVu Sans, sans-serif" font-size="11" font-style="italic" fill="#367">Any hard travel limit -&gt; fault (3)</text><line x1="60" y1="360.0" x2="60" y2="360.0" stroke="black"/><line x1="60" y1="360.0" x2="68" y2="360.0" stroke="black"/><line x1="68" y1="309.0" x2="68" y2="411.0" stroke="black"/><line x1="68" y1="309.0" x2="68" y2="309.0" stroke="black"/><text x="116.0" y="295.0" text-anchor="middle" font-family="DejaVu Sans, sans-serif" font-size="11">Ax0_LimitMin</text><line x1="101.0" y1="298.0" x2="101.0" y2="320.0" stroke="black" stroke-width="2"/><line x1="131.0" y1="298.0" x2="131.0" y2="320.0" stroke="black" stroke-width="2"/><line x1="68" y1="309.0" x2="101.0" y2="309.0" stroke="black"/><line x1="131.0" y1="309.0" x2="164" y2="309.0" stroke="black"/><line x1="164" y1="309.0" x2="180" y2="309.0" stroke="black"/><line x1="68" y1="343.0" x2="68" y2="343.0" stroke="black"/><text x="116.0" y="329.0" text-anchor="middle" font-family="DejaVu Sans, sans-serif" font-size="11">Ax0_LimitMax</text><line x1="101.0" y1="332.0" x2="101.0" y2="354.0" stroke="black" stroke-width="2"/><line x1="131.0" y1="332.0" x2="131.0" y2="354.0" stroke="black" stroke-width="2"/><line x1="68" y1="343.0" x2="101.0" y2="343.0" stroke="black"/><line x1="131.0" y1="343.0" x2="164" y2="343.0" stroke="black"/><line x1="164" y1="343.0" x2="180" y2="343.0" stroke="black"/><line x1="68" y1="377.0" x2="68" y2="377.0" stroke="black"/><text x="116.0" y="363.0" text-anchor="middle" font-family="DejaVu Sans, sans-serif" font-size="11">Ax1_LimitMin</text><line x1="101.0" y1="366.0" x2="101.0" y2="388.0" stroke="black" stroke-width="2"/><line x1="131.0" y1="366.0" x2="131.0" y2="388.0" stroke="black" stroke-width="2"/><line x1="68" y1="377.0" x2="101.0" y2="377.0" stroke="black"/><line x1="131.0" y1="377.0" x2="164" y2="377.0" stroke="black"/><line x1="164" y1="377.0" x2="180" y2="377.0" stroke="black"/><line x1="68" y1="411.0" x2="68" y2="411.0" stroke="black"/><text x="116.0" y="397.0" text-anchor="middle" font-family="DejaVu Sans, sans-serif" font-size="11">Ax1_LimitMax</text><line x1="101.0" y1="400.0" x2="101.0" y2="422.0" stroke="black" stroke-width="2"/><line x1="131.0" y1="400.0" x2="131.0" y2="422.0" stroke="black" stroke-width="2"/><line x1="68" y1="411.0" x2="101.0" y2="411.0" stroke="black"/><line x1="131.0" y1="411.0" x2="164" y2="411.0" stroke="black"/><line x1="164" y1="411.0" x2="180" y2="411.0" stroke="black"/><line x1="180" y1="309.0" x2="180" y2="411.0" stroke="black"/><line x1="180" y1="360.0" x2="188" y2="360.0" stroke="black"/><line x1="204" y1="322.0" x2="1070" y2="322.0" stroke="black"/><text x="1125.0" y="308.0" text-anchor="middle" font-family="DejaVu Sans, sans-serif" font-size="11">Status.Faulted</text><path d="M 1109.0 311.0 A 14 14 0 0 0 1109.0 333.0" fill="none" stroke="black" stroke-width="2"/><path d="M 1141.0 311.0 A 14 14 0 0 1 1141.0 333.0" fill="none" stroke="black" stroke-width="2"/><text x="1125.0" y="326.0" text-anchor="middle" font-family="DejaVu Sans, sans-serif" font-size="11">L</text><line x1="1070" y1="322.0" x2="1109.0" y2="322.0" stroke="black"/><line x1="1141.0" y1="322.0" x2="1180" y2="322.0" stroke="black"/><line x1="1180" y1="322.0" x2="1180" y2="322.0" stroke="black"/><line x1="204" y1="388.0" x2="1030" y2="388.0" stroke="black"/><rect x="1030" y="365.0" width="150" height="46" fill="#eef" stroke="black"/><text x="1105.0" y="379.0" text-anchor="middle" font-family="DejaVu Sans, sans-serif" font-size="11" font-weight="bold">MOV</text><text x="1038" y="394.0" font-family="DejaVu Sans, sans-serif" font-size="10">Source 3</text><text x="1038" y="408.0" font-family="DejaVu Sans, sans-serif" font-size="10">Dest Status.FaultCode</text><line x1="1180" y1="388.0" x2="1180" y2="388.0" stroke="black"/><line x1="204" y1="322.0" x2="204" y2="388.0" stroke="black"/><line x1="60" y1="448" x2="1180" y2="448" stroke="#ddd"/><text x="10" y="537.0" font-family="DejaVu Sans, sans-serif" font-size="12" fill="#555">2</text><text x="60" y="468" font-family="DejaVu Sans, sans-serif" font-size="11" font-style="italic" fill="#367">Drive alarm on either axis -&gt; fault (1)</text><line x1="60" y1="533.0" x2="60" y2="533.0" stroke="black"/><line x1="60" y1="533.0" x2="68" y2="533.0" stroke="black"/><line x1="68" y1="516.0" x2="68" y2="550.0" stroke="black"/><line x1="68" y1="516.0" x2="68" y2="516.0" stroke="black"/><text x="105.5" y="502.0" text-anchor="middle" font-family="DejaVu Sans, sans-serif" font-size="11">Ax0.Alarm</text><line x1="90.5" y1="505.0" x2="90.5" y2="527.0" stroke="black" stroke-width="2"/><line x1="120.5" y1="505.0" x2="120.5" y2="527.0" stroke="black" stroke-width="2"/><line x1="68" y1="516.0" x2="90.5" y2="516.0" stroke="black"/><line x1="120.5" y1="516.0" x2="143" y2="516.0" stroke="black"/><line x1="143" y1="516.0" x2="159" y2="516.0" stroke="black"/><line x1="68" y1="550.0" x2="68" y2="550.0" stroke="black"/><text x="105.5" y="536.0" text-anchor="middle" font-family="DejaVu Sans, sans-serif" font-size="11">Ax1.Alarm</text><line x1="90.5" y1="539.0" x2="90.5" y2="561.0" stroke="black" stroke-width="2"/><line x1="120.5" y1="539.0" x2="120.5" y2="561.0" stroke="black" stroke-width="2"/><line x1="68" y1="550.0" x2="90.5" y2="550.0" stroke="black"/><line x1="120.5" y1="550.0" x2="143" y2="550.0" stroke="black"/><line x1="143" y1="550.0" x2="159" y2="550.0" stroke="black"/><line x1="159" y1="516.0" x2="159" y2="550.0" stroke="black"/><line x1="159" y1="533.0" x2="167" y2="533.0" stroke="black"/><line x1="183" y1="495.0" x2="1070" y2="495.0" stroke="black"/><text x="1125.0" y="481.0" text-anchor="middle" font-family="DejaVu Sans, sans-serif" font-size="11">Status.Faulted</text><path d="M 1109.0 484.0 A 14 14 0 0 0 1109.0 506.0" fill="none" stroke="black" stroke-width="2"/><path d="M 1141.0 484.0 A 14 14 0 0 1 1141.0 506.0" fill="none" stroke="black" stroke-width="2"/><text x="1125.0" y="499.0" text-anchor="middle" font-family="DejaVu Sans, sans-serif" font-size="11">L</text><line x1="1070" y1="495.0" x2="1109.0" y2="495.0" stroke="black"/><line x1="1141.0" y1="495.0" x2="1180" y2="495.0" stroke="black"/><line x1="1180" y1="495.0" x2="1180" y2="495.0" stroke="black"/><line x1="183" y1="561.0" x2="1030" y2="561.0" stroke="black"/><rect x="1030" y="538.0" width="150" height="46" fill="#eef" stroke="black"/><text x="1105.0" y="552.0" text-anchor="middle" font-family="DejaVu Sans, sans-serif" font-size="11" font-weight="bold">MOV</text><text x="1038" y="567.0" font-family="DejaVu Sans, sans-serif" font-size="10">Source 1</text><text x="1038" y="581.0" font-family="DejaVu Sans, sans-serif" font-size="10">Dest Status.FaultCode</text><line x1="1180" y1="561.0" x2="1180" y2="561.0" stroke="black"/><line x1="183" y1="495.0" x2="183" y2="561.0" stroke="black"/><line x1="60" y1="598" x2="1180" y2="598" stroke="#ddd"/><text x="10" y="649.0" font-family="DejaVu Sans, sans-serif" font-size="12" fill="#555">3</text><text x="60" y="618" font-family="DejaVu Sans, sans-serif" font-size="11" font-style="italic" fill="#367">Safety OK when healthy and not faulted</text><line x1="60" y1="645.0" x2="60" y2="645.0" stroke="black"/><text x="115.0" y="631.0" text-anchor="middle" font-family="DejaVu Sans, sans-serif" font-size="11">Status.Faulted</text><line x1="100.0" y1="634.0" x2="100.0" y2="656.0" stroke="black" stroke-width="2"/><line x1="130.0" y1="634.0" x2="130.0" y2="656.0" stroke="black" stroke-width="2"/><line x1="100.0" y1="656.0" x2="130.0" y2="634.0" stroke="black" stroke-width="1.5"/><line x1="60" y1="645.0" x2="100.0" y2="645.0" stroke="black"/><line x1="130.0" y1="645.0" x2="170" y2="645.0" stroke="black"/><line x1="170" y1="645.0" x2="180" y2="645.0" stroke="black"/><text x="216.0" y="631.0" text-anchor="middle" font-family="DejaVu Sans, sans-serif" font-size="11">EStop_OK</text><line x1="201.0" y1="634.0" x2="201.0" y2="656.0" stroke="black" stroke-width="2"/><line x1="231.0" y1="634.0" x2="231.0" y2="656.0" stroke="black" stroke-width="2"/><line x1="180" y1="645.0" x2="201.0" y2="645.0" stroke="black"/><line x1="231.0" y1="645.0" x2="252" y2="645.0" stroke="black"/><line x1="252" y1="645.0" x2="262" y2="645.0" stroke="black"/><text x="310.0" y="631.0" text-anchor="middle" font-family="DejaVu Sans, sans-serif" font-size="11">Guard_Closed</text><line x1="295.0" y1="634.0" x2="295.0" y2="656.0" stroke="black" stroke-width="2"/><line x1="325.0" y1="634.0" x2="325.0" y2="656.0" stroke="black" stroke-width="2"/><line x1="262" y1="645.0" x2="295.0" y2="645.0" stroke="black"/><line x1="325.0" y1="645.0" x2="358" y2="645.0" stroke="black"/><line x1="358" y1="645.0" x2="368" y2="645.0" stroke="black"/><line x1="374" y1="645.0" x2="1108" y2="645.0" stroke="black"/><text x="1144.0" y="631.0" text-anchor="middle" font-family="DejaVu Sans, sans-serif" font-size="11">SafetyOK</text><path d="M 1128.0 634.0 A 14 14 0 0 0 1128.0 656.0" fill="none" stroke="black" stroke-width="2"/><path d="M 1160.0 634.0 A 14 14 0 0 1 1160.0 656.0" fill="none" stroke="black" stroke-width="2"/><line x1="1108" y1="645.0" x2="1128.0" y2="645.0" stroke="black"/><line x1="1160.0" y1="645.0" x2="1180" y2="645.0" stroke="black"/><line x1="1180" y1="645.0" x2="1180" y2="645.0" stroke="black"/><line x1="60" y1="672" x2="1180" y2="672" stroke="#ddd"/><text x="10" y="761.0" font-family="DejaVu Sans, sans-serif" font-size="12" fill="#555">4</text><text x="60" y="692" font-family="DejaVu Sans, sans-serif" font-size="11" font-style="italic" fill="#367">Reset clears a latched fault when safe</text><line x1="60" y1="757.0" x2="60" y2="757.0" stroke="black"/><text x="97.5" y="743.0" text-anchor="middle" font-family="DejaVu Sans, sans-serif" font-size="11">Cmd.Reset</text><line x1="82.5" y1="746.0" x2="82.5" y2="768.0" stroke="black" stroke-width="2"/><line x1="112.5" y1="746.0" x2="112.5" y2="768.0" stroke="black" stroke-width="2"/><line x1="60" y1="757.0" x2="82.5" y2="757.0" stroke="black"/><line x1="112.5" y1="757.0" x2="135" y2="757.0" stroke="black"/><line x1="135" y1="757.0" x2="145" y2="757.0" stroke="black"/><rect x="155.5" y="746.0" width="40" height="22" fill="none" stroke="black"/><text x="175.5" y="761.0" text-anchor="middle" font-family="DejaVu Sans, sans-serif" font-size="10">ONS</text><text x="175.5" y="743.0" text-anchor="middle" font-family="DejaVu Sans, sans-serif" font-size="9">RST_ons</text><line x1="145" y1="757.0" x2="155.5" y2="757.0" stroke="black"/><line x1="195.5" y1="757.0" x2="206" y2="757.0" stroke="black"/><line x1="206" y1="757.0" x2="216" y2="757.0" stroke="black"/><text x="252.0" y="743.0" text-anchor="middle" font-family="DejaVu Sans, sans-serif" font-size="11">SafetyOK</text><line x1="237.0" y1="746.0" x2="237.0" y2="768.0" stroke="black" stroke-width="2"/><line x1="267.0" y1="746.0" x2="267.0" y2="768.0" stroke="black" stroke-width="2"/><line x1="216" y1="757.0" x2="237.0" y2="757.0" stroke="black"/><line x1="267.0" y1="757.0" x2="288" y2="757.0" stroke="black"/><line x1="288" y1="757.0" x2="298" y2="757.0" stroke="black"/><line x1="304" y1="719.0" x2="1070" y2="719.0" stroke="black"/><text x="1125.0" y="705.0" text-anchor="middle" font-family="DejaVu Sans, sans-serif" font-size="11">Status.Faulted</text><path d="M 1109.0 708.0 A 14 14 0 0 0 1109.0 730.0" fill="none" stroke="black" stroke-width="2"/><path d="M 1141.0 708.0 A 14 14 0 0 1 1141.0 730.0" fill="none" stroke="black" stroke-width="2"/><text x="1125.0" y="723.0" text-anchor="middle" font-family="DejaVu Sans, sans-serif" font-size="11">U</text><line x1="1070" y1="719.0" x2="1109.0" y2="719.0" stroke="black"/><line x1="1141.0" y1="719.0" x2="1180" y2="719.0" stroke="black"/><line x1="1180" y1="719.0" x2="1180" y2="719.0" stroke="black"/><line x1="304" y1="785.0" x2="1030" y2="785.0" stroke="black"/><rect x="1030" y="762.0" width="150" height="46" fill="#eef" stroke="black"/><text x="1105.0" y="776.0" text-anchor="middle" font-family="DejaVu Sans, sans-serif" font-size="11" font-weight="bold">MOV</text><text x="1038" y="791.0" font-family="DejaVu Sans, sans-serif" font-size="10">Source 0</text><text x="1038" y="805.0" font-family="DejaVu Sans, sans-serif" font-size="10">Dest Status.FaultCode</text><line x1="1180" y1="785.0" x2="1180" y2="785.0" stroke="black"/><line x1="304" y1="719.0" x2="304" y2="785.0" stroke="black"/><line x1="60" y1="822" x2="1180" y2="822" stroke="#ddd"/></svg>