<svg xmlns="http://www.w3.org/2000/svg" width="1240" height="942" viewBox="0 0 1240 942"><rect width="1240" height="942" fill="white"/><text x="620.0" y="26" font-family="DejaVu Sans, sans-serif" font-size="18" text-anchor="middle" font-weight="bold">AOI_AxisMove — move one shoulder to an absolute angle (ClearLink Step-Dir)</text><line x1="60" y1="40" x2="60" y2="932" stroke="black" stroke-width="2.5"/><line x1="1180" y1="40" x2="1180" y2="932" stroke="black" stroke-width="2.5"/><text x="10" y="107" font-family="DejaVu Sans, sans-serif" font-size="12" fill="#555">0</text><text x="60" y="66" font-family="DejaVu Sans, sans-serif" font-size="11" font-style="italic" fill="#367">Energize this axis (Enable output held while the AOI runs)</text><line x1="60" y1="103" x2="1132" y2="103" stroke="black"/><path d="M 1132 92 A 14 14 0 0 0 1132 114" fill="none" stroke="black" stroke-width="2"/><path d="M 1164 92 A 14 14 0 0 1 1164 114" fill="none" stroke="black" stroke-width="2"/><text x="1180" y="89" font-family="DejaVu Sans, sans-serif" font-size="11" text-anchor="end">Ax.Enable  (Motor0_Output_Reg_Enable)</text><line x1="1164" y1="103" x2="1180" y2="103" stroke="black"/><line x1="60" y1="140" x2="1180" y2="140" stroke="#ddd"/><text x="10" y="207" font-family="DejaVu Sans, sans-serif" font-size="12" fill="#555">1</text><text x="60" y="166" font-family="DejaVu Sans, sans-serif" font-size="11" font-style="italic" fill="#367">Convert the target angle to steps (always)</text><line x1="60" y1="203" x2="882.0" y2="203" stroke="black"/><rect x="882.0" y="186" width="298.0" height="34" fill="#eef" stroke="black"/><text x="1031.0" y="200" font-family="DejaVu Sans, sans-serif" font-size="11" text-anchor="middle" font-weight="bold">CPT</text><text x="890.0" y="215" font-family="DejaVu Sans, sans-serif" font-size="10">TargetSteps := ROUND(TargetDeg * STEPS_PER_DEG)</text><line x1="60" y1="240" x2="1180" y2="240" stroke="#ddd"/><line x1="60" y1="303" x2="70" y2="303" stroke="black"/><rect x="70" y="292" width="40" height="22" fill="none" stroke="black"/><text x="90" y="307" font-family="DejaVu Sans, sans-serif" font-size="10" text-anchor="middle">ONS</text><text x="90" y="289" font-family="DejaVu Sans, sans-serif" font-size="9" text-anchor="middle">Exec_ons</text><line x1="110" y1="303" x2="118.0" y2="303" stroke="black"/><line x1="118.0" y1="292" x2="118.0" y2="314" stroke="black" stroke-width="2"/><line x1="148.0" y1="292" x2="148.0" y2="314" stroke="black" stroke-width="2"/><line x1="118.0" y1="314" x2="148.0" y2="292" stroke="black" stroke-width="1.5"/><line x1="148.0" y1="303" x2="156.0" y2="303" stroke="black"/><text x="133.0" y="289" font-family="DejaVu Sans, sans-serif" font-size="11" text-anchor="middle">Fault</text><text x="10" y="307" font-family="DejaVu Sans, sans-serif" font-size="12" fill="#555">2</text><text x="60" y="266" font-family="DejaVu Sans, sans-serif" font-size="11" font-style="italic" fill="#367">Rising edge of Execute: load target, limits, absolute, and Load Position Data</text><line x1="156.0" y1="303" x2="156.0" y2="527" stroke="black"/><line x1="156.0" y1="303" x2="1030.0" y2="303" stroke="black"/><rect x="1030.0" y="280" width="150.0" height="46" fill="#eef" stroke="black"/><text x="1105.0" y="294" font-family="DejaVu Sans, sans-serif" font-size="11" text-anchor="middle" font-weight="bold">MOV</text><text x="1038.0" y="309" font-family="DejaVu Sans, sans-serif" font-size="10">Source TargetSteps</text><text x="1038.0" y="323" font-family="DejaVu Sans, sans-serif" font-size="10">Dest Motor0_Move_Dist</text><line x1="1180" y1="303" x2="1180" y2="303" stroke="black"/><line x1="156.0" y1="359" x2="1030.0" y2="359" stroke="black"/><rect x="1030.0" y="336" width="150.0" height="46" fill="#eef" stroke="black"/><text x="1105.0" y="350" font-family="DejaVu Sans, sans-serif" font-size="11" text-anchor="middle" font-weight="bold">MOV</text><text x="1038.0" y="365" font-family="DejaVu Sans, sans-serif" font-size="10">Source MOVE_VEL</text><text x="1038.0" y="379" font-family="DejaVu Sans, sans-serif" font-size="10">Dest Motor0_Vel_Limit</text><line x1="1180" y1="359" x2="1180" y2="359" stroke="black"/><line x1="156.0" y1="415" x2="1030.0" y2="415" stroke="black"/><rect x="1030.0" y="392" width="150.0" height="46" fill="#eef" stroke="black"/><text x="1105.0" y="406" font-family="DejaVu Sans, sans-serif" font-size="11" text-anchor="middle" font-weight="bold">MOV</text><text x="1038.0" y="421" font-family="DejaVu Sans, sans-serif" font-size="10">Source MOVE_ACC</text><text x="1038.0" y="435" font-family="DejaVu Sans, sans-serif" font-size="10">Dest Motor0_Accel_Lim</text><line x1="1180" y1="415" x2="1180" y2="415" stroke="black"/><line x1="156.0" y1="471" x2="1132" y2="471" stroke="black"/><path d="M 1132 460 A 14 14 0 0 0 1132 482" fill="none" stroke="black" stroke-width="2"/><path d="M 1164 460 A 14 14 0 0 1 1164 482" fill="none" stroke="black" stroke-width="2"/><text x="1180" y="457" font-family="DejaVu Sans, sans-serif" font-size="11" text-anchor="end">Motor0_Output_Reg_Abs_Flag</text><text x="1148" y="475" font-family="DejaVu Sans, sans-serif" font-size="11" text-anchor="middle">L</text><line x1="1164" y1="471" x2="1180" y2="471" stroke="black"/><line x1="156.0" y1="527" x2="1132" y2="527" stroke="black"/><path d="M 1132 516 A 14 14 0 0 0 1132 538" fill="none" stroke="black" stroke-width="2"/><path d="M 1164 516 A 14 14 0 0 1 1164 538" fill="none" stroke="black" stroke-width="2"/><text x="1180" y="513" font-family="DejaVu Sans, sans-serif" font-size="11" text-anchor="end">Motor0_Output_Reg_Load_Posn_Data</text><text x="1148" y="531" font-family="DejaVu Sans, sans-serif" font-size="11" text-anchor="middle">L</text><line x1="1164" y1="527" x2="1180" y2="527" stroke="black"/><line x1="60" y1="564" x2="1180" y2="564" stroke="#ddd"/><line x1="60" y1="627" x2="149.0" y2="627" stroke="black"/><line x1="149.0" y1="616" x2="149.0" y2="638" stroke="black" stroke-width="2"/><line x1="179.0" y1="616" x2="179.0" y2="638" stroke="black" stroke-width="2"/><line x1="179.0" y1="627" x2="268.0" y2="627" stroke="black"/><text x="164.0" y="613" font-family="DejaVu Sans, sans-serif" font-size="11" text-anchor="middle">Motor0_Status_Load_Posn_Move_Ack</text><text x="10" y="631" font-family="DejaVu Sans, sans-serif" font-size="12" fill="#555">3</text><text x="60" y="590" font-family="DejaVu Sans, sans-serif" font-size="11" font-style="italic" fill="#367">ClearLink acknowledges the load -&gt; drop Load Position Data (handshake)</text><line x1="268.0" y1="627" x2="1132" y2="627" stroke="black"/><path d="M 1132 616 A 14 14 0 0 0 1132 638" fill="none" stroke="black" stroke-width="2"/><path d="M 1164 616 A 14 14 0 0 1 1164 638" fill="none" stroke="black" stroke-width="2"/><text x="1180" y="613" font-family="DejaVu Sans, sans-serif" font-size="11" text-anchor="end">Motor0_Output_Reg_Load_Posn_Data</text><text x="1148" y="631" font-family="DejaVu Sans, sans-serif" font-size="11" text-anchor="middle">U</text><line x1="1164" y1="627" x2="1180" y2="627" stroke="black"/><line x1="60" y1="664" x2="1180" y2="664" stroke="#ddd"/><line x1="60" y1="727" x2="137.0" y2="727" stroke="black"/><line x1="137.0" y1="716" x2="137.0" y2="738" stroke="black" stroke-width="2"/><line x1="167.0" y1="716" x2="167.0" y2="738" stroke="black" stroke-width="2"/><line x1="167.0" y1="727" x2="244.0" y2="727" stroke="black"/><text x="152.0" y="713" font-family="DejaVu Sans, sans-serif" font-size="11" text-anchor="middle">Motor0_Status_At_Target_Posn</text><line x1="244.0" y1="727" x2="333.0" y2="727" stroke="black"/><line x1="333.0" y1="716" x2="333.0" y2="738" stroke="black" stroke-width="2"/><line x1="363.0" y1="716" x2="363.0" y2="738" stroke="black" stroke-width="2"/><line x1="333.0" y1="738" x2="363.0" y2="716" stroke="black" stroke-width="1.5"/><line x1="363.0" y1="727" x2="452.0" y2="727" stroke="black"/><text x="348.0" y="713" font-family="DejaVu Sans, sans-serif" font-size="11" text-anchor="middle">Motor0_Output_Reg_Load_Posn_Data</text><text x="10" y="731" font-family="DejaVu Sans, sans-serif" font-size="12" fill="#555">4</text><text x="60" y="690" font-family="DejaVu Sans, sans-serif" font-size="11" font-style="italic" fill="#367">Move done = At Target Position (set HLFB Inversion for the EM806; else use Steps Active)</text><line x1="452.0" y1="727" x2="1132" y2="727" stroke="black"/><path d="M 1132 716 A 14 14 0 0 0 1132 738" fill="none" stroke="black" stroke-width="2"/><path d="M 1164 716 A 14 14 0 0 1 1164 738" fill="none" stroke="black" stroke-width="2"/><text x="1180" y="713" font-family="DejaVu Sans, sans-serif" font-size="11" text-anchor="end">InPosition</text><line x1="1164" y1="727" x2="1180" y2="727" stroke="black"/><line x1="60" y1="764" x2="1180" y2="764" stroke="#ddd"/><line x1="68" y1="827" x2="68" y2="887" stroke="black"/><line x1="252.0" y1="827" x2="252.0" y2="887" stroke="black"/><line x1="68" y1="827" x2="145.0" y2="827" stroke="black"/><line x1="175.0" y1="827" x2="252.0" y2="827" stroke="black"/><line x1="145.0" y1="816" x2="145.0" y2="838" stroke="black" stroke-width="2"/><line x1="175.0" y1="816" x2="175.0" y2="838" stroke="black" stroke-width="2"/><text x="160.0" y="813" font-family="DejaVu Sans, sans-serif" font-size="11" text-anchor="middle">Motor0_Status_Motor_In_Fault</text><line x1="68" y1="857" x2="145.0" y2="857" stroke="black"/><line x1="175.0" y1="857" x2="252.0" y2="857" stroke="black"/><line x1="145.0" y1="846" x2="145.0" y2="868" stroke="black" stroke-width="2"/><line x1="175.0" y1="846" x2="175.0" y2="868" stroke="black" stroke-width="2"/><text x="160.0" y="843" font-family="DejaVu Sans, sans-serif" font-size="11" text-anchor="middle">Motor0_Status_Shutdowns_Pres</text><line x1="68" y1="887" x2="145.0" y2="887" stroke="black"/><line x1="175.0" y1="887" x2="252.0" y2="887" stroke="black"/><line x1="145.0" y1="876" x2="145.0" y2="898" stroke="black" stroke-width="2"/><line x1="175.0" y1="876" x2="175.0" y2="898" stroke="black" stroke-width="2"/><text x="160.0" y="873" font-family="DejaVu Sans, sans-serif" font-size="11" text-anchor="middle">Ax.ALM (EM806 ALM via DIP)</text><line x1="60" y1="827" x2="68" y2="827" stroke="black"/><text x="10" y="831" font-family="DejaVu Sans, sans-serif" font-size="12" fill="#555">5</text><text x="60" y="790" font-family="DejaVu Sans, sans-serif" font-size="11" font-style="italic" fill="#367">Motor fault, ClearLink shutdown, or EM806 alarm -&gt; Fault</text><line x1="252.0" y1="827" x2="1132" y2="827" stroke="black"/><path d="M 1132 816 A 14 14 0 0 0 1132 838" fill="none" stroke="black" stroke-width="2"/><path d="M 1164 816 A 14 14 0 0 1 1164 838" fill="none" stroke="black" stroke-width="2"/><text x="1180" y="813" font-family="DejaVu Sans, sans-serif" font-size="11" text-anchor="end">Fault</text><line x1="1164" y1="827" x2="1180" y2="827" stroke="black"/><line x1="60" y1="924" x2="1180" y2="924" stroke="#ddd"/></svg>