<svg xmlns="http://www.w3.org/2000/svg" width="1240" height="398" viewBox="0 0 1240 398"><rect width="1240" height="398" fill="white"/><text x="620.0" y="26" text-anchor="middle" font-family="DejaVu Sans, sans-serif" font-size="18" font-weight="bold">R60_Status — publish status bits</text><line x1="60" y1="40" x2="60" y2="380" stroke="black" stroke-width="2.5"/><line x1="1180" y1="40" x2="1180" y2="380" stroke="black" stroke-width="2.5"/><text x="10" y="104.0" font-family="DejaVu Sans, sans-serif" font-size="12" fill="#555">0</text><text x="60" y="66" font-family="DejaVu Sans, sans-serif" font-size="11" font-style="italic" fill="#367">Ready when idle and homed</text><line x1="60" y1="100.0" x2="60" y2="100.0" stroke="black"/><rect x="60" y="80.0" width="100" height="40" fill="#fff" stroke="black"/><text x="110.0" y="96.0" text-anchor="middle" font-family="DejaVu Sans, sans-serif" font-size="11" font-weight="bold">EQU</text><text x="110.0" y="113.0" text-anchor="middle" font-family="DejaVu Sans, sans-serif" font-size="10">State = 0</text><line x1="160" y1="100.0" x2="170" y2="100.0" stroke="black"/><rect x="170" y="80.0" width="100" height="40" fill="#fff" stroke="black"/><text x="220.0" y="96.0" text-anchor="middle" font-family="DejaVu Sans, sans-serif" font-size="11" font-weight="bold">EQU</text><text x="220.0" y="113.0" text-anchor="middle" font-family="DejaVu Sans, sans-serif" font-size="10">HomeStep = 0</text><line x1="270" y1="100.0" x2="280" y2="100.0" stroke="black"/><text x="328.0" y="86.0" text-anchor="middle" font-family="DejaVu Sans, sans-serif" font-size="11">Status.Homed</text><line x1="313.0" y1="89.0" x2="313.0" y2="111.0" stroke="black" stroke-width="2"/><line x1="343.0" y1="89.0" x2="343.0" y2="111.0" stroke="black" stroke-width="2"/><line x1="280" y1="100.0" x2="313.0" y2="100.0" stroke="black"/><line x1="343.0" y1="100.0" x2="376" y2="100.0" stroke="black"/><line x1="376" y1="100.0" x2="386" y2="100.0" stroke="black"/><line x1="392" y1="100.0" x2="1084" y2="100.0" stroke="black"/><text x="1132.0" y="86.0" text-anchor="middle" font-family="DejaVu Sans, sans-serif" font-size="11">Status.Ready</text><path d="M 1116.0 89.0 A 14 14 0 0 0 1116.0 111.0" fill="none" stroke="black" stroke-width="2"/><path d="M 1148.0 89.0 A 14 14 0 0 1 1148.0 111.0" fill="none" stroke="black" stroke-width="2"/><line x1="1084" y1="100.0" x2="1116.0" y2="100.0" stroke="black"/><line x1="1148.0" y1="100.0" x2="1180" y2="100.0" stroke="black"/><line x1="1180" y1="100.0" x2="1180" y2="100.0" stroke="black"/><line x1="60" y1="134" x2="1180" y2="134" stroke="#ddd"/><text x="10" y="192.0" font-family="DejaVu Sans, sans-serif" font-size="12" fill="#555">1</text><text x="60" y="154" font-family="DejaVu Sans, sans-serif" font-size="11" font-style="italic" fill="#367">Busy when the auto sequence is running</text><line x1="60" y1="188.0" x2="60" y2="188.0" stroke="black"/><rect x="60" y="168.0" width="100" height="40" fill="#fff" stroke="black"/><text x="110.0" y="184.0" text-anchor="middle" font-family="DejaVu Sans, sans-serif" font-size="11" font-weight="bold">NEQ</text><text x="110.0" y="201.0" text-anchor="middle" font-family="DejaVu Sans, sans-serif" font-size="10">State &lt;&gt; 0</text><line x1="160" y1="188.0" x2="170" y2="188.0" stroke="black"/><line x1="176" y1="188.0" x2="1091" y2="188.0" stroke="black"/><text x="1135.5" y="174.0" text-anchor="middle" font-family="DejaVu Sans, sans-serif" font-size="11">Status.Busy</text><path d="M 1119.5 177.0 A 14 14 0 0 0 1119.5 199.0" fill="none" stroke="black" stroke-width="2"/><path d="M 1151.5 177.0 A 14 14 0 0 1 1151.5 199.0" fill="none" stroke="black" stroke-width="2"/><line x1="1091" y1="188.0" x2="1119.5" y2="188.0" stroke="black"/><line x1="1151.5" y1="188.0" x2="1180" y2="188.0" stroke="black"/><line x1="1180" y1="188.0" x2="1180" y2="188.0" stroke="black"/><line x1="60" y1="222" x2="1180" y2="222" stroke="#ddd"/><text x="10" y="273.0" font-family="DejaVu Sans, sans-serif" font-size="12" fill="#555">2</text><text x="60" y="242" font-family="DejaVu Sans, sans-serif" font-size="11" font-style="italic" fill="#367">Vacuum OK mirrors the vacuum sensor</text><line x1="60" y1="269.0" x2="60" y2="269.0" stroke="black"/><text x="108.0" y="255.0" text-anchor="middle" font-family="DejaVu Sans, sans-serif" font-size="11">VacuumSensor</text><line x1="93.0" y1="258.0" x2="93.0" y2="280.0" stroke="black" stroke-width="2"/><line x1="123.0" y1="258.0" x2="123.0" y2="280.0" stroke="black" stroke-width="2"/><line x1="60" y1="269.0" x2="93.0" y2="269.0" stroke="black"/><line x1="123.0" y1="269.0" x2="156" y2="269.0" stroke="black"/><line x1="156" y1="269.0" x2="166" y2="269.0" stroke="black"/><line x1="172" y1="269.0" x2="1063" y2="269.0" stroke="black"/><text x="1121.5" y="255.0" text-anchor="middle" font-family="DejaVu Sans, sans-serif" font-size="11">Status.VacuumOK</text><path d="M 1105.5 258.0 A 14 14 0 0 0 1105.5 280.0" fill="none" stroke="black" stroke-width="2"/><path d="M 1137.5 258.0 A 14 14 0 0 1 1137.5 280.0" fill="none" stroke="black" stroke-width="2"/><line x1="1063" y1="269.0" x2="1105.5" y2="269.0" stroke="black"/><line x1="1137.5" y1="269.0" x2="1180" y2="269.0" stroke="black"/><line x1="1180" y1="269.0" x2="1180" y2="269.0" stroke="black"/><line x1="60" y1="296" x2="1180" y2="296" stroke="#ddd"/><text x="10" y="347.0" font-family="DejaVu Sans, sans-serif" font-size="12" fill="#555">3</text><text x="60" y="316" font-family="DejaVu Sans, sans-serif" font-size="11" font-style="italic" fill="#367">Camera clear mirrors the clear-pose sensor</text><line x1="60" y1="343.0" x2="60" y2="343.0" stroke="black"/><text x="111.5" y="329.0" text-anchor="middle" font-family="DejaVu Sans, sans-serif" font-size="11">AtCameraClear</text><line x1="96.5" y1="332.0" x2="96.5" y2="354.0" stroke="black" stroke-width="2"/><line x1="126.5" y1="332.0" x2="126.5" y2="354.0" stroke="black" stroke-width="2"/><line x1="60" y1="343.0" x2="96.5" y2="343.0" stroke="black"/><line x1="126.5" y1="343.0" x2="163" y2="343.0" stroke="black"/><line x1="163" y1="343.0" x2="173" y2="343.0" stroke="black"/><line x1="179" y1="343.0" x2="1042" y2="343.0" stroke="black"/><text x="1111.0" y="329.0" text-anchor="middle" font-family="DejaVu Sans, sans-serif" font-size="11">Status.CameraClear</text><path d="M 1095.0 332.0 A 14 14 0 0 0 1095.0 354.0" fill="none" stroke="black" stroke-width="2"/><path d="M 1127.0 332.0 A 14 14 0 0 1 1127.0 354.0" fill="none" stroke="black" stroke-width="2"/><line x1="1042" y1="343.0" x2="1095.0" y2="343.0" stroke="black"/><line x1="1127.0" y1="343.0" x2="1180" y2="343.0" stroke="black"/><line x1="1180" y1="343.0" x2="1180" y2="343.0" stroke="black"/><line x1="60" y1="370" x2="1180" y2="370" stroke="#ddd"/></svg>