<svg xmlns="http://www.w3.org/2000/svg" width="1240" height="356" viewBox="0 0 1240 356"><rect width="1240" height="356" fill="white"/><text x="620.0" y="26" text-anchor="middle" font-family="DejaVu Sans, sans-serif" font-size="18" font-weight="bold">AOI_CmdHandshake — CommandID acknowledgement</text><line x1="60" y1="40" x2="60" y2="338" stroke="black" stroke-width="2.5"/><line x1="1180" y1="40" x2="1180" y2="338" stroke="black" stroke-width="2.5"/><text x="10" y="107.0" font-family="DejaVu Sans, sans-serif" font-size="12" fill="#555">0</text><text x="60" y="66" font-family="DejaVu Sans, sans-serif" font-size="11" font-style="italic" fill="#367">Accept a new command on the rising Trigger edge</text><line x1="60" y1="103.0" x2="60" y2="103.0" stroke="black"/><text x="96.0" y="89.0" text-anchor="middle" font-family="DejaVu Sans, sans-serif" font-size="11">Trigger</text><line x1="81.0" y1="92.0" x2="81.0" y2="114.0" stroke="black" stroke-width="2"/><line x1="111.0" y1="92.0" x2="111.0" y2="114.0" stroke="black" stroke-width="2"/><line x1="60" y1="103.0" x2="81.0" y2="103.0" stroke="black"/><line x1="111.0" y1="103.0" x2="132" y2="103.0" stroke="black"/><line x1="132" y1="103.0" x2="142" y2="103.0" stroke="black"/><rect x="152.0" y="92.0" width="40" height="22" fill="none" stroke="black"/><text x="172.0" y="107.0" text-anchor="middle" font-family="DejaVu Sans, sans-serif" font-size="10">ONS</text><text x="172.0" y="89.0" text-anchor="middle" font-family="DejaVu Sans, sans-serif" font-size="9">HS_ons</text><line x1="142" y1="103.0" x2="152.0" y2="103.0" stroke="black"/><line x1="192.0" y1="103.0" x2="202" y2="103.0" stroke="black"/><line x1="202" y1="103.0" x2="212" y2="103.0" stroke="black"/><line x1="218" y1="103.0" x2="1030" y2="103.0" stroke="black"/><rect x="1030" y="80.0" width="150" height="46" fill="#eef" stroke="black"/><text x="1105.0" y="94.0" text-anchor="middle" font-family="DejaVu Sans, sans-serif" font-size="11" font-weight="bold">MOV</text><text x="1038" y="109.0" font-family="DejaVu Sans, sans-serif" font-size="10">Source NewCommandID</text><text x="1038" y="123.0" font-family="DejaVu Sans, sans-serif" font-size="10">Dest Status.ActiveCommandID</text><line x1="1180" y1="103.0" x2="1180" y2="103.0" stroke="black"/><line x1="60" y1="140" x2="1180" y2="140" stroke="#ddd"/><text x="10" y="201.0" font-family="DejaVu Sans, sans-serif" font-size="12" fill="#555">1</text><text x="60" y="160" font-family="DejaVu Sans, sans-serif" font-size="11" font-style="italic" fill="#367">Command complete -&gt; acknowledge to the vision PC</text><line x1="60" y1="197.0" x2="60" y2="197.0" stroke="black"/><text x="96.0" y="183.0" text-anchor="middle" font-family="DejaVu Sans, sans-serif" font-size="11">Complete</text><line x1="81.0" y1="186.0" x2="81.0" y2="208.0" stroke="black" stroke-width="2"/><line x1="111.0" y1="186.0" x2="111.0" y2="208.0" stroke="black" stroke-width="2"/><line x1="60" y1="197.0" x2="81.0" y2="197.0" stroke="black"/><line x1="111.0" y1="197.0" x2="132" y2="197.0" stroke="black"/><line x1="132" y1="197.0" x2="142" y2="197.0" stroke="black"/><line x1="148" y1="197.0" x2="1030" y2="197.0" stroke="black"/><rect x="1030" y="174.0" width="150" height="46" fill="#eef" stroke="black"/><text x="1105.0" y="188.0" text-anchor="middle" font-family="DejaVu Sans, sans-serif" font-size="11" font-weight="bold">MOV</text><text x="1038" y="203.0" font-family="DejaVu Sans, sans-serif" font-size="10">Source Status.ActiveCommandID</text><text x="1038" y="217.0" font-family="DejaVu Sans, sans-serif" font-size="10">Dest Status.CompleteCommandID</text><line x1="1180" y1="197.0" x2="1180" y2="197.0" stroke="black"/><line x1="60" y1="234" x2="1180" y2="234" stroke="#ddd"/><text x="10" y="295.0" font-family="DejaVu Sans, sans-serif" font-size="12" fill="#555">2</text><text x="60" y="254" font-family="DejaVu Sans, sans-serif" font-size="11" font-style="italic" fill="#367">Command failed -&gt; flag the failed id</text><line x1="60" y1="291.0" x2="60" y2="291.0" stroke="black"/><text x="96.0" y="277.0" text-anchor="middle" font-family="DejaVu Sans, sans-serif" font-size="11">Failed</text><line x1="81.0" y1="280.0" x2="81.0" y2="302.0" stroke="black" stroke-width="2"/><line x1="111.0" y1="280.0" x2="111.0" y2="302.0" stroke="black" stroke-width="2"/><line x1="60" y1="291.0" x2="81.0" y2="291.0" stroke="black"/><line x1="111.0" y1="291.0" x2="132" y2="291.0" stroke="black"/><line x1="132" y1="291.0" x2="142" y2="291.0" stroke="black"/><line x1="148" y1="291.0" x2="1030" y2="291.0" stroke="black"/><rect x="1030" y="268.0" width="150" height="46" fill="#eef" stroke="black"/><text x="1105.0" y="282.0" text-anchor="middle" font-family="DejaVu Sans, sans-serif" font-size="11" font-weight="bold">MOV</text><text x="1038" y="297.0" font-family="DejaVu Sans, sans-serif" font-size="10">Source Status.ActiveCommandID</text><text x="1038" y="311.0" font-family="DejaVu Sans, sans-serif" font-size="10">Dest Status.FailedCommandID</text><line x1="1180" y1="291.0" x2="1180" y2="291.0" stroke="black"/><line x1="60" y1="328" x2="1180" y2="328" stroke="#ddd"/></svg>