<svg xmlns="http://www.w3.org/2000/svg" width="1240" height="2130" viewBox="0 0 1240 2130"><rect width="1240" height="2130" fill="white"/><text x="620.0" y="26" font-family="DejaVu Sans, sans-serif" font-size="18" text-anchor="middle" font-weight="bold">AOI_HomeAxis — home one shoulder via the ClearLink homing move</text><line x1="60" y1="40" x2="60" y2="2120" stroke="black" stroke-width="2.5"/><line x1="1180" y1="40" x2="1180" y2="2120" stroke="black" stroke-width="2.5"/><line x1="60" y1="103" x2="70" y2="103" stroke="black"/><rect x="70" y="92" width="40" height="22" fill="none" stroke="black"/><text x="90" y="107" font-family="DejaVu Sans, sans-serif" font-size="10" text-anchor="middle">ONS</text><text x="90" y="89" font-family="DejaVu Sans, sans-serif" font-size="9" text-anchor="middle">HReq_ons</text><line x1="110" y1="103" x2="116" y2="103" stroke="black"/><rect x="116" y="83" width="101.0" height="40" fill="#fff" stroke="black"/><text x="166.5" y="99" font-family="DejaVu Sans, sans-serif" font-size="11" text-anchor="middle" font-weight="bold">EQU</text><text x="166.5" y="117" font-family="DejaVu Sans, sans-serif" font-size="10" text-anchor="middle">Step = 0</text><line x1="217.0" y1="103" x2="225.0" y2="103" stroke="black"/><line x1="225.0" y1="92" x2="225.0" y2="114" stroke="black" stroke-width="2"/><line x1="255.0" y1="92" x2="255.0" y2="114" stroke="black" stroke-width="2"/><line x1="225.0" y1="114" x2="255.0" y2="92" stroke="black" stroke-width="1.5"/><line x1="255.0" y1="103" x2="263.0" y2="103" stroke="black"/><text x="240.0" y="89" font-family="DejaVu Sans, sans-serif" font-size="11" text-anchor="middle">Fault</text><text x="10" y="107" font-family="DejaVu Sans, sans-serif" font-size="12" fill="#555">0</text><text x="60" y="66" font-family="DejaVu Sans, sans-serif" font-size="11" font-style="italic" fill="#367">Idle -&gt; start on HomeReq rising edge (not already faulted)</text><line x1="263.0" y1="103" x2="1030.0" y2="103" stroke="black"/><rect x="1030.0" y="80" width="150.0" height="46" fill="#eef" stroke="black"/><text x="1105.0" y="94" font-family="DejaVu Sans, sans-serif" font-size="11" text-anchor="middle" font-weight="bold">MOV</text><text x="1038.0" y="109" font-family="DejaVu Sans, sans-serif" font-size="10">Source 10</text><text x="1038.0" y="123" font-family="DejaVu Sans, sans-serif" font-size="10">Dest Step</text><line x1="1180" y1="103" x2="1180" y2="103" stroke="black"/><line x1="60" y1="140" x2="1180" y2="140" stroke="#ddd"/><line x1="60" y1="203" x2="66" y2="203" stroke="black"/><rect x="66" y="183" width="101.0" height="40" fill="#fff" stroke="black"/><text x="116.5" y="199" font-family="DejaVu Sans, sans-serif" font-size="11" text-anchor="middle" font-weight="bold">EQU</text><text x="116.5" y="217" font-family="DejaVu Sans, sans-serif" font-size="10" text-anchor="middle">Step = 10</text><text x="10" y="207" font-family="DejaVu Sans, sans-serif" font-size="12" fill="#555">1</text><text x="60" y="166" font-family="DejaVu Sans, sans-serif" font-size="11" font-style="italic" fill="#367">State 10 ENABLING: hold the Enable output</text><line x1="167.0" y1="203" x2="1132" y2="203" stroke="black"/><path d="M 1132 192 A 14 14 0 0 0 1132 214" fill="none" stroke="black" stroke-width="2"/><path d="M 1164 192 A 14 14 0 0 1 1164 214" fill="none" stroke="black" stroke-width="2"/><text x="1180" y="189" font-family="DejaVu Sans, sans-serif" font-size="11" text-anchor="end">Motor0_Output_Reg_Enable</text><line x1="1164" y1="203" x2="1180" y2="203" stroke="black"/><line x1="60" y1="240" x2="1180" y2="240" stroke="#ddd"/><line x1="60" y1="303" x2="66" y2="303" stroke="black"/><rect x="66" y="283" width="101.0" height="40" fill="#fff" stroke="black"/><text x="116.5" y="299" font-family="DejaVu Sans, sans-serif" font-size="11" text-anchor="middle" font-weight="bold">EQU</text><text x="116.5" y="317" font-family="DejaVu Sans, sans-serif" font-size="10" text-anchor="middle">Step = 10</text><line x1="167.0" y1="303" x2="223.0" y2="303" stroke="black"/><line x1="223.0" y1="292" x2="223.0" y2="314" stroke="black" stroke-width="2"/><line x1="253.0" y1="292" x2="253.0" y2="314" stroke="black" stroke-width="2"/><line x1="253.0" y1="303" x2="309.0" y2="303" stroke="black"/><text x="238.0" y="289" font-family="DejaVu Sans, sans-serif" font-size="11" text-anchor="middle">Motor0_Status_HLFB_ON</text><text x="10" y="307" font-family="DejaVu Sans, sans-serif" font-size="12" fill="#555">2</text><text x="60" y="266" font-family="DejaVu Sans, sans-serif" font-size="11" font-style="italic" fill="#367">State 10: advance once HLFB is asserted (EM806 needs HLFB Inversion, see notes)</text><line x1="309.0" y1="303" x2="1030.0" y2="303" stroke="black"/><rect x="1030.0" y="280" width="150.0" height="46" fill="#eef" stroke="black"/><text x="1105.0" y="294" font-family="DejaVu Sans, sans-serif" font-size="11" text-anchor="middle" font-weight="bold">MOV</text><text x="1038.0" y="309" font-family="DejaVu Sans, sans-serif" font-size="10">Source 20</text><text x="1038.0" y="323" font-family="DejaVu Sans, sans-serif" font-size="10">Dest Step</text><line x1="1180" y1="303" x2="1180" y2="303" stroke="black"/><line x1="60" y1="340" x2="1180" y2="340" stroke="#ddd"/><line x1="60" y1="403" x2="66" y2="403" stroke="black"/><rect x="66" y="383" width="101.0" height="40" fill="#fff" stroke="black"/><text x="116.5" y="399" font-family="DejaVu Sans, sans-serif" font-size="11" text-anchor="middle" font-weight="bold">EQU</text><text x="116.5" y="417" font-family="DejaVu Sans, sans-serif" font-size="10" text-anchor="middle">Step = 20</text><text x="10" y="407" font-family="DejaVu Sans, sans-serif" font-size="12" fill="#555">3</text><text x="60" y="366" font-family="DejaVu Sans, sans-serif" font-size="11" font-style="italic" fill="#367">State 20 CLEAR MOTOR FAULTS (ensures Ready To Home)</text><line x1="167.0" y1="403" x2="1132" y2="403" stroke="black"/><path d="M 1132 392 A 14 14 0 0 0 1132 414" fill="none" stroke="black" stroke-width="2"/><path d="M 1164 392 A 14 14 0 0 1 1164 414" fill="none" stroke="black" stroke-width="2"/><text x="1180" y="389" font-family="DejaVu Sans, sans-serif" font-size="11" text-anchor="end">Motor0_Output_Reg_Clear_Fault</text><line x1="1164" y1="403" x2="1180" y2="403" stroke="black"/><line x1="60" y1="440" x2="1180" y2="440" stroke="#ddd"/><line x1="60" y1="503" x2="66" y2="503" stroke="black"/><rect x="66" y="483" width="101.0" height="40" fill="#fff" stroke="black"/><text x="116.5" y="499" font-family="DejaVu Sans, sans-serif" font-size="11" text-anchor="middle" font-weight="bold">EQU</text><text x="116.5" y="517" font-family="DejaVu Sans, sans-serif" font-size="10" text-anchor="middle">Step = 20</text><line x1="167.0" y1="503" x2="265.0" y2="503" stroke="black"/><line x1="265.0" y1="492" x2="265.0" y2="514" stroke="black" stroke-width="2"/><line x1="295.0" y1="492" x2="295.0" y2="514" stroke="black" stroke-width="2"/><line x1="295.0" y1="503" x2="393.0" y2="503" stroke="black"/><text x="280.0" y="489" font-family="DejaVu Sans, sans-serif" font-size="11" text-anchor="middle">Motor0_Status_Clear_Motor_Fault_Ack</text><text x="10" y="507" font-family="DejaVu Sans, sans-serif" font-size="12" fill="#555">4</text><text x="60" y="466" font-family="DejaVu Sans, sans-serif" font-size="11" font-style="italic" fill="#367">State 20: on Clear-Fault ack, drop the request and advance</text><line x1="393.0" y1="503" x2="393.0" y2="559" stroke="black"/><line x1="393.0" y1="503" x2="1132" y2="503" stroke="black"/><path d="M 1132 492 A 14 14 0 0 0 1132 514" fill="none" stroke="black" stroke-width="2"/><path d="M 1164 492 A 14 14 0 0 1 1164 514" fill="none" stroke="black" stroke-width="2"/><text x="1180" y="489" font-family="DejaVu Sans, sans-serif" font-size="11" text-anchor="end">Motor0_Output_Reg_Clear_Fault</text><text x="1148" y="507" font-family="DejaVu Sans, sans-serif" font-size="11" text-anchor="middle">U</text><line x1="1164" y1="503" x2="1180" y2="503" stroke="black"/><line x1="393.0" y1="559" x2="1030.0" y2="559" stroke="black"/><rect x="1030.0" y="536" width="150.0" height="46" fill="#eef" stroke="black"/><text x="1105.0" y="550" font-family="DejaVu Sans, sans-serif" font-size="11" text-anchor="middle" font-weight="bold">MOV</text><text x="1038.0" y="565" font-family="DejaVu Sans, sans-serif" font-size="10">Source 30</text><text x="1038.0" y="579" font-family="DejaVu Sans, sans-serif" font-size="10">Dest Step</text><line x1="1180" y1="559" x2="1180" y2="559" stroke="black"/><line x1="60" y1="596" x2="1180" y2="596" stroke="#ddd"/><line x1="60" y1="659" x2="66" y2="659" stroke="black"/><rect x="66" y="639" width="101.0" height="40" fill="#fff" stroke="black"/><text x="116.5" y="655" font-family="DejaVu Sans, sans-serif" font-size="11" text-anchor="middle" font-weight="bold">EQU</text><text x="116.5" y="673" font-family="DejaVu Sans, sans-serif" font-size="10" text-anchor="middle">Step = 30</text><text x="10" y="663" font-family="DejaVu Sans, sans-serif" font-size="12" fill="#555">5</text><text x="60" y="622" font-family="DejaVu Sans, sans-serif" font-size="11" font-style="italic" fill="#367">State 30 CLEAR ALERTS (clears any latched shutdown)</text><line x1="167.0" y1="659" x2="1132" y2="659" stroke="black"/><path d="M 1132 648 A 14 14 0 0 0 1132 670" fill="none" stroke="black" stroke-width="2"/><path d="M 1164 648 A 14 14 0 0 1 1164 670" fill="none" stroke="black" stroke-width="2"/><text x="1180" y="645" font-family="DejaVu Sans, sans-serif" font-size="11" text-anchor="end">Motor0_Output_Reg_Clear_Alerts</text><line x1="1164" y1="659" x2="1180" y2="659" stroke="black"/><line x1="60" y1="696" x2="1180" y2="696" stroke="#ddd"/><line x1="60" y1="759" x2="66" y2="759" stroke="black"/><rect x="66" y="739" width="101.0" height="40" fill="#fff" stroke="black"/><text x="116.5" y="755" font-family="DejaVu Sans, sans-serif" font-size="11" text-anchor="middle" font-weight="bold">EQU</text><text x="116.5" y="773" font-family="DejaVu Sans, sans-serif" font-size="10" text-anchor="middle">Step = 30</text><line x1="167.0" y1="759" x2="244.0" y2="759" stroke="black"/><line x1="244.0" y1="748" x2="244.0" y2="770" stroke="black" stroke-width="2"/><line x1="274.0" y1="748" x2="274.0" y2="770" stroke="black" stroke-width="2"/><line x1="244.0" y1="770" x2="274.0" y2="748" stroke="black" stroke-width="1.5"/><line x1="274.0" y1="759" x2="351.0" y2="759" stroke="black"/><text x="259.0" y="745" font-family="DejaVu Sans, sans-serif" font-size="11" text-anchor="middle">Motor0_Status_Shutdowns_Pres</text><text x="10" y="763" font-family="DejaVu Sans, sans-serif" font-size="12" fill="#555">6</text><text x="60" y="722" font-family="DejaVu Sans, sans-serif" font-size="11" font-style="italic" fill="#367">State 30: when no shutdowns remain, drop the request and advance</text><line x1="351.0" y1="759" x2="351.0" y2="815" stroke="black"/><line x1="351.0" y1="759" x2="1132" y2="759" stroke="black"/><path d="M 1132 748 A 14 14 0 0 0 1132 770" fill="none" stroke="black" stroke-width="2"/><path d="M 1164 748 A 14 14 0 0 1 1164 770" fill="none" stroke="black" stroke-width="2"/><text x="1180" y="745" font-family="DejaVu Sans, sans-serif" font-size="11" text-anchor="end">Motor0_Output_Reg_Clear_Alerts</text><text x="1148" y="763" font-family="DejaVu Sans, sans-serif" font-size="11" text-anchor="middle">U</text><line x1="1164" y1="759" x2="1180" y2="759" stroke="black"/><line x1="351.0" y1="815" x2="1030.0" y2="815" stroke="black"/><rect x="1030.0" y="792" width="150.0" height="46" fill="#eef" stroke="black"/><text x="1105.0" y="806" font-family="DejaVu Sans, sans-serif" font-size="11" text-anchor="middle" font-weight="bold">MOV</text><text x="1038.0" y="821" font-family="DejaVu Sans, sans-serif" font-size="10">Source 40</text><text x="1038.0" y="835" font-family="DejaVu Sans, sans-serif" font-size="10">Dest Step</text><line x1="1180" y1="815" x2="1180" y2="815" stroke="black"/><line x1="60" y1="852" x2="1180" y2="852" stroke="#ddd"/><line x1="60" y1="915" x2="66" y2="915" stroke="black"/><rect x="66" y="895" width="101.0" height="40" fill="#fff" stroke="black"/><text x="116.5" y="911" font-family="DejaVu Sans, sans-serif" font-size="11" text-anchor="middle" font-weight="bold">EQU</text><text x="116.5" y="929" font-family="DejaVu Sans, sans-serif" font-size="10" text-anchor="middle">Step = 40</text><line x1="167.0" y1="915" x2="241.0" y2="915" stroke="black"/><line x1="241.0" y1="904" x2="241.0" y2="926" stroke="black" stroke-width="2"/><line x1="271.0" y1="904" x2="271.0" y2="926" stroke="black" stroke-width="2"/><line x1="271.0" y1="915" x2="345.0" y2="915" stroke="black"/><text x="256.0" y="901" font-family="DejaVu Sans, sans-serif" font-size="11" text-anchor="middle">Motor0_Status_Ready_To_Home</text><text x="10" y="919" font-family="DejaVu Sans, sans-serif" font-size="12" fill="#555">7</text><text x="60" y="878" font-family="DejaVu Sans, sans-serif" font-size="11" font-style="italic" fill="#367">State 40: wait for Ready To Home</text><line x1="345.0" y1="915" x2="1030.0" y2="915" stroke="black"/><rect x="1030.0" y="892" width="150.0" height="46" fill="#eef" stroke="black"/><text x="1105.0" y="906" font-family="DejaVu Sans, sans-serif" font-size="11" text-anchor="middle" font-weight="bold">MOV</text><text x="1038.0" y="921" font-family="DejaVu Sans, sans-serif" font-size="10">Source 50</text><text x="1038.0" y="935" font-family="DejaVu Sans, sans-serif" font-size="10">Dest Step</text><line x1="1180" y1="915" x2="1180" y2="915" stroke="black"/><line x1="60" y1="952" x2="1180" y2="952" stroke="#ddd"/><line x1="60" y1="1015" x2="66" y2="1015" stroke="black"/><rect x="66" y="995" width="101.0" height="40" fill="#fff" stroke="black"/><text x="116.5" y="1011" font-family="DejaVu Sans, sans-serif" font-size="11" text-anchor="middle" font-weight="bold">EQU</text><text x="116.5" y="1029" font-family="DejaVu Sans, sans-serif" font-size="10" text-anchor="middle">Step = 50</text><text x="10" y="1019" font-family="DejaVu Sans, sans-serif" font-size="12" fill="#555">8</text><text x="60" y="978" font-family="DejaVu Sans, sans-serif" font-size="11" font-style="italic" fill="#367">State 50 BEGIN HOMING MOVE: home flag + velocity move toward the prox</text><line x1="167.0" y1="1015" x2="167.0" y2="1239" stroke="black"/><line x1="167.0" y1="1015" x2="1132" y2="1015" stroke="black"/><path d="M 1132 1004 A 14 14 0 0 0 1132 1026" fill="none" stroke="black" stroke-width="2"/><path d="M 1164 1004 A 14 14 0 0 1 1164 1026" fill="none" stroke="black" stroke-width="2"/><text x="1180" y="1001" font-family="DejaVu Sans, sans-serif" font-size="11" text-anchor="end">Motor0_Output_Reg_Home_Flag</text><text x="1148" y="1019" font-family="DejaVu Sans, sans-serif" font-size="11" text-anchor="middle">L</text><line x1="1164" y1="1015" x2="1180" y2="1015" stroke="black"/><line x1="167.0" y1="1071" x2="1026.0" y2="1071" stroke="black"/><rect x="1026.0" y="1048" width="154.0" height="46" fill="#eef" stroke="black"/><text x="1103.0" y="1062" font-family="DejaVu Sans, sans-serif" font-size="11" text-anchor="middle" font-weight="bold">MOV</text><text x="1034.0" y="1077" font-family="DejaVu Sans, sans-serif" font-size="10">Source HomeVel (signed)</text><text x="1034.0" y="1091" font-family="DejaVu Sans, sans-serif" font-size="10">Dest Motor0_Jog_Vel</text><line x1="1180" y1="1071" x2="1180" y2="1071" stroke="black"/><line x1="167.0" y1="1127" x2="1030.0" y2="1127" stroke="black"/><rect x="1030.0" y="1104" width="150.0" height="46" fill="#eef" stroke="black"/><text x="1105.0" y="1118" font-family="DejaVu Sans, sans-serif" font-size="11" text-anchor="middle" font-weight="bold">MOV</text><text x="1038.0" y="1133" font-family="DejaVu Sans, sans-serif" font-size="10">Source HomeAccel</text><text x="1038.0" y="1147" font-family="DejaVu Sans, sans-serif" font-size="10">Dest Motor0_Accel_Lim</text><line x1="1180" y1="1127" x2="1180" y2="1127" stroke="black"/><line x1="167.0" y1="1183" x2="1132" y2="1183" stroke="black"/><path d="M 1132 1172 A 14 14 0 0 0 1132 1194" fill="none" stroke="black" stroke-width="2"/><path d="M 1164 1172 A 14 14 0 0 1 1164 1194" fill="none" stroke="black" stroke-width="2"/><text x="1180" y="1169" font-family="DejaVu Sans, sans-serif" font-size="11" text-anchor="end">Motor0_Output_Reg_Load_Vel_Data</text><text x="1148" y="1187" font-family="DejaVu Sans, sans-serif" font-size="11" text-anchor="middle">L</text><line x1="1164" y1="1183" x2="1180" y2="1183" stroke="black"/><line x1="167.0" y1="1239" x2="1030.0" y2="1239" stroke="black"/><rect x="1030.0" y="1216" width="150.0" height="46" fill="#eef" stroke="black"/><text x="1105.0" y="1230" font-family="DejaVu Sans, sans-serif" font-size="11" text-anchor="middle" font-weight="bold">MOV</text><text x="1038.0" y="1245" font-family="DejaVu Sans, sans-serif" font-size="10">Source 55</text><text x="1038.0" y="1259" font-family="DejaVu Sans, sans-serif" font-size="10">Dest Step</text><line x1="1180" y1="1239" x2="1180" y2="1239" stroke="black"/><line x1="60" y1="1276" x2="1180" y2="1276" stroke="#ddd"/><line x1="60" y1="1339" x2="66" y2="1339" stroke="black"/><rect x="66" y="1319" width="101.0" height="40" fill="#fff" stroke="black"/><text x="116.5" y="1335" font-family="DejaVu Sans, sans-serif" font-size="11" text-anchor="middle" font-weight="bold">EQU</text><text x="116.5" y="1353" font-family="DejaVu Sans, sans-serif" font-size="10" text-anchor="middle">Step = 55</text><line x1="167.0" y1="1339" x2="253.0" y2="1339" stroke="black"/><line x1="253.0" y1="1328" x2="253.0" y2="1350" stroke="black" stroke-width="2"/><line x1="283.0" y1="1328" x2="283.0" y2="1350" stroke="black" stroke-width="2"/><line x1="283.0" y1="1339" x2="369.0" y2="1339" stroke="black"/><text x="268.0" y="1325" font-family="DejaVu Sans, sans-serif" font-size="11" text-anchor="middle">Motor0_Status_Load_Vel_Move_Ack</text><text x="10" y="1343" font-family="DejaVu Sans, sans-serif" font-size="12" fill="#555">9</text><text x="60" y="1302" font-family="DejaVu Sans, sans-serif" font-size="11" font-style="italic" fill="#367">State 55: on Load-Velocity ack, drop the load bit and homing flag</text><line x1="369.0" y1="1339" x2="369.0" y2="1451" stroke="black"/><line x1="369.0" y1="1339" x2="1132" y2="1339" stroke="black"/><path d="M 1132 1328 A 14 14 0 0 0 1132 1350" fill="none" stroke="black" stroke-width="2"/><path d="M 1164 1328 A 14 14 0 0 1 1164 1350" fill="none" stroke="black" stroke-width="2"/><text x="1180" y="1325" font-family="DejaVu Sans, sans-serif" font-size="11" text-anchor="end">Motor0_Output_Reg_Load_Vel_Data</text><text x="1148" y="1343" font-family="DejaVu Sans, sans-serif" font-size="11" text-anchor="middle">U</text><line x1="1164" y1="1339" x2="1180" y2="1339" stroke="black"/><line x1="369.0" y1="1395" x2="1132" y2="1395" stroke="black"/><path d="M 1132 1384 A 14 14 0 0 0 1132 1406" fill="none" stroke="black" stroke-width="2"/><path d="M 1164 1384 A 14 14 0 0 1 1164 1406" fill="none" stroke="black" stroke-width="2"/><text x="1180" y="1381" font-family="DejaVu Sans, sans-serif" font-size="11" text-anchor="end">Motor0_Output_Reg_Home_Flag</text><text x="1148" y="1399" font-family="DejaVu Sans, sans-serif" font-size="11" text-anchor="middle">U</text><line x1="1164" y1="1395" x2="1180" y2="1395" stroke="black"/><line x1="369.0" y1="1451" x2="1030.0" y2="1451" stroke="black"/><rect x="1030.0" y="1428" width="150.0" height="46" fill="#eef" stroke="black"/><text x="1105.0" y="1442" font-family="DejaVu Sans, sans-serif" font-size="11" text-anchor="middle" font-weight="bold">MOV</text><text x="1038.0" y="1457" font-family="DejaVu Sans, sans-serif" font-size="10">Source 60</text><text x="1038.0" y="1471" font-family="DejaVu Sans, sans-serif" font-size="10">Dest Step</text><line x1="1180" y1="1451" x2="1180" y2="1451" stroke="black"/><line x1="60" y1="1488" x2="1180" y2="1488" stroke="#ddd"/><line x1="60" y1="1551" x2="66" y2="1551" stroke="black"/><rect x="66" y="1531" width="101.0" height="40" fill="#fff" stroke="black"/><text x="116.5" y="1547" font-family="DejaVu Sans, sans-serif" font-size="11" text-anchor="middle" font-weight="bold">EQU</text><text x="116.5" y="1565" font-family="DejaVu Sans, sans-serif" font-size="10" text-anchor="middle">Step = 60</text><line x1="167.0" y1="1551" x2="229.0" y2="1551" stroke="black"/><line x1="229.0" y1="1540" x2="229.0" y2="1562" stroke="black" stroke-width="2"/><line x1="259.0" y1="1540" x2="259.0" y2="1562" stroke="black" stroke-width="2"/><line x1="259.0" y1="1551" x2="321.0" y2="1551" stroke="black"/><text x="244.0" y="1537" font-family="DejaVu Sans, sans-serif" font-size="11" text-anchor="middle">Motor0_Status_Has_Homed</text><text x="10" y="1555" font-family="DejaVu Sans, sans-serif" font-size="12" fill="#555">10</text><text x="60" y="1514" font-family="DejaVu Sans, sans-serif" font-size="11" font-style="italic" fill="#367">State 60 HOMING: ClearLink zeroes at the prox -&gt; wait Has Homed</text><line x1="321.0" y1="1551" x2="321.0" y2="1607" stroke="black"/><line x1="321.0" y1="1551" x2="1132" y2="1551" stroke="black"/><path d="M 1132 1540 A 14 14 0 0 0 1132 1562" fill="none" stroke="black" stroke-width="2"/><path d="M 1164 1540 A 14 14 0 0 1 1164 1562" fill="none" stroke="black" stroke-width="2"/><text x="1180" y="1537" font-family="DejaVu Sans, sans-serif" font-size="11" text-anchor="end">Done</text><text x="1148" y="1555" font-family="DejaVu Sans, sans-serif" font-size="11" text-anchor="middle">L</text><line x1="1164" y1="1551" x2="1180" y2="1551" stroke="black"/><line x1="321.0" y1="1607" x2="1030.0" y2="1607" stroke="black"/><rect x="1030.0" y="1584" width="150.0" height="46" fill="#eef" stroke="black"/><text x="1105.0" y="1598" font-family="DejaVu Sans, sans-serif" font-size="11" text-anchor="middle" font-weight="bold">MOV</text><text x="1038.0" y="1613" font-family="DejaVu Sans, sans-serif" font-size="10">Source 70</text><text x="1038.0" y="1627" font-family="DejaVu Sans, sans-serif" font-size="10">Dest Step</text><line x1="1180" y1="1607" x2="1180" y2="1607" stroke="black"/><line x1="60" y1="1644" x2="1180" y2="1644" stroke="#ddd"/><line x1="60" y1="1707" x2="83.0" y2="1707" stroke="black"/><line x1="83.0" y1="1696" x2="83.0" y2="1718" stroke="black" stroke-width="2"/><line x1="113.0" y1="1696" x2="113.0" y2="1718" stroke="black" stroke-width="2"/><line x1="113.0" y1="1707" x2="136.0" y2="1707" stroke="black"/><text x="98.0" y="1693" font-family="DejaVu Sans, sans-serif" font-size="11" text-anchor="middle">HomeTmr.DN</text><text x="10" y="1711" font-family="DejaVu Sans, sans-serif" font-size="12" fill="#555">11</text><text x="60" y="1670" font-family="DejaVu Sans, sans-serif" font-size="11" font-style="italic" fill="#367">Homing timeout (timer runs in states 10..60) -&gt; fault</text><line x1="136.0" y1="1707" x2="136.0" y2="1763" stroke="black"/><line x1="136.0" y1="1707" x2="1132" y2="1707" stroke="black"/><path d="M 1132 1696 A 14 14 0 0 0 1132 1718" fill="none" stroke="black" stroke-width="2"/><path d="M 1164 1696 A 14 14 0 0 1 1164 1718" fill="none" stroke="black" stroke-width="2"/><text x="1180" y="1693" font-family="DejaVu Sans, sans-serif" font-size="11" text-anchor="end">Fault</text><text x="1148" y="1711" font-family="DejaVu Sans, sans-serif" font-size="11" text-anchor="middle">L</text><line x1="1164" y1="1707" x2="1180" y2="1707" stroke="black"/><line x1="136.0" y1="1763" x2="1030.0" y2="1763" stroke="black"/><rect x="1030.0" y="1740" width="150.0" height="46" fill="#eef" stroke="black"/><text x="1105.0" y="1754" font-family="DejaVu Sans, sans-serif" font-size="11" text-anchor="middle" font-weight="bold">MOV</text><text x="1038.0" y="1769" font-family="DejaVu Sans, sans-serif" font-size="10">Source 900</text><text x="1038.0" y="1783" font-family="DejaVu Sans, sans-serif" font-size="10">Dest Step</text><line x1="1180" y1="1763" x2="1180" y2="1763" stroke="black"/><line x1="60" y1="1800" x2="1180" y2="1800" stroke="#ddd"/><line x1="68" y1="1863" x2="68" y2="1893" stroke="black"/><line x1="252.0" y1="1863" x2="252.0" y2="1893" stroke="black"/><line x1="68" y1="1863" x2="145.0" y2="1863" stroke="black"/><line x1="175.0" y1="1863" x2="252.0" y2="1863" stroke="black"/><line x1="145.0" y1="1852" x2="145.0" y2="1874" stroke="black" stroke-width="2"/><line x1="175.0" y1="1852" x2="175.0" y2="1874" stroke="black" stroke-width="2"/><text x="160.0" y="1849" font-family="DejaVu Sans, sans-serif" font-size="11" text-anchor="middle">Ax.ALM (EM806 ALM via DIP)</text><line x1="68" y1="1893" x2="145.0" y2="1893" stroke="black"/><line x1="175.0" y1="1893" x2="252.0" y2="1893" stroke="black"/><line x1="145.0" y1="1882" x2="145.0" y2="1904" stroke="black" stroke-width="2"/><line x1="175.0" y1="1882" x2="175.0" y2="1904" stroke="black" stroke-width="2"/><text x="160.0" y="1879" font-family="DejaVu Sans, sans-serif" font-size="11" text-anchor="middle">Motor0_Status_Shutdowns_Pres</text><line x1="60" y1="1863" x2="68" y2="1863" stroke="black"/><text x="10" y="1867" font-family="DejaVu Sans, sans-serif" font-size="12" fill="#555">12</text><text x="60" y="1826" font-family="DejaVu Sans, sans-serif" font-size="11" font-style="italic" fill="#367">EM806 alarm or ClearLink shutdown at any time -&gt; fault</text><line x1="252.0" y1="1863" x2="252.0" y2="1919" stroke="black"/><line x1="252.0" y1="1863" x2="1132" y2="1863" stroke="black"/><path d="M 1132 1852 A 14 14 0 0 0 1132 1874" fill="none" stroke="black" stroke-width="2"/><path d="M 1164 1852 A 14 14 0 0 1 1164 1874" fill="none" stroke="black" stroke-width="2"/><text x="1180" y="1849" font-family="DejaVu Sans, sans-serif" font-size="11" text-anchor="end">Fault</text><text x="1148" y="1867" font-family="DejaVu Sans, sans-serif" font-size="11" text-anchor="middle">L</text><line x1="1164" y1="1863" x2="1180" y2="1863" stroke="black"/><line x1="252.0" y1="1919" x2="1030.0" y2="1919" stroke="black"/><rect x="1030.0" y="1896" width="150.0" height="46" fill="#eef" stroke="black"/><text x="1105.0" y="1910" font-family="DejaVu Sans, sans-serif" font-size="11" text-anchor="middle" font-weight="bold">MOV</text><text x="1038.0" y="1925" font-family="DejaVu Sans, sans-serif" font-size="10">Source 900</text><text x="1038.0" y="1939" font-family="DejaVu Sans, sans-serif" font-size="10">Dest Step</text><line x1="1180" y1="1919" x2="1180" y2="1919" stroke="black"/><line x1="60" y1="1956" x2="1180" y2="1956" stroke="#ddd"/><line x1="60" y1="2019" x2="66" y2="2019" stroke="black"/><rect x="66" y="1999" width="101.0" height="40" fill="#fff" stroke="black"/><text x="116.5" y="2015" font-family="DejaVu Sans, sans-serif" font-size="11" text-anchor="middle" font-weight="bold">EQU</text><text x="116.5" y="2033" font-family="DejaVu Sans, sans-serif" font-size="10" text-anchor="middle">Step = 900</text><text x="10" y="2023" font-family="DejaVu Sans, sans-serif" font-size="12" fill="#555">13</text><text x="60" y="1982" font-family="DejaVu Sans, sans-serif" font-size="11" font-style="italic" fill="#367">State 900 FAULT: clear move bits, hold for coordinator reset</text><line x1="167.0" y1="2019" x2="167.0" y2="2075" stroke="black"/><line x1="167.0" y1="2019" x2="1132" y2="2019" stroke="black"/><path d="M 1132 2008 A 14 14 0 0 0 1132 2030" fill="none" stroke="black" stroke-width="2"/><path d="M 1164 2008 A 14 14 0 0 1 1164 2030" fill="none" stroke="black" stroke-width="2"/><text x="1180" y="2005" font-family="DejaVu Sans, sans-serif" font-size="11" text-anchor="end">Motor0_Output_Reg_Home_Flag</text><text x="1148" y="2023" font-family="DejaVu Sans, sans-serif" font-size="11" text-anchor="middle">U</text><line x1="1164" y1="2019" x2="1180" y2="2019" stroke="black"/><line x1="167.0" y1="2075" x2="1132" y2="2075" stroke="black"/><path d="M 1132 2064 A 14 14 0 0 0 1132 2086" fill="none" stroke="black" stroke-width="2"/><path d="M 1164 2064 A 14 14 0 0 1 1164 2086" fill="none" stroke="black" stroke-width="2"/><text x="1180" y="2061" font-family="DejaVu Sans, sans-serif" font-size="11" text-anchor="end">Motor0_Output_Reg_Load_Vel_Data</text><text x="1148" y="2079" font-family="DejaVu Sans, sans-serif" font-size="11" text-anchor="middle">U</text><line x1="1164" y1="2075" x2="1180" y2="2075" stroke="black"/><line x1="60" y1="2112" x2="1180" y2="2112" stroke="#ddd"/></svg>