<svg xmlns="http://www.w3.org/2000/svg" width="1240" height="1374" viewBox="0 0 1240 1374"><rect width="1240" height="1374" fill="white"/><text x="620.0" y="26" font-family="DejaVu Sans, sans-serif" font-size="18" text-anchor="middle" font-weight="bold">R30_Homing — homing coordinator (both shoulders, sequential)</text><line x1="60" y1="40" x2="60" y2="1364" stroke="black" stroke-width="2.5"/><line x1="1180" y1="40" x2="1180" y2="1364" stroke="black" stroke-width="2.5"/><line x1="60" y1="103" x2="70" y2="103" stroke="black"/><rect x="70" y="92" width="40" height="22" fill="none" stroke="black"/><text x="90" y="107" font-family="DejaVu Sans, sans-serif" font-size="10" text-anchor="middle">ONS</text><text x="90" y="89" font-family="DejaVu Sans, sans-serif" font-size="9" text-anchor="middle">HR_ons</text><line x1="110" y1="103" x2="116" y2="103" stroke="black"/><rect x="116" y="83" width="101.0" height="40" fill="#fff" stroke="black"/><text x="166.5" y="99" font-family="DejaVu Sans, sans-serif" font-size="11" text-anchor="middle" font-weight="bold">EQU</text><text x="166.5" y="117" font-family="DejaVu Sans, sans-serif" font-size="10" text-anchor="middle">HomeStep = 0</text><line x1="217.0" y1="103" x2="252.0" y2="103" stroke="black"/><line x1="252.0" y1="92" x2="252.0" y2="114" stroke="black" stroke-width="2"/><line x1="282.0" y1="92" x2="282.0" y2="114" stroke="black" stroke-width="2"/><line x1="282.0" y1="103" x2="317.0" y2="103" stroke="black"/><text x="267.0" y="89" font-family="DejaVu Sans, sans-serif" font-size="11" text-anchor="middle">Status.Enabled</text><line x1="317.0" y1="103" x2="352.0" y2="103" stroke="black"/><line x1="352.0" y1="92" x2="352.0" y2="114" stroke="black" stroke-width="2"/><line x1="382.0" y1="92" x2="382.0" y2="114" stroke="black" stroke-width="2"/><line x1="352.0" y1="114" x2="382.0" y2="92" stroke="black" stroke-width="1.5"/><line x1="382.0" y1="103" x2="417.0" y2="103" stroke="black"/><text x="367.0" y="89" font-family="DejaVu Sans, sans-serif" font-size="11" text-anchor="middle">Status.Faulted</text><text x="10" y="107" font-family="DejaVu Sans, sans-serif" font-size="12" fill="#555">0</text><text x="60" y="66" font-family="DejaVu Sans, sans-serif" font-size="11" font-style="italic" fill="#367">Start homing on HomeRequest edge (enabled, not faulted)</text><line x1="417.0" y1="103" x2="417.0" y2="215" stroke="black"/><line x1="417.0" y1="103" x2="1030.0" y2="103" stroke="black"/><rect x="1030.0" y="80" width="150.0" height="46" fill="#eef" stroke="black"/><text x="1105.0" y="94" font-family="DejaVu Sans, sans-serif" font-size="11" text-anchor="middle" font-weight="bold">MOV</text><text x="1038.0" y="109" font-family="DejaVu Sans, sans-serif" font-size="10">Source 10</text><text x="1038.0" y="123" font-family="DejaVu Sans, sans-serif" font-size="10">Dest HomeStep</text><line x1="1180" y1="103" x2="1180" y2="103" stroke="black"/><line x1="417.0" y1="159" x2="1132" y2="159" stroke="black"/><path d="M 1132 148 A 14 14 0 0 0 1132 170" fill="none" stroke="black" stroke-width="2"/><path d="M 1164 148 A 14 14 0 0 1 1164 170" fill="none" stroke="black" stroke-width="2"/><text x="1180" y="145" font-family="DejaVu Sans, sans-serif" font-size="11" text-anchor="end">Status.Homed</text><text x="1148" y="163" font-family="DejaVu Sans, sans-serif" font-size="11" text-anchor="middle">U</text><line x1="1164" y1="159" x2="1180" y2="159" stroke="black"/><line x1="417.0" y1="215" x2="1132" y2="215" stroke="black"/><path d="M 1132 204 A 14 14 0 0 0 1132 226" fill="none" stroke="black" stroke-width="2"/><path d="M 1164 204 A 14 14 0 0 1 1164 226" fill="none" stroke="black" stroke-width="2"/><text x="1180" y="201" font-family="DejaVu Sans, sans-serif" font-size="11" text-anchor="end">Ax0_HomeReq</text><text x="1148" y="219" font-family="DejaVu Sans, sans-serif" font-size="11" text-anchor="middle">L</text><line x1="1164" y1="215" x2="1180" y2="215" stroke="black"/><line x1="60" y1="252" x2="1180" y2="252" stroke="#ddd"/><line x1="60" y1="315" x2="66" y2="315" stroke="black"/><rect x="66" y="295" width="101.0" height="40" fill="#fff" stroke="black"/><text x="116.5" y="311" font-family="DejaVu Sans, sans-serif" font-size="11" text-anchor="middle" font-weight="bold">EQU</text><text x="116.5" y="329" font-family="DejaVu Sans, sans-serif" font-size="10" text-anchor="middle">HomeStep = 10</text><line x1="167.0" y1="315" x2="196.0" y2="315" stroke="black"/><line x1="196.0" y1="304" x2="196.0" y2="326" stroke="black" stroke-width="2"/><line x1="226.0" y1="304" x2="226.0" y2="326" stroke="black" stroke-width="2"/><line x1="226.0" y1="315" x2="255.0" y2="315" stroke="black"/><text x="211.0" y="301" font-family="DejaVu Sans, sans-serif" font-size="11" text-anchor="middle">Ax0_HomeDone</text><text x="10" y="319" font-family="DejaVu Sans, sans-serif" font-size="12" fill="#555">1</text><text x="60" y="278" font-family="DejaVu Sans, sans-serif" font-size="11" font-style="italic" fill="#367">Axis 0 (left) homed -&gt; start Axis 1 (right)</text><line x1="255.0" y1="315" x2="255.0" y2="427" stroke="black"/><line x1="255.0" y1="315" x2="1132" y2="315" stroke="black"/><path d="M 1132 304 A 14 14 0 0 0 1132 326" fill="none" stroke="black" stroke-width="2"/><path d="M 1164 304 A 14 14 0 0 1 1164 326" fill="none" stroke="black" stroke-width="2"/><text x="1180" y="301" font-family="DejaVu Sans, sans-serif" font-size="11" text-anchor="end">Ax0_HomeReq</text><text x="1148" y="319" font-family="DejaVu Sans, sans-serif" font-size="11" text-anchor="middle">U</text><line x1="1164" y1="315" x2="1180" y2="315" stroke="black"/><line x1="255.0" y1="371" x2="1132" y2="371" stroke="black"/><path d="M 1132 360 A 14 14 0 0 0 1132 382" fill="none" stroke="black" stroke-width="2"/><path d="M 1164 360 A 14 14 0 0 1 1164 382" fill="none" stroke="black" stroke-width="2"/><text x="1180" y="357" font-family="DejaVu Sans, sans-serif" font-size="11" text-anchor="end">Ax1_HomeReq</text><text x="1148" y="375" font-family="DejaVu Sans, sans-serif" font-size="11" text-anchor="middle">L</text><line x1="1164" y1="371" x2="1180" y2="371" stroke="black"/><line x1="255.0" y1="427" x2="1030.0" y2="427" stroke="black"/><rect x="1030.0" y="404" width="150.0" height="46" fill="#eef" stroke="black"/><text x="1105.0" y="418" font-family="DejaVu Sans, sans-serif" font-size="11" text-anchor="middle" font-weight="bold">MOV</text><text x="1038.0" y="433" font-family="DejaVu Sans, sans-serif" font-size="10">Source 20</text><text x="1038.0" y="447" font-family="DejaVu Sans, sans-serif" font-size="10">Dest HomeStep</text><line x1="1180" y1="427" x2="1180" y2="427" stroke="black"/><line x1="60" y1="464" x2="1180" y2="464" stroke="#ddd"/><line x1="60" y1="527" x2="66" y2="527" stroke="black"/><rect x="66" y="507" width="101.0" height="40" fill="#fff" stroke="black"/><text x="116.5" y="523" font-family="DejaVu Sans, sans-serif" font-size="11" text-anchor="middle" font-weight="bold">EQU</text><text x="116.5" y="541" font-family="DejaVu Sans, sans-serif" font-size="10" text-anchor="middle">HomeStep = 20</text><line x1="167.0" y1="527" x2="196.0" y2="527" stroke="black"/><line x1="196.0" y1="516" x2="196.0" y2="538" stroke="black" stroke-width="2"/><line x1="226.0" y1="516" x2="226.0" y2="538" stroke="black" stroke-width="2"/><line x1="226.0" y1="527" x2="255.0" y2="527" stroke="black"/><text x="211.0" y="513" font-family="DejaVu Sans, sans-serif" font-size="11" text-anchor="middle">Ax1_HomeDone</text><text x="10" y="531" font-family="DejaVu Sans, sans-serif" font-size="12" fill="#555">2</text><text x="60" y="490" font-family="DejaVu Sans, sans-serif" font-size="11" font-style="italic" fill="#367">Axis 1 (right) homed</text><line x1="255.0" y1="527" x2="255.0" y2="583" stroke="black"/><line x1="255.0" y1="527" x2="1132" y2="527" stroke="black"/><path d="M 1132 516 A 14 14 0 0 0 1132 538" fill="none" stroke="black" stroke-width="2"/><path d="M 1164 516 A 14 14 0 0 1 1164 538" fill="none" stroke="black" stroke-width="2"/><text x="1180" y="513" font-family="DejaVu Sans, sans-serif" font-size="11" text-anchor="end">Ax1_HomeReq</text><text x="1148" y="531" font-family="DejaVu Sans, sans-serif" font-size="11" text-anchor="middle">U</text><line x1="1164" y1="527" x2="1180" y2="527" stroke="black"/><line x1="255.0" y1="583" x2="1030.0" y2="583" stroke="black"/><rect x="1030.0" y="560" width="150.0" height="46" fill="#eef" stroke="black"/><text x="1105.0" y="574" font-family="DejaVu Sans, sans-serif" font-size="11" text-anchor="middle" font-weight="bold">MOV</text><text x="1038.0" y="589" font-family="DejaVu Sans, sans-serif" font-size="10">Source 30</text><text x="1038.0" y="603" font-family="DejaVu Sans, sans-serif" font-size="10">Dest HomeStep</text><line x1="1180" y1="583" x2="1180" y2="583" stroke="black"/><line x1="60" y1="620" x2="1180" y2="620" stroke="#ddd"/><line x1="60" y1="683" x2="66" y2="683" stroke="black"/><rect x="66" y="663" width="101.0" height="40" fill="#fff" stroke="black"/><text x="116.5" y="679" font-family="DejaVu Sans, sans-serif" font-size="11" text-anchor="middle" font-weight="bold">EQU</text><text x="116.5" y="697" font-family="DejaVu Sans, sans-serif" font-size="10" text-anchor="middle">HomeStep = 30</text><text x="10" y="687" font-family="DejaVu Sans, sans-serif" font-size="12" fill="#555">3</text><text x="60" y="646" font-family="DejaVu Sans, sans-serif" font-size="11" font-style="italic" fill="#367">Publish angles with the home offset, enable soft limits, return to idle</text><line x1="167.0" y1="683" x2="167.0" y2="907" stroke="black"/><line x1="167.0" y1="683" x2="726.0" y2="683" stroke="black"/><rect x="726.0" y="666" width="454.0" height="34" fill="#eef" stroke="black"/><text x="953.0" y="680" font-family="DejaVu Sans, sans-serif" font-size="11" text-anchor="middle" font-weight="bold">CPT</text><text x="734.0" y="695" font-family="DejaVu Sans, sans-serif" font-size="10">Status.ActualLeftDeg := (Ax0.CmdPosition + HOME_OFFSET_L) / STEPS_PER_DEG</text><line x1="167.0" y1="739" x2="720.0" y2="739" stroke="black"/><rect x="720.0" y="722" width="460.0" height="34" fill="#eef" stroke="black"/><text x="950.0" y="736" font-family="DejaVu Sans, sans-serif" font-size="11" text-anchor="middle" font-weight="bold">CPT</text><text x="728.0" y="751" font-family="DejaVu Sans, sans-serif" font-size="10">Status.ActualRightDeg := (Ax1.CmdPosition + HOME_OFFSET_R) / STEPS_PER_DEG</text><line x1="167.0" y1="795" x2="1132" y2="795" stroke="black"/><path d="M 1132 784 A 14 14 0 0 0 1132 806" fill="none" stroke="black" stroke-width="2"/><path d="M 1164 784 A 14 14 0 0 1 1164 806" fill="none" stroke="black" stroke-width="2"/><text x="1180" y="781" font-family="DejaVu Sans, sans-serif" font-size="11" text-anchor="end">SoftLimitsEnable</text><line x1="1164" y1="795" x2="1180" y2="795" stroke="black"/><line x1="167.0" y1="851" x2="1132" y2="851" stroke="black"/><path d="M 1132 840 A 14 14 0 0 0 1132 862" fill="none" stroke="black" stroke-width="2"/><path d="M 1164 840 A 14 14 0 0 1 1164 862" fill="none" stroke="black" stroke-width="2"/><text x="1180" y="837" font-family="DejaVu Sans, sans-serif" font-size="11" text-anchor="end">Status.Homed</text><text x="1148" y="855" font-family="DejaVu Sans, sans-serif" font-size="11" text-anchor="middle">L</text><line x1="1164" y1="851" x2="1180" y2="851" stroke="black"/><line x1="167.0" y1="907" x2="1030.0" y2="907" stroke="black"/><rect x="1030.0" y="884" width="150.0" height="46" fill="#eef" stroke="black"/><text x="1105.0" y="898" font-family="DejaVu Sans, sans-serif" font-size="11" text-anchor="middle" font-weight="bold">MOV</text><text x="1038.0" y="913" font-family="DejaVu Sans, sans-serif" font-size="10">Source 0</text><text x="1038.0" y="927" font-family="DejaVu Sans, sans-serif" font-size="10">Dest HomeStep</text><line x1="1180" y1="907" x2="1180" y2="907" stroke="black"/><line x1="60" y1="944" x2="1180" y2="944" stroke="#ddd"/><text x="10" y="1011" font-family="DejaVu Sans, sans-serif" font-size="12" fill="#555">4</text><text x="60" y="970" font-family="DejaVu Sans, sans-serif" font-size="11" font-style="italic" fill="#367">Run the Axis 0 homing AOI every scan (self-idles when not requested)</text><line x1="60" y1="1007" x2="710.0" y2="1007" stroke="black"/><rect x="710.0" y="973.0" width="470.0" height="68" fill="#efe" stroke="black"/><text x="945.0" y="988.0" font-family="DejaVu Sans, sans-serif" font-size="11" text-anchor="middle" font-weight="bold">AOI_HomeAxis  HomeAxis0</text><text x="718.0" y="1006.0" font-family="DejaVu Sans, sans-serif" font-size="10">HomeReq := Ax0_HomeReq   HomeVel := HOME_VEL   HomeAccel := HOME_ACC</text><text x="718.0" y="1022.0" font-family="DejaVu Sans, sans-serif" font-size="10">TimeoutPreset := HOME_TIMEOUT   Ax := Ax0</text><text x="718.0" y="1038.0" font-family="DejaVu Sans, sans-serif" font-size="10">Done -&gt; Ax0_HomeDone   Fault -&gt; Ax0_HomeFault</text><line x1="1180" y1="1007" x2="1180" y2="1007" stroke="black"/><line x1="60" y1="1044" x2="1180" y2="1044" stroke="#ddd"/><text x="10" y="1111" font-family="DejaVu Sans, sans-serif" font-size="12" fill="#555">5</text><text x="60" y="1070" font-family="DejaVu Sans, sans-serif" font-size="11" font-style="italic" fill="#367">Run the Axis 1 homing AOI every scan (HomeVel sign = approach direction)</text><line x1="60" y1="1107" x2="710.0" y2="1107" stroke="black"/><rect x="710.0" y="1073.0" width="470.0" height="68" fill="#efe" stroke="black"/><text x="945.0" y="1088.0" font-family="DejaVu Sans, sans-serif" font-size="11" text-anchor="middle" font-weight="bold">AOI_HomeAxis  HomeAxis1</text><text x="718.0" y="1106.0" font-family="DejaVu Sans, sans-serif" font-size="10">HomeReq := Ax1_HomeReq   HomeVel := -HOME_VEL   HomeAccel := HOME_ACC</text><text x="718.0" y="1122.0" font-family="DejaVu Sans, sans-serif" font-size="10">TimeoutPreset := HOME_TIMEOUT   Ax := Ax1</text><text x="718.0" y="1138.0" font-family="DejaVu Sans, sans-serif" font-size="10">Done -&gt; Ax1_HomeDone   Fault -&gt; Ax1_HomeFault</text><line x1="1180" y1="1107" x2="1180" y2="1107" stroke="black"/><line x1="60" y1="1144" x2="1180" y2="1144" stroke="#ddd"/><line x1="68" y1="1207" x2="68" y2="1237" stroke="black"/><line x1="162.0" y1="1207" x2="162.0" y2="1237" stroke="black"/><line x1="68" y1="1207" x2="100.0" y2="1207" stroke="black"/><line x1="130.0" y1="1207" x2="162.0" y2="1207" stroke="black"/><line x1="100.0" y1="1196" x2="100.0" y2="1218" stroke="black" stroke-width="2"/><line x1="130.0" y1="1196" x2="130.0" y2="1218" stroke="black" stroke-width="2"/><text x="115.0" y="1193" font-family="DejaVu Sans, sans-serif" font-size="11" text-anchor="middle">Ax0_HomeFault</text><line x1="68" y1="1237" x2="100.0" y2="1237" stroke="black"/><line x1="130.0" y1="1237" x2="162.0" y2="1237" stroke="black"/><line x1="100.0" y1="1226" x2="100.0" y2="1248" stroke="black" stroke-width="2"/><line x1="130.0" y1="1226" x2="130.0" y2="1248" stroke="black" stroke-width="2"/><text x="115.0" y="1223" font-family="DejaVu Sans, sans-serif" font-size="11" text-anchor="middle">Ax1_HomeFault</text><line x1="60" y1="1207" x2="68" y2="1207" stroke="black"/><text x="10" y="1211" font-family="DejaVu Sans, sans-serif" font-size="12" fill="#555">6</text><text x="60" y="1170" font-family="DejaVu Sans, sans-serif" font-size="11" font-style="italic" fill="#367">Either axis homing fault -&gt; homing fault (FaultCode 4)</text><line x1="162.0" y1="1207" x2="162.0" y2="1319" stroke="black"/><line x1="162.0" y1="1207" x2="1132" y2="1207" stroke="black"/><path d="M 1132 1196 A 14 14 0 0 0 1132 1218" fill="none" stroke="black" stroke-width="2"/><path d="M 1164 1196 A 14 14 0 0 1 1164 1218" fill="none" stroke="black" stroke-width="2"/><text x="1180" y="1193" font-family="DejaVu Sans, sans-serif" font-size="11" text-anchor="end">Status.Faulted</text><text x="1148" y="1211" font-family="DejaVu Sans, sans-serif" font-size="11" text-anchor="middle">L</text><line x1="1164" y1="1207" x2="1180" y2="1207" stroke="black"/><line x1="162.0" y1="1263" x2="1030.0" y2="1263" stroke="black"/><rect x="1030.0" y="1240" width="150.0" height="46" fill="#eef" stroke="black"/><text x="1105.0" y="1254" font-family="DejaVu Sans, sans-serif" font-size="11" text-anchor="middle" font-weight="bold">MOV</text><text x="1038.0" y="1269" font-family="DejaVu Sans, sans-serif" font-size="10">Source 4</text><text x="1038.0" y="1283" font-family="DejaVu Sans, sans-serif" font-size="10">Dest Status.FaultCode</text><line x1="1180" y1="1263" x2="1180" y2="1263" stroke="black"/><line x1="162.0" y1="1319" x2="1030.0" y2="1319" stroke="black"/><rect x="1030.0" y="1296" width="150.0" height="46" fill="#eef" stroke="black"/><text x="1105.0" y="1310" font-family="DejaVu Sans, sans-serif" font-size="11" text-anchor="middle" font-weight="bold">MOV</text><text x="1038.0" y="1325" font-family="DejaVu Sans, sans-serif" font-size="10">Source 900</text><text x="1038.0" y="1339" font-family="DejaVu Sans, sans-serif" font-size="10">Dest HomeStep</text><line x1="1180" y1="1319" x2="1180" y2="1319" stroke="black"/><line x1="60" y1="1356" x2="1180" y2="1356" stroke="#ddd"/></svg>